<svg width="11" height="11" viewBox="0 0 11 11" fill="none" xmlns="http://www.w3.org/2000/svg">
<path d="M2.16333 1.22222C2.2 1.76611 2.29167 2.29778 2.43833 2.805L1.705 3.53833C1.45444 2.805 1.29556 2.02889 1.24056 1.22222H2.16333ZM8.18889 8.56778C8.70833 8.71444 9.24 8.80611 9.77778 8.84278V9.75333C8.97111 9.69833 8.195 9.53944 7.45556 9.295L8.18889 8.56778ZM2.75 0H0.611111C0.275 0 0 0.275 0 0.611111C0 6.34944 4.65056 11 10.3889 11C10.725 11 11 10.725 11 10.3889V8.25611C11 7.92 10.725 7.645 10.3889 7.645C9.63111 7.645 8.89167 7.52278 8.20722 7.29667C8.14611 7.27222 8.07889 7.26611 8.01778 7.26611C7.85889 7.26611 7.70611 7.32722 7.58389 7.44333L6.23944 8.78778C4.51 7.90167 3.09222 6.49 2.21222 4.76056L3.55667 3.41611C3.72778 3.245 3.77667 3.00667 3.70944 2.79278C3.48333 2.10833 3.36111 1.375 3.36111 0.611111C3.36111 0.275 3.08611 0 2.75 0Z" fill="#525FE1"/>
</svg>
