<svg width="18" height="18" viewBox="0 0 18 18" fill="none" xmlns="http://www.w3.org/2000/svg">
<path d="M6.89229 8.36094C6.72282 8.19147 6.49296 8.09626 6.25329 8.09626C6.01362 8.09626 5.78377 8.19147 5.61429 8.36094C5.44482 8.53042 5.34961 8.76027 5.34961 8.99994C5.34961 9.23962 5.44482 9.46947 5.61429 9.63894L8.31429 12.3389C8.39839 12.4224 8.49812 12.4884 8.60778 12.5331C8.71743 12.5779 8.83485 12.6006 8.95329 12.5999C9.0765 12.596 9.19759 12.5669 9.30906 12.5142C9.42053 12.4616 9.52 12.3866 9.60129 12.2939L15.9013 5.09394C16.0468 4.91334 16.1169 4.68355 16.0971 4.4525C16.0773 4.22144 15.969 4.00695 15.7949 3.85375C15.6208 3.70055 15.3943 3.62046 15.1626 3.63019C14.9309 3.63991 14.7119 3.7387 14.5513 3.90594L8.95329 10.3859L6.89229 8.36094Z" fill="#525FE1"/>
<path d="M17.0532 8.1C16.8146 8.1 16.5856 8.19482 16.4169 8.3636C16.2481 8.53239 16.1532 8.7613 16.1532 9C16.1532 10.9096 15.3947 12.7409 14.0444 14.0912C12.6942 15.4414 10.8628 16.2 8.95325 16.2C7.53133 16.1994 6.14144 15.7777 4.95884 14.9882C3.77624 14.1987 2.85388 13.0767 2.30808 11.7637C1.76228 10.4507 1.61748 9.00549 1.89193 7.6103C2.16638 6.21512 2.8478 4.93244 3.85025 3.924C4.51688 3.24845 5.31156 2.71264 6.18778 2.34793C7.064 1.98323 8.00416 1.79695 8.95325 1.8C9.52876 1.8036 10.1021 1.87 10.6632 1.998C10.7807 2.03432 10.9043 2.0462 11.0265 2.03292C11.1487 2.01963 11.2668 1.98146 11.3737 1.92076C11.4806 1.86006 11.5739 1.77811 11.6479 1.67996C11.7219 1.58181 11.775 1.46956 11.8039 1.3501C11.8328 1.23065 11.837 1.10653 11.8161 0.98541C11.7953 0.864285 11.7498 0.748718 11.6826 0.645832C11.6153 0.542947 11.5277 0.454924 11.4252 0.38719C11.3226 0.319456 11.2073 0.273448 11.0862 0.252C10.3871 0.0875184 9.6715 0.00297668 8.95325 0C7.17515 0.00923718 5.43964 0.544969 3.96572 1.53959C2.4918 2.53421 1.34552 3.94314 0.671557 5.58858C-0.00240975 7.23402 -0.173868 9.04223 0.178821 10.785C0.53151 12.5278 1.39254 14.1271 2.65325 15.381C4.32427 17.0528 6.58954 17.9945 8.95325 18C11.3402 18 13.6294 17.0518 15.3172 15.364C17.005 13.6761 17.9532 11.3869 17.9532 9C17.9532 8.7613 17.8584 8.53239 17.6896 8.3636C17.5209 8.19482 17.2919 8.1 17.0532 8.1Z" fill="#525FE1"/>
</svg>
