<svg width="21" height="18" viewBox="0 0 21 18" fill="none" xmlns="http://www.w3.org/2000/svg">
<path d="M8.12516 13.6663C9.87406 13.6663 11.2918 12.2486 11.2918 10.4997C11.2918 8.75077 9.87406 7.33301 8.12516 7.33301C6.37626 7.33301 4.9585 8.75077 4.9585 10.4997C4.9585 12.2486 6.37626 13.6663 8.12516 13.6663Z" stroke="white" stroke-linecap="round" stroke-linejoin="round"/>
<path d="M3.11668 16.8332C3.56646 15.8857 4.27579 15.0852 5.16231 14.5247C6.04882 13.9642 7.07615 13.6667 8.125 13.6667C9.17385 13.6667 10.2012 13.9642 11.0877 14.5247C11.9742 15.0852 12.6835 15.8857 13.1333 16.8332L19.2083 16.8333C19.3123 16.8333 19.4152 16.8129 19.5113 16.7731C19.6073 16.7333 19.6946 16.675 19.7681 16.6015C19.8416 16.528 19.9 16.4407 19.9397 16.3446C19.9795 16.2486 20 16.1456 20 16.0417V1.79167C20 1.5817 19.9166 1.38034 19.7681 1.23187C19.6197 1.08341 19.4183 1 19.2083 1H1.79167C1.5817 1 1.38034 1.08341 1.23187 1.23187C1.08341 1.38034 1 1.5817 1 1.79167V16.0417C1 16.1457 1.02048 16.2486 1.06026 16.3447C1.10005 16.4407 1.15836 16.528 1.23188 16.6015C1.30539 16.675 1.39267 16.7333 1.48871 16.7731C1.58476 16.8129 1.68771 16.8333 1.79167 16.8333L3.11668 16.8332Z" stroke="white" stroke-linecap="round" stroke-linejoin="round"/>
<path d="M15.2498 13.667H16.8332V4.16699H4.1665V5.75033" stroke="white" stroke-linecap="round" stroke-linejoin="round"/>
</svg>
