<svg width="18" height="18" viewBox="0 0 18 18" fill="none" xmlns="http://www.w3.org/2000/svg">
<path d="M12.8786 9.02429C12.8786 9.19407 12.8112 9.3569 12.6911 9.47696C12.5711 9.59701 12.4082 9.66445 12.2385 9.66445H5.83691C5.66713 9.66445 5.5043 9.59701 5.38425 9.47696C5.2642 9.3569 5.19675 9.19407 5.19675 9.02429C5.19675 8.85451 5.2642 8.69169 5.38425 8.57163C5.5043 8.45158 5.66713 8.38414 5.83691 8.38414H12.2385C12.4082 8.38414 12.5711 8.45158 12.6911 8.57163C12.8112 8.69169 12.8786 8.85451 12.8786 9.02429ZM12.2385 5.8235H5.83691C5.66713 5.8235 5.5043 5.89095 5.38425 6.011C5.2642 6.13105 5.19675 6.29388 5.19675 6.46366C5.19675 6.63344 5.2642 6.79627 5.38425 6.91632C5.5043 7.03637 5.66713 7.10382 5.83691 7.10382H12.2385C12.4082 7.10382 12.5711 7.03637 12.6911 6.91632C12.8112 6.79627 12.8786 6.63344 12.8786 6.46366C12.8786 6.29388 12.8112 6.13105 12.6911 6.011C12.5711 5.89095 12.4082 5.8235 12.2385 5.8235ZM9.03769 10.9448H5.83691C5.66713 10.9448 5.5043 11.0122 5.38425 11.1323C5.2642 11.2523 5.19675 11.4151 5.19675 11.5849C5.19675 11.7547 5.2642 11.9175 5.38425 12.0376C5.5043 12.1576 5.66713 12.2251 5.83691 12.2251H9.03769C9.20747 12.2251 9.37029 12.1576 9.49035 12.0376C9.6104 11.9175 9.67784 11.7547 9.67784 11.5849C9.67784 11.4151 9.6104 11.2523 9.49035 11.1323C9.37029 11.0122 9.20747 10.9448 9.03769 10.9448ZM17.9672 17.1441C18.003 17.2515 18.0096 17.3666 17.9864 17.4775C17.9632 17.5883 17.911 17.6911 17.8351 17.7752C17.7592 17.8593 17.6623 17.9217 17.5544 17.9561C17.4465 17.9906 17.3314 17.9958 17.2208 17.9712L13.0399 17.0423C11.1069 18.0133 8.88875 18.2557 6.79164 17.7249C4.69453 17.194 2.85876 15.9257 1.62045 14.1519C0.382133 12.3781 -0.17587 10.2177 0.0486022 8.0661C0.273074 5.91453 1.265 3.91578 2.84277 2.43582C4.42054 0.955858 6.47859 0.093702 8.6401 0.00720276C10.8016 -0.0792964 12.922 0.615649 14.613 1.9648C16.3039 3.31396 17.4524 5.22705 17.8481 7.35381C18.2438 9.48057 17.8602 11.6787 16.7676 13.5457L17.9672 17.1441ZM15.5257 13.1213C16.516 11.5467 16.8996 9.66548 16.6048 7.8288C16.31 5.99212 15.357 4.32545 13.9237 3.1398C12.4903 1.95415 10.6745 1.33054 8.81516 1.38534C6.9558 1.44014 5.17989 2.16961 3.81885 3.43762C2.45781 4.70562 1.60463 6.42553 1.41853 8.27638C1.23243 10.1272 1.72612 11.9826 2.80748 13.4961C3.88883 15.0097 5.48396 16.0782 7.2952 16.502C9.10643 16.9259 11.01 16.6763 12.6507 15.7997C12.7854 15.7271 12.9419 15.7057 13.0912 15.7396L16.395 16.4738L15.4591 13.6667C15.429 13.5766 15.4194 13.4809 15.4309 13.3865C15.4424 13.2922 15.4748 13.2016 15.5257 13.1213Z" fill="white"/>
</svg>
