<svg width="293" height="212" viewBox="0 0 293 212" fill="none" xmlns="http://www.w3.org/2000/svg">
<path d="M182.608 211.512C185.492 205.282 188.374 198.96 189.626 192.21C190.878 185.459 190.352 178.133 186.767 172.279C183.182 166.424 176.123 162.454 169.387 163.777C163.854 164.864 159.411 169.222 156.81 174.225C154.208 179.227 153.165 184.87 152.153 190.417C151.826 184.115 151.48 177.712 149.386 171.759C147.293 165.806 143.171 160.258 137.296 157.954C131.421 155.651 123.778 157.462 120.682 162.961C116.319 170.707 122.104 181.573 117.087 188.913C116.227 181.551 108.527 175.734 101.21 176.918C93.8921 178.102 88.4199 186.05 89.9252 193.308C90.821 197.627 93.7678 201.301 97.2908 203.955C100.814 206.609 104.911 209.685 108.965 211.425L182.608 211.512Z" fill="#F2F2F2"/>
<path d="M93.7679 182.12C99.5807 184.152 105.447 186.206 110.754 189.383C115.51 192.23 119.745 196.063 122.42 200.971C123.885 203.605 124.755 206.528 124.969 209.534C125.007 210.162 125.991 210.167 125.952 209.534C125.608 203.936 122.88 198.812 119.102 194.761C114.96 190.319 109.593 187.285 104.051 184.931C100.765 183.535 97.3979 182.349 94.0293 181.172C93.4307 180.962 93.1734 181.912 93.7679 182.12Z" fill="white"/>
<path d="M127.295 158.932C130.867 164.881 133.726 171.23 135.816 177.847C137.91 184.462 139.229 191.297 139.746 198.216C140.032 202.089 140.064 205.977 139.84 209.854C139.803 210.487 140.787 210.484 140.823 209.854C141.22 202.864 140.797 195.851 139.562 188.959C138.33 182.068 136.305 175.342 133.527 168.916C131.967 165.307 130.169 161.806 128.144 158.435C128.076 158.328 127.969 158.25 127.845 158.22C127.721 158.19 127.59 158.209 127.48 158.273C127.37 158.338 127.289 158.442 127.255 158.565C127.22 158.688 127.235 158.819 127.295 158.932Z" fill="white"/>
<path d="M175.426 164.581C170.374 175.93 166.819 187.889 164.85 200.155C164.298 203.6 163.87 207.062 163.567 210.542C163.512 211.172 164.495 211.168 164.55 210.542C165.621 198.303 168.266 186.253 172.42 174.692C173.587 171.441 174.872 168.236 176.275 165.077C176.529 164.504 175.682 164.003 175.426 164.581Z" fill="white"/>
<path d="M34.7685 210.777C24.6937 208.155 15.7911 202.226 9.48771 193.941C3.1843 185.656 -0.154854 175.494 0.00551851 165.085C0.0454727 162.491 0.318161 159.844 1.40838 157.49C2.4986 155.136 4.52367 153.101 7.0568 152.543C9.82133 151.935 12.7385 153.179 14.7988 155.12C16.859 157.061 18.2098 159.622 19.4527 162.166C26.9387 177.485 32.6264 193.922 34.7558 210.839L34.7685 210.777Z" fill="#F2F2F2"/>
<path d="M5.80287 153.054L11.0495 164.975L16.2961 176.896C17.9577 180.671 19.6161 184.448 21.3336 188.198C23.036 191.916 24.7967 195.607 26.675 199.239C28.5506 202.866 30.5441 206.434 32.708 209.898C32.9774 210.329 33.2495 210.759 33.5243 211.186C33.7144 211.483 34.1898 211.208 33.9983 210.909C31.7929 207.472 29.7609 203.926 27.855 200.314C25.947 196.698 24.1638 193.018 22.4464 189.309C20.7198 185.579 19.0597 181.82 17.4039 178.059C15.6611 174.1 13.9186 170.141 12.1763 166.181L6.92973 154.261L6.27681 152.777C6.13483 152.454 5.66173 152.733 5.80283 153.054L5.80287 153.054Z" fill="white"/>
<path d="M32.5799 210.86C26.6414 212.219 20.4187 211.544 14.9094 208.944C9.40014 206.345 4.92327 201.97 2.19646 196.523C1.51706 195.165 0.943801 193.717 0.874458 192.201C0.805114 190.685 1.30696 189.081 2.47156 188.108C3.74256 187.045 5.59299 186.904 7.18669 187.355C8.7804 187.807 10.1732 188.772 11.505 189.757C19.5272 195.69 26.9176 202.688 32.59 210.896L32.5799 210.86Z" fill="#F2F2F2"/>
<path d="M1.95859 188.712L7.9007 193.485L13.8428 198.257C15.7247 199.769 17.6054 201.282 19.5095 202.765C21.3969 204.236 23.3076 205.677 25.2634 207.056C27.2163 208.433 29.2145 209.747 31.2729 210.961C31.5292 211.112 31.7865 211.261 32.0447 211.41C32.2234 211.512 32.396 211.241 32.216 211.138C30.1429 209.948 28.1306 208.656 26.1661 207.295C24.1994 205.933 22.2801 204.504 20.387 203.042C18.4839 201.571 16.607 200.068 14.732 198.562C12.7583 196.977 10.7848 195.392 8.81145 193.807L2.86935 189.034L2.12989 188.44C1.96908 188.311 1.79878 188.584 1.9586 188.712H1.95859Z" fill="white"/>
<path d="M285.493 211.627H14.3153C14.2639 211.627 14.213 211.617 14.1655 211.598C14.1181 211.578 14.0749 211.55 14.0385 211.513C14.0022 211.477 13.9733 211.434 13.9536 211.387C13.934 211.339 13.9238 211.288 13.9238 211.237C13.9238 211.186 13.934 211.135 13.9536 211.087C13.9733 211.04 14.0022 210.997 14.0385 210.961C14.0749 210.924 14.1181 210.896 14.1655 210.876C14.213 210.857 14.2639 210.847 14.3153 210.847H285.493C285.597 210.847 285.696 210.888 285.769 210.961C285.842 211.034 285.883 211.133 285.883 211.237C285.883 211.34 285.842 211.44 285.769 211.513C285.696 211.586 285.597 211.627 285.493 211.627Z" fill="#3F3D56"/>
<path d="M278.369 172.523H260.01C260.01 172.741 259.924 172.949 259.77 173.103C259.616 173.256 259.408 173.343 259.191 173.343H241.169C240.914 173.535 240.682 173.755 240.477 173.998C239.861 174.733 239.524 175.662 239.526 176.621V177.276C239.527 178.363 239.959 179.405 240.727 180.173C241.495 180.942 242.537 181.373 243.624 181.374H278.369C279.456 181.373 280.497 180.941 281.266 180.173C282.034 179.404 282.466 178.363 282.467 177.276V176.621C282.465 175.535 282.033 174.493 281.265 173.725C280.497 172.957 279.456 172.525 278.369 172.523Z" fill="#3F3D56"/>
<path d="M263.29 181.211H259.029V211.368H263.29V181.211Z" fill="#3F3D56"/>
<path d="M275.418 211.218C275.418 211.678 268.961 211.396 260.995 211.396C253.03 211.396 246.573 211.678 246.573 211.218C246.573 210.758 253.03 207.106 260.995 207.106C268.961 207.106 275.418 210.758 275.418 211.218Z" fill="#3F3D56"/>
<path d="M277.567 173.467L276.852 168.996C276.762 168.432 276.451 167.928 275.989 167.593C275.527 167.258 274.951 167.12 274.387 167.209L267.015 168.386L254.389 170.402L250.282 171.057H259.191C259.408 171.058 259.617 171.144 259.77 171.298C259.924 171.451 260.01 171.66 260.01 171.877V172.523C260.01 172.74 259.924 172.948 259.77 173.102C259.617 173.256 259.408 173.342 259.191 173.342H236.518C236.201 173.49 235.927 173.716 235.721 173.998C235.547 174.227 235.421 174.489 235.351 174.769C235.281 175.048 235.269 175.339 235.315 175.624L235.518 176.895L235.764 178.439L236.029 180.098C236.12 180.66 236.429 181.163 236.89 181.498C237.351 181.832 237.925 181.97 238.488 181.881L244.345 180.947L261.24 178.249L275.78 175.928C276.343 175.837 276.846 175.527 277.181 175.065C277.515 174.604 277.654 174.03 277.567 173.467Z" fill="#525FE1"/>
<path d="M243.896 173.998C243.68 173.712 243.395 173.486 243.067 173.343H236.799C236.47 173.485 236.183 173.711 235.967 173.998C235.675 174.372 235.517 174.832 235.518 175.306V200.287C235.518 200.856 235.745 201.402 236.147 201.804C236.55 202.207 237.096 202.433 237.665 202.434H242.198C242.767 202.433 243.313 202.207 243.715 201.804C244.118 201.402 244.344 200.856 244.345 200.287V175.306C244.345 174.832 244.187 174.372 243.896 173.998Z" fill="#525FE1"/>
<path d="M257.539 131.451L257.496 131.395L254.684 127.93C254.534 127.744 254.353 127.586 254.15 127.462C254.042 127.388 253.925 127.329 253.802 127.285C253.623 127.213 253.434 127.166 253.242 127.147C253.113 127.133 252.984 127.131 252.855 127.14C252.852 127.141 252.85 127.142 252.848 127.144C252.414 127.176 251.999 127.34 251.662 127.616L245.889 132.297L238.472 138.315L227.402 147.296L226.596 147.952H240.602L241.412 147.296L244.09 145.123L244.28 144.972L257.214 134.48L257.224 134.473C257.49 134.259 257.701 133.983 257.837 133.67C257.927 133.465 257.985 133.247 258.008 133.024C258.038 132.744 258.011 132.461 257.931 132.191C257.851 131.92 257.717 131.669 257.539 131.451Z" fill="#525FE1"/>
<path d="M257.496 131.396C257.315 130.513 256.913 129.69 256.329 129.003C255.746 128.312 254.995 127.781 254.149 127.463C254.018 127.414 253.89 127.368 253.759 127.332C253.463 127.243 253.16 127.18 252.854 127.141C252.852 127.142 252.849 127.143 252.847 127.145C251.468 126.985 250.081 127.369 248.98 128.213L238.995 135.844C238.783 136.034 238.611 136.264 238.49 136.522C238.369 136.779 238.301 137.058 238.29 137.342C238.275 137.676 238.337 138.009 238.471 138.316C238.503 138.385 238.54 138.453 238.579 138.519C238.655 138.652 238.748 138.775 238.854 138.886L240.454 140.682L244.174 144.855L244.279 144.973L244.518 145.245C244.709 145.454 244.939 145.623 245.195 145.743C245.45 145.863 245.727 145.931 246.01 145.943C246.292 145.956 246.574 145.912 246.84 145.816C247.105 145.719 247.349 145.571 247.557 145.38L256.168 136.129C256.615 135.649 256.97 135.09 257.214 134.481C257.607 133.502 257.705 132.43 257.496 131.396Z" fill="#2F2E41"/>
<path d="M261.303 119.527C270.377 119.527 277.732 112.171 277.732 103.097C277.732 94.0237 270.377 86.668 261.303 86.668C252.229 86.668 244.874 94.0237 244.874 103.097C244.874 112.171 252.229 119.527 261.303 119.527Z" fill="#525FE1"/>
<path d="M267.464 171.205L267.015 168.386L266.749 166.731C266.659 166.168 266.349 165.664 265.887 165.33C265.426 164.996 264.85 164.858 264.287 164.948L252.346 166.852L249.108 167.37L248.452 167.475V171.058H259.19C259.408 171.058 259.616 171.144 259.77 171.298C259.923 171.451 260.01 171.66 260.01 171.877V172.523C260.01 172.74 259.923 172.948 259.77 173.102C259.616 173.256 259.408 173.342 259.19 173.342H225.208C225.208 173.349 225.212 173.355 225.212 173.362L225.415 174.634L225.926 177.833C226.017 178.395 226.326 178.898 226.787 179.233C227.248 179.567 227.822 179.705 228.385 179.616L234.242 178.682L235.517 178.479L235.763 178.439L244.345 177.069L250.183 176.135L259.446 174.657L259.584 174.634L265.677 173.663C266.24 173.573 266.744 173.264 267.078 172.803C267.413 172.343 267.552 171.768 267.464 171.205Z" fill="#525FE1"/>
<path d="M283.663 159.149C283.663 172.542 282.303 180.553 261.325 178.259C261.295 178.256 261.269 178.252 261.239 178.249C257.498 177.879 253.797 177.172 250.183 176.135C248.305 175.586 246.479 174.871 244.729 173.998C244.316 173.788 243.919 173.568 243.529 173.342H259.191C259.408 173.342 259.616 173.256 259.77 173.102C259.924 172.948 260.01 172.74 260.01 172.523V171.877C260.01 171.66 259.924 171.451 259.77 171.297C259.616 171.144 259.408 171.057 259.191 171.057H248.452V150.354C248.451 149.717 248.198 149.107 247.748 148.656C247.297 148.206 246.687 147.952 246.05 147.951H237.314C237.39 147.735 237.465 147.516 237.547 147.296C238.366 145.028 239.338 142.818 240.454 140.681C241.984 137.713 243.804 134.905 245.889 132.296C247.341 130.479 248.97 128.811 250.753 127.317C254.041 124.603 257.621 122.925 261.253 122.925C274.646 122.925 283.663 145.755 283.663 159.149Z" fill="#2F2E41"/>
<path d="M261.648 109.186L261.665 108.572C260.523 108.54 259.516 108.469 258.759 107.916C258.545 107.75 258.368 107.54 258.242 107.301C258.116 107.061 258.043 106.796 258.028 106.526C258.015 106.361 258.04 106.194 258.101 106.04C258.162 105.886 258.259 105.748 258.382 105.637C258.884 105.213 259.692 105.35 260.282 105.621L260.79 105.853L259.815 98.7344L259.207 98.8177L260.036 104.873C259.697 104.748 259.331 104.709 258.973 104.76C258.615 104.812 258.276 104.952 257.986 105.168C257.791 105.339 257.638 105.552 257.538 105.791C257.439 106.03 257.397 106.289 257.415 106.547C257.432 106.911 257.53 107.266 257.699 107.588C257.869 107.91 258.107 108.191 258.397 108.412C259.369 109.122 260.633 109.158 261.648 109.186Z" fill="#2F2E41"/>
<path d="M256.199 99.3398H252.892V99.9538H256.199V99.3398Z" fill="#2F2E41"/>
<path d="M266.636 99.3398H263.33V99.9538H266.636V99.3398Z" fill="#2F2E41"/>
<path d="M274.415 98.5818C273.137 96.6584 270.889 95.843 268.671 95.6447C266.176 95.4215 263.765 95.9027 261.328 96.3702C258.647 96.8848 255.809 97.3662 253.107 96.7156C251.912 96.4391 250.795 95.8949 249.84 95.124C248.886 94.353 248.119 93.3755 247.598 92.265C246.609 90.0986 246.395 87.6575 246.994 85.3524C247.627 82.9007 249.199 80.7435 251.104 79.1142C254.993 75.7886 260.255 74.2941 265.316 74.4349C270.358 74.565 275.231 76.2785 279.245 79.3326C283.266 82.497 286.095 86.9307 287.271 91.9102C288.501 96.8488 288.1 102.053 286.129 106.745C285.021 109.314 283.42 111.63 282.184 114.135C281.033 116.467 280.147 119.178 280.863 121.779C281.491 124.061 283.336 126.089 285.651 126.709C286.705 126.985 287.82 126.912 288.828 126.5C289.837 126.089 290.684 125.361 291.244 124.426C292.401 122.6 292.429 120.209 290.691 118.735C290.253 118.358 289.742 118.073 289.19 117.899C288.639 117.724 288.057 117.664 287.481 117.722C286.906 117.779 286.348 117.953 285.841 118.233C285.335 118.513 284.891 118.893 284.536 119.35C283.831 120.265 283.515 121.422 283.657 122.57C283.743 123.149 282.856 123.399 282.769 122.814C282.562 121.601 282.792 120.354 283.418 119.294C284.045 118.235 285.027 117.433 286.19 117.03C287.353 116.627 288.621 116.65 289.769 117.095C290.916 117.54 291.868 118.378 292.456 119.46C293.504 121.431 292.938 123.808 291.608 125.492C290.921 126.39 289.991 127.07 288.927 127.453C287.864 127.835 286.713 127.903 285.613 127.648C283.191 127.089 281.209 125.164 280.277 122.902C279.24 120.383 279.715 117.573 280.727 115.129C281.82 112.487 283.443 110.118 284.727 107.572C285.889 105.272 286.629 102.781 286.91 100.219C287.474 95.0745 286.307 89.8885 283.592 85.4819C280.825 81.1436 276.602 77.9341 271.682 76.4299C266.797 74.8602 261.523 74.9997 256.728 76.8253C252.048 78.6691 247.53 82.6873 247.584 88.084C247.607 90.3893 248.463 92.7402 250.229 94.2778C252.339 96.1154 255.277 96.2725 257.93 95.9857C260.599 95.6971 263.192 94.9174 265.873 94.7186C268.205 94.5456 270.721 94.7254 272.803 95.884C273.773 96.4247 274.598 97.1906 275.21 98.117C275.539 98.612 274.741 99.0737 274.415 98.5818V98.5818Z" fill="#2F2E41"/>
<path d="M271.07 136.149L269.768 135.244L267.346 133.562C266.877 133.239 266.3 133.114 265.739 133.215C265.179 133.316 264.682 133.636 264.356 134.103L256.46 145.468L249.108 156.049L248.452 156.993V171.058H248.511C249.022 171.008 249.498 170.775 249.852 170.403C249.928 170.325 249.997 170.24 250.058 170.15L252.346 166.853L258.001 158.714L263.861 150.283L264.419 149.48L271.604 139.138C271.643 139.083 271.679 139.026 271.712 138.968C271.745 138.911 271.774 138.853 271.8 138.794C272.007 138.337 272.046 137.822 271.913 137.339C271.779 136.856 271.481 136.435 271.07 136.149Z" fill="#525FE1"/>
<path d="M271.093 131.651C270.861 131.499 270.618 131.365 270.365 131.251C269.245 130.738 267.983 130.626 266.79 130.934C265.597 131.242 264.547 131.951 263.816 132.943L256.356 143.058C256.206 143.299 256.105 143.567 256.06 143.847C256.015 144.127 256.026 144.414 256.092 144.689C256.159 144.965 256.279 145.225 256.447 145.454C256.615 145.682 256.827 145.875 257.07 146.021L263.862 150.283L263.947 150.335L264.288 150.548C264.776 150.843 265.36 150.933 265.914 150.797C266.467 150.662 266.944 150.313 267.241 149.827L272.509 139.371L272.597 139.197L272.601 139.194L272.925 138.541C273.517 137.368 273.657 136.018 273.32 134.748C272.982 133.478 272.189 132.376 271.093 131.651Z" fill="#2F2E41"/>
<path d="M225.415 173.343V198.022C225.416 198.591 225.642 199.137 226.045 199.539C226.447 199.942 226.993 200.168 227.562 200.169H232.095C232.665 200.168 233.21 199.942 233.613 199.539C234.015 199.137 234.242 198.591 234.242 198.022V173.343H225.415Z" fill="#525FE1"/>
<path d="M259.191 170.402H249.108V150.354C249.107 149.543 248.785 148.766 248.211 148.193C247.638 147.619 246.861 147.297 246.05 147.296H208.659C207.847 147.296 207.069 147.618 206.495 148.192C205.921 148.765 205.598 149.543 205.597 150.354V170.939C205.598 171.751 205.921 172.528 206.495 173.102C207.069 173.675 207.847 173.997 208.659 173.998H259.191C259.243 173.998 259.292 173.994 259.341 173.991C259.387 173.988 259.433 173.978 259.479 173.971C259.814 173.904 260.114 173.722 260.331 173.458C260.547 173.194 260.665 172.864 260.666 172.523V171.877C260.666 171.486 260.51 171.11 260.234 170.834C259.957 170.557 259.582 170.402 259.191 170.402ZM259.191 173.342H208.659C208.021 173.342 207.41 173.089 206.959 172.638C206.508 172.188 206.254 171.577 206.253 170.939V150.354C206.254 149.717 206.508 149.106 206.959 148.655C207.41 148.205 208.021 147.952 208.659 147.951H246.05C246.687 147.952 247.297 148.206 247.748 148.656C248.198 149.107 248.451 149.717 248.452 150.354V171.057H259.191C259.408 171.057 259.616 171.144 259.77 171.297C259.924 171.451 260.01 171.66 260.01 171.877V172.523C260.01 172.74 259.924 172.948 259.77 173.102C259.616 173.256 259.408 173.342 259.191 173.342Z" fill="#3F3D56"/>
<path d="M227.353 163.168C228.745 163.168 229.874 162.04 229.874 160.648C229.874 159.256 228.745 158.127 227.353 158.127C225.961 158.127 224.833 159.256 224.833 160.648C224.833 162.04 225.961 163.168 227.353 163.168Z" fill="#525FE1"/>
<path d="M39.9893 118.442C49.678 118.442 57.5323 110.588 57.5323 100.899C57.5323 91.2107 49.678 83.3564 39.9893 83.3564C30.3006 83.3564 22.4463 91.2107 22.4463 100.899C22.4463 110.588 30.3006 118.442 39.9893 118.442Z" fill="#525FE1"/>
<path d="M36.5693 166.895H31.7312C31.1663 166.895 30.6247 167.12 30.2252 167.519C29.8258 167.919 29.6011 168.46 29.6006 169.025V209.347C29.6011 209.911 29.8258 210.453 30.2252 210.852C30.6247 211.252 31.1663 211.477 31.7312 211.477H36.5693C37.1342 211.477 37.6758 211.252 38.0753 210.852C38.4748 210.453 38.6994 209.911 38.6999 209.347V169.025C38.6994 168.46 38.4748 167.919 38.0753 167.519C37.6758 167.12 37.1342 166.895 36.5693 166.895Z" fill="#2F2E41"/>
<path d="M46.7929 166.895H41.9548C41.3899 166.895 40.8483 167.12 40.4489 167.519C40.0494 167.919 39.8248 168.46 39.8242 169.025V209.347C39.8248 209.911 40.0494 210.453 40.4489 210.852C40.8483 211.252 41.3899 211.477 41.9548 211.477H46.7929C47.0727 211.477 47.3498 211.422 47.6083 211.315C47.8668 211.208 48.1017 211.051 48.2996 210.853C48.4974 210.655 48.6543 210.42 48.7614 210.162C48.8685 209.903 48.9236 209.626 48.9236 209.347V169.025C48.9236 168.745 48.8685 168.468 48.7614 168.21C48.6543 167.951 48.4974 167.716 48.2996 167.519C48.1017 167.321 47.8668 167.164 47.6083 167.057C47.3498 166.95 47.0727 166.895 46.7929 166.895Z" fill="#2F2E41"/>
<path d="M50.2972 127.642C48.6018 125.451 46.2637 123.844 43.6103 123.048C40.9568 122.251 38.1206 122.304 35.4986 123.198C32.8765 124.093 30.5997 125.785 28.9868 128.038C27.3738 130.29 26.5054 132.991 26.5031 135.761V171.471C26.5017 171.579 26.5105 171.688 26.5293 171.795C26.6071 172.341 26.8793 172.841 27.2959 173.203C27.7126 173.565 28.2457 173.765 28.7976 173.765H50.7825C51.3907 173.764 51.9736 173.522 52.4036 173.092C52.8336 172.662 53.0758 172.079 53.077 171.471V135.761C53.0811 132.821 52.1027 129.963 50.2972 127.642Z" fill="#2F2E41"/>
<path d="M54.8039 108.655L54.7856 108C56.0052 107.966 57.0805 107.889 57.8884 107.299C58.1175 107.122 58.3058 106.898 58.4405 106.642C58.5752 106.386 58.6531 106.104 58.669 105.815C58.6832 105.638 58.6565 105.461 58.591 105.296C58.5254 105.132 58.4228 104.984 58.2911 104.866C57.7548 104.413 56.8918 104.56 56.2628 104.848L55.7204 105.097L56.7605 97.4951L57.41 97.5841L56.5253 104.05C57.3799 103.799 58.1719 103.907 58.7143 104.365C58.9226 104.547 59.086 104.775 59.1918 105.03C59.2976 105.285 59.3429 105.562 59.3241 105.838C59.305 106.226 59.2012 106.605 59.02 106.949C58.8388 107.293 58.5845 107.593 58.2751 107.828C57.237 108.587 55.8879 108.625 54.8039 108.655Z" fill="#2F2E41"/>
<path d="M53.0083 98.1406H49.4775V98.7962H53.0083V98.1406Z" fill="#2F2E41"/>
<path d="M34.8456 128.146C34.6564 127.939 34.428 127.772 34.1736 127.654C33.9193 127.537 33.6441 127.471 33.364 127.461L29.5519 127.303L28.5323 127.261C27.9679 127.238 27.4174 127.439 27.0014 127.821C26.5854 128.204 26.3379 128.735 26.3132 129.299L25.7101 143.827L24.6448 169.588C24.6231 170.126 24.8052 170.651 25.1547 171.061C25.5041 171.47 25.9952 171.732 26.5296 171.794C26.5821 171.801 26.6312 171.804 26.6837 171.807L29.601 171.928L31.5186 172.007C31.6722 172.014 31.8261 172.004 31.9775 171.978C32.378 171.906 32.7497 171.722 33.0494 171.447C33.256 171.257 33.423 171.029 33.5406 170.775C33.6582 170.52 33.7241 170.245 33.7344 169.965L33.8623 166.894L34.8031 144.174L35.4061 129.676C35.4297 129.112 35.2281 128.561 34.8456 128.146Z" fill="#525FE1"/>
<path d="M32.0527 124.968C31.6453 124.882 31.23 124.839 30.8136 124.84C29.2059 124.842 27.6646 125.481 26.5278 126.618C25.391 127.755 24.7514 129.296 24.7495 130.904V142.049C24.7504 142.402 24.8386 142.749 25.0062 143.059C25.1738 143.37 25.4155 143.634 25.71 143.829C25.9501 143.987 26.2201 144.094 26.5032 144.143C26.6275 144.167 26.7537 144.179 26.8801 144.179H34.7471C34.7658 144.18 34.7845 144.179 34.8029 144.176C35.3578 144.162 35.8852 143.932 36.2728 143.534C36.6603 143.137 36.8774 142.604 36.8777 142.049V130.904C36.876 129.511 36.3956 128.161 35.5172 127.081C34.6388 126 33.4157 125.254 32.0527 124.968Z" fill="#2F2E41"/>
<path d="M74.0689 156.706C73.5547 156.44 73.151 156.001 72.929 155.467C72.7071 154.932 72.6812 154.337 72.856 153.785L74.7211 147.849L74.1769 147.396L59.8624 135.553L50.2974 127.641L49.1338 126.677C48.6987 126.317 48.1383 126.144 47.5759 126.197C47.0134 126.25 46.495 126.524 46.1346 126.959L43.0501 130.689C42.8712 130.904 42.7366 131.153 42.6539 131.42C42.5713 131.688 42.5422 131.969 42.5684 132.247C42.5946 132.526 42.6755 132.797 42.8065 133.044C42.9376 133.291 43.1161 133.51 43.3319 133.688L53.0772 141.752L54.1851 142.666L74.3999 159.39C74.7737 159.701 75.2426 159.874 75.7286 159.881C76.2146 159.889 76.6885 159.729 77.0713 159.43C77.1769 159.347 77.2735 159.254 77.3597 159.151C77.3737 159.138 77.3869 159.123 77.3991 159.108L77.7891 158.636L74.0689 156.706Z" fill="#525FE1"/>
<path d="M59.1742 133.28L50.5502 126.223C49.934 125.718 49.2244 125.34 48.4621 125.11C47.6997 124.879 46.8995 124.802 46.107 124.88C45.3145 124.959 44.5454 125.194 43.8435 125.57C43.1416 125.946 42.5206 126.457 42.0161 127.073C41.5116 127.689 41.1334 128.399 40.9031 129.161C40.6728 129.924 40.595 130.724 40.6739 131.516C40.8334 133.117 41.6222 134.588 42.8667 135.607L51.4908 142.665C51.8707 142.976 52.3465 143.146 52.8375 143.147C53.3285 143.147 53.8047 142.978 54.1853 142.668C54.2988 142.58 54.4011 142.479 54.4901 142.366L59.4725 136.279C59.6489 136.066 59.7814 135.82 59.8626 135.555C59.9852 135.15 59.9853 134.718 59.8628 134.313C59.7403 133.908 59.5007 133.549 59.1742 133.28Z" fill="#2F2E41"/>
<path d="M35.5913 103.871C34.6778 102.345 33.9629 100.663 34.3022 98.8551C34.6052 97.2404 35.7672 95.983 37.4381 95.8179C38.4443 95.7185 39.4457 95.9871 40.4285 96.1621C41.2341 96.3036 42.0527 96.3566 42.8698 96.3202C44.5139 96.2455 46.1256 95.8368 47.6068 95.1192C49.1101 94.4157 50.4454 93.3984 51.5229 92.1358C52.6003 90.8732 53.3949 89.3945 53.8532 87.7992C54.8503 84.1693 54.11 80.0474 51.7422 77.0927L52.564 76.8758L51.494 80.3911C51.4731 80.4632 51.4362 80.5296 51.386 80.5854C51.3357 80.6411 51.2736 80.6848 51.204 80.7131C51.1345 80.7414 51.0595 80.7535 50.9846 80.7486C50.9097 80.7438 50.8369 80.722 50.7717 80.6849C48.8324 79.4596 46.6644 78.641 44.3993 78.2789C42.1341 77.9167 39.819 78.0185 37.5943 78.5782C36.3373 78.894 35.1232 79.361 33.9785 79.9689C33.42 80.2659 32.9226 79.4173 33.4822 79.1198C35.6322 77.9982 37.9873 77.3244 40.4052 77.1392C42.8231 76.954 45.2534 77.2612 47.5491 78.0422C48.8566 78.4878 50.1053 79.0901 51.268 79.8358L50.5457 80.1297L51.6157 76.6144C51.6396 76.5322 51.6843 76.4576 51.7455 76.3978C51.8068 76.338 51.8824 76.2951 51.9652 76.2733C52.0479 76.2514 52.1349 76.2514 52.2177 76.2731C52.3005 76.2949 52.3762 76.3377 52.4375 76.3974C53.5388 77.7944 54.3459 79.3999 54.8102 81.1171C55.2744 82.8343 55.3862 84.6277 55.1389 86.3893C54.8998 88.1256 54.2965 89.7917 53.3685 91.2785C52.4404 92.7652 51.2086 94.039 49.7538 95.0163C48.3004 95.9974 46.6669 96.6805 44.9478 97.026C43.2287 97.3716 41.4582 97.3728 39.7386 97.0296C38.7762 96.8446 37.6849 96.5798 36.7406 96.9828C36.3982 97.148 36.0963 97.3866 35.8564 97.6816C35.6165 97.9766 35.4446 98.3208 35.3528 98.6898C34.8177 100.503 35.7281 102.225 36.6582 103.732L35.5913 103.871Z" fill="#2F2E41"/>
<path d="M99.5903 140.19L83.3745 130.805C82.9706 130.571 82.5195 130.432 82.0544 130.396C81.5893 130.36 81.122 130.429 80.6872 130.598C80.2524 130.767 79.8611 131.032 79.5421 131.372C79.2232 131.713 78.9848 132.12 78.8445 132.565L74.1767 147.398L72.2297 153.59C72.0091 154.288 72.0424 155.042 72.3237 155.719C72.6049 156.395 73.1161 156.951 73.767 157.287L77.3596 159.152L89.0814 165.233C89.5248 165.463 90.0173 165.584 90.5171 165.583C90.8861 165.582 91.2522 165.517 91.5987 165.39L91.6218 165.38C92.0313 165.224 92.4034 164.983 92.714 164.673C93.0245 164.364 93.2666 163.993 93.4246 163.584L100.937 143.998C101.205 143.307 101.217 142.543 100.969 141.844C100.722 141.146 100.233 140.559 99.5903 140.19ZM100.324 143.766L92.8116 163.351C92.6865 163.674 92.4949 163.967 92.2493 164.211C92.0036 164.455 91.7094 164.644 91.3857 164.767L91.3693 164.774C91.0479 164.892 90.7054 164.943 90.3634 164.922C90.0214 164.901 89.6875 164.809 89.3829 164.652L77.789 158.637L74.0687 156.707C73.5545 156.441 73.1508 156.002 72.9288 155.468C72.7069 154.934 72.681 154.338 72.8558 153.786L74.7209 147.85L79.4673 132.762C79.5788 132.411 79.7674 132.09 80.0193 131.822C80.2712 131.553 80.58 131.345 80.923 131.212C81.266 131.078 81.6345 131.023 82.0015 131.051C82.3684 131.079 82.7245 131.189 83.0435 131.372L99.2592 140.757C99.7673 141.048 100.154 141.512 100.35 142.064C100.545 142.616 100.536 143.22 100.324 143.766Z" fill="#3F3D56"/>
<path d="M94.1502 146.465C93.986 146.465 93.8244 146.424 93.6802 146.345L82.8632 140.445C82.6351 140.319 82.4661 140.109 82.393 139.859C82.32 139.609 82.349 139.341 82.4736 139.112C82.5982 138.884 82.8083 138.714 83.0578 138.64C83.3074 138.566 83.576 138.594 83.8049 138.718L94.622 144.618C94.8139 144.723 94.9654 144.889 95.0527 145.089C95.14 145.29 95.158 145.513 95.1039 145.725C95.0498 145.937 94.9266 146.125 94.7539 146.259C94.5812 146.393 94.3688 146.465 94.1502 146.465H94.1502Z" fill="#525FE1"/>
<path d="M92.1829 150.726C92.0187 150.726 91.8571 150.685 91.7129 150.606L80.8959 144.706C80.6678 144.58 80.4988 144.369 80.4257 144.12C80.3527 143.87 80.3817 143.601 80.5063 143.373C80.6309 143.144 80.841 142.975 81.0906 142.901C81.3401 142.827 81.6088 142.855 81.8376 142.979L92.6547 148.879C92.8466 148.984 92.9981 149.149 93.0854 149.35C93.1727 149.55 93.1907 149.774 93.1366 149.986C93.0825 150.198 92.9594 150.385 92.7867 150.519C92.614 150.653 92.4015 150.726 92.1829 150.726H92.1829Z" fill="#525FE1"/>
<path d="M90.5433 155.317C90.379 155.317 90.2174 155.275 90.0733 155.197L79.2563 149.296C79.0282 149.171 78.8591 148.96 78.7861 148.711C78.7131 148.461 78.742 148.192 78.8667 147.964C78.9913 147.735 79.2014 147.565 79.4509 147.492C79.7005 147.418 79.9691 147.446 80.198 147.57L91.015 153.47C91.2069 153.575 91.3585 153.74 91.4458 153.941C91.533 154.141 91.551 154.365 91.4969 154.577C91.4428 154.788 91.3197 154.976 91.147 155.11C90.9743 155.244 90.7619 155.317 90.5433 155.317H90.5433Z" fill="#525FE1"/>
<path d="M204.933 62.4579H159.46C158.806 62.4571 158.179 62.1971 157.717 61.7349C157.255 61.2727 156.995 60.6461 156.994 59.9924V2.46544C156.995 1.81179 157.255 1.18513 157.717 0.722931C158.179 0.260731 158.806 0.000743504 159.46 0H204.933C205.587 0.000747833 206.214 0.260737 206.676 0.722936C207.138 1.18513 207.398 1.81179 207.399 2.46544V59.9924C207.398 60.6461 207.138 61.2727 206.676 61.7349C206.214 62.1971 205.587 62.4571 204.933 62.4579ZM159.46 0.547877C158.951 0.548447 158.464 0.75066 158.104 1.11015C157.745 1.46964 157.543 1.95705 157.542 2.46544V59.9924C157.543 60.5008 157.745 60.9882 158.104 61.3477C158.464 61.7072 158.951 61.9094 159.46 61.91H204.933C205.442 61.9094 205.929 61.7072 206.289 61.3477C206.648 60.9882 206.85 60.5008 206.851 59.9924V2.46544C206.85 1.95705 206.648 1.46964 206.289 1.11015C205.929 0.75066 205.442 0.548448 204.933 0.547877H159.46Z" fill="#3F3D56"/>
<path d="M178.414 27.6516H168.405C168.078 27.6512 167.764 27.5212 167.533 27.2901C167.302 27.059 167.172 26.7457 167.172 26.4188V14.6067C167.172 14.2799 167.302 13.9666 167.533 13.7355C167.764 13.5044 168.078 13.3744 168.405 13.374H178.414C178.741 13.3744 179.054 13.5044 179.286 13.7355C179.517 13.9666 179.647 14.2799 179.647 14.6067V26.4188C179.647 26.7457 179.517 27.059 179.286 27.2901C179.054 27.5212 178.741 27.6512 178.414 27.6516Z" fill="#525FE1"/>
<path d="M197.863 33.1311H187.853C187.526 33.1307 187.213 33.0007 186.982 32.7696C186.751 32.5385 186.621 32.2252 186.621 31.8983V20.0862C186.621 19.7594 186.751 19.4461 186.982 19.215C187.213 18.9839 187.526 18.8539 187.853 18.8535H197.863C198.19 18.8539 198.503 18.9839 198.734 19.215C198.965 19.4461 199.095 19.7594 199.096 20.0862V31.8983C199.095 32.2252 198.965 32.5385 198.734 32.7696C198.503 33.0007 198.19 33.1307 197.863 33.1311Z" fill="#CCCCCC"/>
<path d="M182.249 49.8401H172.24C171.913 49.8397 171.599 49.7097 171.368 49.4786C171.137 49.2475 171.007 48.9342 171.007 48.6073V36.7952C171.007 36.4684 171.137 36.1551 171.368 35.924C171.599 35.6929 171.913 35.5629 172.24 35.5625H182.249C182.576 35.5629 182.889 35.6929 183.121 35.924C183.352 36.1551 183.482 36.4684 183.482 36.7952V48.6073C183.482 48.9342 183.352 49.2475 183.121 49.4786C182.889 49.7097 182.576 49.8397 182.249 49.8401Z" fill="#FF6584"/>
<path d="M145.617 46.908C145.428 46.4591 145.111 46.0754 144.706 45.8045C144.302 45.5336 143.826 45.3874 143.339 45.3838H97.8649C97.2112 45.3842 96.5845 45.644 96.1223 46.1062C95.6601 46.5684 95.4003 47.1951 95.3999 47.8488V105.376C95.4003 106.029 95.6601 106.656 96.1223 107.118C96.5845 107.581 97.2112 107.84 97.8649 107.841H143.339C143.993 107.84 144.619 107.58 145.081 107.118C145.543 106.656 145.803 106.029 145.804 105.376V47.8488C145.805 47.5258 145.742 47.206 145.617 46.908ZM145.257 105.376C145.256 105.884 145.054 106.371 144.694 106.731C144.335 107.09 143.847 107.293 143.339 107.293H97.8649C97.3563 107.293 96.8686 107.091 96.509 106.732C96.1494 106.372 95.9474 105.884 95.9473 105.376V47.8488C95.9479 47.3404 96.1502 46.853 96.5097 46.4936C96.8691 46.1341 97.3565 45.9318 97.8649 45.9312H143.339C143.722 45.9326 144.096 46.0482 144.413 46.263C144.73 46.4779 144.976 46.7823 145.119 47.1375C145.147 47.2082 145.171 47.2805 145.191 47.3538C145.235 47.5152 145.257 47.6816 145.257 47.8488V105.376Z" fill="#3F3D56"/>
<path d="M136.125 58.9669H122.428C122.138 58.9669 121.859 58.8515 121.653 58.646C121.448 58.4405 121.333 58.1618 121.333 57.8711C121.333 57.5805 121.448 57.3018 121.653 57.0963C121.859 56.8908 122.138 56.7754 122.428 56.7754H136.125C136.416 56.7754 136.694 56.8908 136.9 57.0963C137.105 57.3018 137.221 57.5805 137.221 57.8711C137.221 58.1618 137.105 58.4405 136.9 58.646C136.694 58.8515 136.416 58.9669 136.125 58.9669Z" fill="#3F3D56"/>
<path d="M136.125 64.7198H122.428C122.138 64.7198 121.859 64.6044 121.653 64.3989C121.448 64.1934 121.333 63.9147 121.333 63.6241C121.333 63.3335 121.448 63.0548 121.653 62.8493C121.859 62.6438 122.138 62.5283 122.428 62.5283H136.125C136.416 62.5283 136.694 62.6438 136.9 62.8493C137.105 63.0548 137.221 63.3335 137.221 63.6241C137.221 63.9147 137.105 64.1934 136.9 64.3989C136.694 64.6044 136.416 64.7198 136.125 64.7198Z" fill="#3F3D56"/>
<path d="M115.401 67.9953H105.391C105.065 67.995 104.751 67.865 104.52 67.6339C104.289 67.4028 104.159 67.0894 104.159 66.7626V54.9505C104.159 54.6237 104.289 54.3103 104.52 54.0792C104.751 53.8481 105.065 53.7181 105.391 53.7178H115.401C115.728 53.7181 116.041 53.8481 116.272 54.0792C116.503 54.3103 116.633 54.6237 116.634 54.9505V66.7626C116.633 67.0894 116.503 67.4028 116.272 67.6339C116.041 67.865 115.728 67.995 115.401 67.9953Z" fill="#525FE1"/>
<path d="M136.031 76.4981H105.076C104.932 76.4984 104.789 76.4702 104.656 76.4153C104.523 76.3603 104.402 76.2796 104.3 76.1779C104.198 76.0761 104.117 75.9552 104.062 75.8222C104.006 75.6891 103.978 75.5465 103.978 75.4024C103.978 75.2583 104.006 75.1157 104.062 74.9826C104.117 74.8496 104.198 74.7287 104.3 74.6269C104.402 74.5251 104.523 74.4445 104.656 74.3895C104.789 74.3346 104.932 74.3064 105.076 74.3066H136.031C136.321 74.3071 136.599 74.4228 136.804 74.6282C137.009 74.8337 137.125 75.1121 137.125 75.4024C137.125 75.6927 137.009 75.9711 136.804 76.1765C136.599 76.382 136.321 76.4976 136.031 76.4981Z" fill="#CCCCCC"/>
<path d="M136.031 82.252H105.076C104.932 82.2523 104.789 82.2241 104.656 82.1692C104.523 82.1142 104.402 82.0336 104.3 81.9318C104.198 81.83 104.117 81.7091 104.062 81.5761C104.006 81.443 103.978 81.3003 103.978 81.1563C103.978 81.0122 104.006 80.8696 104.062 80.7365C104.117 80.6035 104.198 80.4826 104.3 80.3808C104.402 80.279 104.523 80.1984 104.656 80.1434C104.789 80.0885 104.932 80.0603 105.076 80.0605H136.031C136.321 80.0605 136.6 80.176 136.805 80.3815C137.011 80.587 137.126 80.8657 137.126 81.1563C137.126 81.4469 137.011 81.7256 136.805 81.9311C136.6 82.1366 136.321 82.252 136.031 82.252Z" fill="#CCCCCC"/>
<path d="M136.031 88.005H105.076C104.932 88.0052 104.789 87.9771 104.656 87.9221C104.523 87.8672 104.402 87.7865 104.3 87.6847C104.198 87.5829 104.117 87.4621 104.062 87.329C104.006 87.1959 103.978 87.0533 103.978 86.9092C103.978 86.7652 104.006 86.6225 104.062 86.4895C104.117 86.3564 104.198 86.2355 104.3 86.1337C104.402 86.032 104.523 85.9513 104.656 85.8963C104.789 85.8414 104.932 85.8132 105.076 85.8135H136.031C136.321 85.8135 136.6 85.9289 136.805 86.1344C137.011 86.3399 137.126 86.6186 137.126 86.9092C137.126 87.1998 137.011 87.4785 136.805 87.684C136.6 87.8895 136.321 88.005 136.031 88.005Z" fill="#CCCCCC"/>
<path d="M136.031 93.7569H105.076C104.932 93.7572 104.789 93.729 104.656 93.6741C104.523 93.6191 104.402 93.5384 104.3 93.4367C104.198 93.3349 104.117 93.214 104.062 93.0809C104.006 92.9479 103.978 92.8052 103.978 92.6612C103.978 92.5171 104.006 92.3745 104.062 92.2414C104.117 92.1084 104.198 91.9875 104.3 91.8857C104.402 91.7839 104.523 91.7033 104.656 91.6483C104.789 91.5933 104.932 91.5652 105.076 91.5654H136.031C136.321 91.5654 136.6 91.6809 136.805 91.8864C137.011 92.0919 137.126 92.3706 137.126 92.6612C137.126 92.9518 137.011 93.2305 136.805 93.436C136.6 93.6415 136.321 93.7569 136.031 93.7569Z" fill="#CCCCCC"/>
<path d="M136.031 99.5079H105.076C104.932 99.5082 104.789 99.48 104.656 99.425C104.523 99.3701 104.402 99.2894 104.3 99.1876C104.198 99.0859 104.117 98.965 104.062 98.8319C104.006 98.6989 103.978 98.5562 103.978 98.4122C103.978 98.2681 104.006 98.1255 104.062 97.9924C104.117 97.8593 104.198 97.7384 104.3 97.6367C104.402 97.5349 104.523 97.4542 104.656 97.3993C104.789 97.3443 104.932 97.3162 105.076 97.3164H136.031C136.321 97.3169 136.599 97.4326 136.804 97.638C137.009 97.8435 137.125 98.1219 137.125 98.4122C137.125 98.7024 137.009 98.9809 136.804 99.1863C136.599 99.3917 136.321 99.5074 136.031 99.5079Z" fill="#CCCCCC"/>
<path d="M180.086 68.7402L154.162 93.4209L154.54 93.8177L180.463 69.137L180.086 68.7402Z" fill="#E6E6E6"/>
<path d="M153.92 94.0292L157.21 93.9906L157.204 93.4422L154.503 93.4746L154.668 90.7782L154.121 90.7451L153.92 94.0292Z" fill="#E6E6E6"/>
<path d="M180.704 68.5283L180.504 71.8128L179.957 71.78L180.122 69.0833L177.42 69.1157L177.415 68.5677L180.704 68.5283Z" fill="#E6E6E6"/>
<path d="M167.313 84.2923C168.977 84.2923 170.326 82.9432 170.326 81.2789C170.326 79.6147 168.977 78.2656 167.313 78.2656C165.648 78.2656 164.299 79.6147 164.299 81.2789C164.299 82.9432 165.648 84.2923 167.313 84.2923Z" fill="#E6E6E6"/>
<path d="M145.339 10.3925L119.416 35.0732L119.794 35.4701L145.717 10.7894L145.339 10.3925Z" fill="#E6E6E6"/>
<path d="M119.174 35.6816L122.465 35.6429L122.459 35.0945L119.757 35.127L119.922 32.4306L119.375 32.3975L119.174 35.6816Z" fill="#E6E6E6"/>
<path d="M145.959 10.1816L145.759 13.4661L145.211 13.4333L145.376 10.7366L142.675 10.769L142.669 10.221L145.959 10.1816Z" fill="#E6E6E6"/>
<path d="M132.567 25.9456C134.231 25.9456 135.58 24.5965 135.58 22.9323C135.58 21.2681 134.231 19.9189 132.567 19.9189C130.903 19.9189 129.554 21.2681 129.554 22.9323C129.554 24.5965 130.903 25.9456 132.567 25.9456Z" fill="#E6E6E6"/>
<path d="M249.099 170.75H248.443V173.7H249.099V170.75Z" fill="#3F3D56"/>
</svg>
