<svg width="32" height="23" viewBox="0 0 32 23" fill="none" xmlns="http://www.w3.org/2000/svg">
<path d="M2.1434 3.20487L3.20126 4.2632L5.65506 1.24697C5.88858 0.960211 6.31033 0.916773 6.59709 1.15029C6.88385 1.38381 6.92728 1.80556 6.69376 2.09232L3.77187 5.68389C3.52153 5.99167 3.05964 6.01502 2.77894 5.73479L1.19616 4.15201C0.934614 3.89047 0.934614 3.46639 1.19616 3.20484C1.4577 2.9433 1.88178 2.9433 2.14333 3.20484L2.1434 3.20487ZM2.1434 11.2394L3.20126 12.2977L5.65506 9.28199C5.88858 8.99476 6.31033 8.95179 6.59709 9.18484C6.88385 9.41836 6.92728 9.84011 6.69376 10.1269L3.77187 13.7184C3.52153 14.0262 3.05964 14.05 2.77894 13.7693L1.19616 12.1866C0.934614 11.925 0.934614 11.5009 1.19616 11.2394C1.4577 10.9778 1.88178 10.9778 2.14333 11.2394L2.1434 11.2394ZM2.1434 19.2744L3.20126 20.3323L5.65506 17.3165C5.88858 17.0298 6.31033 16.9863 6.59709 17.2194C6.88385 17.4529 6.92728 17.8747 6.69376 18.1614L3.77187 21.753C3.52153 22.0608 3.05964 22.0846 2.77894 21.8039L1.19616 20.2211C0.934614 19.9596 0.934614 19.5355 1.19616 19.2744C1.4577 19.0129 1.88178 19.0129 2.14333 19.2744L2.1434 19.2744ZM10.9523 12.7171C10.5824 12.7171 10.2831 12.4177 10.2831 12.0478C10.2831 11.6779 10.5824 11.3781 10.9523 11.3781H31.039C31.4089 11.3781 31.7087 11.6779 31.7087 12.0478C31.7087 12.4177 31.4089 12.7171 31.039 12.7171H10.9523ZM10.9523 20.7521C10.5824 20.7521 10.2831 20.4523 10.2831 20.0824C10.2831 19.7125 10.5824 19.4126 10.9523 19.4126H31.039C31.4089 19.4126 31.7087 19.7125 31.7087 20.0824C31.7087 20.4523 31.4089 20.7521 31.039 20.7521H10.9523ZM10.9523 4.68279C10.5824 4.68279 10.2831 4.38295 10.2831 4.01351C10.2831 3.64361 10.5824 3.34377 10.9523 3.34377H31.039C31.4089 3.34377 31.7087 3.64361 31.7087 4.01351C31.7087 4.38294 31.4089 4.68279 31.039 4.68279H10.9523Z" fill="#6BC6B0" stroke="#8E66FF" stroke-width="0.5"/>
</svg>
