<svg width="34" height="32" viewBox="0 0 34 32" fill="none" xmlns="http://www.w3.org/2000/svg">
<path d="M23.4942 11.3848C22.6813 12.1974 22.1176 14.9503 21.9121 16.1003L15.4158 17.1086C15.1338 17.1523 14.9329 17.4055 14.9547 17.6901C14.9763 17.9743 15.2134 18.1943 15.4986 18.1946C15.5271 18.1946 15.5553 18.1925 15.5832 18.1882L22.4681 17.1195H22.4679C22.7018 17.0831 22.8855 16.9005 22.9233 16.667C23.1779 15.0976 23.7629 12.6608 24.2664 12.1572C24.479 11.9438 24.4787 11.5986 24.2656 11.3855C24.0527 11.1724 23.7075 11.1721 23.4939 11.3847L23.4942 11.3848Z" fill="#FF723A" stroke="#FF723A" stroke-width="0.3"/>
<path d="M24.9607 9.59829L24.7471 9.84749L24.7468 9.84775C24.5505 10.0766 24.5769 10.4216 24.806 10.618C25.0349 10.8143 25.3799 10.7879 25.5762 10.559L25.7899 10.3098V10.3096C25.9857 10.0805 25.9588 9.73625 25.7302 9.54014C25.5016 9.34403 25.1573 9.37019 24.9607 9.59831L24.9607 9.59829Z" fill="#FF723A" stroke="#FF723A" stroke-width="0.3"/>
<path d="M33.4155 2.06772C33.2913 2.02251 20.8774 -2.36815 12.6048 6.99238C12.5527 7.05131 12.5138 7.12092 12.4912 7.19611C12.1838 8.21424 11.1956 11.0708 10.3261 12.0491V12.0493C10.2296 12.1576 10.18 12.2996 10.1884 12.4444C10.1968 12.5894 10.2623 12.7248 10.3708 12.8211C10.4793 12.9176 10.6215 12.9667 10.7663 12.958C10.9111 12.9494 11.0465 12.8833 11.1428 12.7749C12.2453 11.5347 13.2929 8.29659 13.5012 7.62845C19.6963 0.711034 28.3551 1.91327 31.673 2.70738C28.8574 4.40581 26.1319 8.16802 25.999 8.3529C25.8232 8.59804 25.8791 8.9392 26.124 9.11527C26.3689 9.29106 26.7101 9.23518 26.8861 8.99029C26.9219 8.9405 30.4994 3.99963 33.3899 3.10264C33.6137 3.0333 33.7682 2.8288 33.774 2.59433C33.7799 2.36011 33.6356 2.14825 33.4153 2.06772L33.4155 2.06772Z" fill="#FF723A" stroke="#FF723A" stroke-width="0.3"/>
<path d="M19.9251 18.4915H18.5361C18.2343 18.4915 17.99 18.7361 17.99 19.0376C17.99 19.3394 18.2343 19.584 18.5361 19.584H19.0033C18.1271 21.0703 15.9252 24.2978 12.5306 25.918C8.25252 27.9597 5.46689 25.2834 5.35178 25.1696C5.26287 25.0797 5.17853 24.9852 5.09953 24.8866C11.7399 14.8834 24.0446 6.23097 24.1922 6.12822C24.4396 5.95548 24.5003 5.61508 24.3278 5.36768C24.1553 5.12 23.8147 5.05928 23.5673 5.23203C22.8418 5.73754 5.7421 17.7617 1.03511 30.2783C0.928929 30.5608 1.07169 30.8758 1.35392 30.982C1.63614 31.0884 1.9514 30.9456 2.05756 30.6632C2.70866 28.9802 3.52253 27.3648 4.4876 25.8399C4.51859 25.8729 4.54831 25.9103 4.57956 25.9418C5.91524 27.1156 7.63247 27.7637 9.4107 27.7652C10.6575 27.7517 11.885 27.4573 13.0017 26.9032C17.8222 24.6028 20.3145 19.4896 20.4185 19.2737C20.4998 19.1045 20.4884 18.9054 20.3883 18.7466C20.2882 18.5876 20.1137 18.4913 19.926 18.4913L19.9251 18.4915Z" fill="#FF723A" stroke="#FF723A" stroke-width="0.3"/>
<path d="M9.73249 9.88957C9.98931 9.73436 10.0729 9.40107 9.91946 9.1432C9.76627 8.8851 9.43349 8.79899 9.17439 8.95039C6.97781 10.3412 5.13254 12.2213 3.78261 14.4433C2.23583 17.1477 1.96173 20.3967 3.03345 23.3221C3.08375 23.4582 3.18587 23.5687 3.31771 23.6292C3.44955 23.6896 3.60019 23.6952 3.7361 23.6447C3.872 23.5944 3.98225 23.4918 4.04271 23.3599C4.10291 23.2278 4.10825 23.0774 4.05769 22.9415C3.0977 20.322 3.34313 17.4123 4.72811 14.9901C5.99167 12.9352 7.702 11.1919 9.73249 9.88942L9.73249 9.88957Z" fill="#FF723A" stroke="#FF723A" stroke-width="0.3"/>
</svg>
