<svg width="41" height="38" viewBox="0 0 41 38" fill="none" xmlns="http://www.w3.org/2000/svg">
<path d="M10.3935 13.4128C8.88142 13.4128 7.65137 14.5298 7.65137 15.9026C7.65137 17.2753 8.88165 18.3923 10.3935 18.3923C11.9054 18.3923 13.136 17.2754 13.136 15.9026C13.1363 14.5299 11.906 13.4128 10.3935 13.4128ZM10.3935 17.0896C9.59993 17.0896 8.95473 16.5575 8.95473 15.9032C8.95473 15.249 9.60019 14.7168 10.3935 14.7168C11.1869 14.7168 11.833 15.249 11.833 15.9032C11.833 16.5575 11.1875 17.0896 10.3935 17.0896Z" fill="#F14D5D"/>
<path d="M29.8483 0.000574106C24.0285 0.000574106 19.294 4.73483 19.294 10.5549C19.294 12.4542 19.7971 14.2931 20.754 15.9134C19.5295 16.6046 17.6683 17.0934 17.647 17.0988C17.3694 17.1709 17.1719 17.4155 17.1597 17.7021C17.1479 17.9888 17.3243 18.2491 17.5946 18.3443C19.6203 19.0564 21.7395 19.4515 24.4474 19.6219C26.0783 20.5949 27.9414 21.1086 29.8483 21.1086C35.6681 21.1086 40.4026 16.3743 40.4026 10.5543C40.4026 4.7348 35.6684 0 29.8483 0L29.8483 0.000574106ZM29.8483 19.8058C28.1504 19.8058 26.4919 19.3413 25.0465 18.4616C24.9892 18.4183 24.9244 18.3837 24.8544 18.3613C24.7753 18.334 24.6932 18.3222 24.611 18.3264C22.8598 18.2201 21.3716 18.0176 20.0019 17.6931C20.7049 17.4164 21.4519 17.0649 21.9989 16.6595C22.0146 16.6495 22.0298 16.6386 22.0449 16.6273C22.3195 16.4177 22.3825 16.0295 22.1889 15.7437C21.1476 14.2094 20.597 12.4152 20.597 10.5545C20.597 5.45355 24.747 1.30352 29.848 1.30352C34.949 1.30382 39.099 5.45417 39.099 10.5553C39.099 15.6564 34.9487 19.8063 29.848 19.8063L29.8483 19.8058Z" fill="#F14D5D"/>
<path d="M35.9801 21.3777C35.8319 21.164 35.6234 21.028 35.3768 20.9846C34.7337 20.8725 33.9628 21.4192 33.0716 22.0534C32.7492 22.2828 32.4155 22.5201 32.0898 22.7234C31.5637 23.0519 30.9667 23.1962 30.5309 23.3016C30.4406 23.3234 30.3567 23.3437 30.2797 23.3637C29.8409 22.4307 29.2919 21.8646 28.7415 21.7916C28.4212 21.7485 28.1215 21.877 27.9219 22.1443C27.4852 22.7291 27.5719 23.9195 28.137 25.3868C28.0691 25.4449 28.0116 25.5171 27.9716 25.6034C27.5919 26.4159 25.9827 28.4089 24.5994 29.0998C24.38 29.2092 24.1997 29.2404 24.0655 29.1922C23.8751 29.1243 23.6761 28.8756 23.5042 28.4928C20.5614 21.9325 17.0948 20.3357 12.5341 20.1836C14.9036 19.1409 16.5639 16.7739 16.5639 14.0236C16.5639 10.3126 13.545 7.29443 9.8341 7.29443C6.12315 7.29443 3.10434 10.3132 3.10434 14.0236C3.10434 17.2727 5.41891 19.9909 8.48558 20.6173C6.42376 21.1867 4.53128 22.2834 3.04616 23.816C0.994958 25.933 -0.0850621 28.6773 0.00523693 31.5428C0.134634 35.672 1.63915 37.0774 2.87859 37.5289C3.25466 37.6659 3.658 37.7332 4.08281 37.7332C6.06039 37.7332 8.40677 36.2895 10.7795 33.6404C10.9295 33.4731 11.2923 32.988 11.5729 32.8146C12.1478 32.6216 12.3987 32.5955 13.1147 32.4285C14.5462 32.0946 15.4399 31.8625 15.7536 31.3334C15.8648 31.1452 15.893 30.9349 15.8348 30.7249C15.7563 30.4425 15.6045 30.2397 15.3839 30.1228C15.3121 30.0849 15.2393 30.0585 15.1642 30.0415C15.6139 29.6591 15.8772 29.2418 15.6218 28.6921C15.4905 28.4097 15.2778 28.3015 15.1227 28.2603C14.9627 28.2182 14.7951 28.2272 14.6187 28.2754C14.8508 27.9569 14.9893 27.6585 14.9684 27.3524C14.9523 27.117 14.8408 26.9076 14.6457 26.7464C14.472 26.6024 14.2569 26.54 14.0308 26.563C13.6784 26.5991 13.3293 26.8364 12.9608 27.1994C13.1299 26.5754 13.1184 26.0354 12.6684 25.7757C12.4608 25.6563 12.2338 25.6318 12.0123 25.7075C11.4169 25.9081 11.0347 26.7327 10.4765 28.0663C10.4105 28.2245 10.3435 28.3839 10.2774 28.5375C10.0068 27.8224 9.58411 27.0654 9.15259 26.8384C8.91319 26.7124 8.65531 26.7206 8.445 26.8615C7.74257 27.3297 8.06348 28.3391 8.34652 29.2297C8.47167 29.6227 8.7041 30.3545 8.60622 30.5118C6.96315 32.3154 5.54164 33.3784 4.76014 33.3415C4.51135 33.3276 4.31801 33.5179 4.30801 33.7576C4.29801 33.9973 4.48438 34.1997 4.72408 34.2097C5.81108 34.2655 7.32623 33.207 9.24834 31.097C9.69531 30.6063 9.44198 29.8103 9.1741 28.9669C9.08471 28.6857 8.87652 28.0303 8.88076 27.7303C9.20441 28.1264 9.6971 29.2891 9.70346 29.7494C9.70619 29.9339 9.82498 30.097 10.0007 30.1554C10.1768 30.2142 10.3692 30.1554 10.4816 30.0091C10.751 29.6612 11.0065 29.05 11.2774 28.4021C11.5086 27.85 11.9177 26.8723 12.1962 26.5975C12.1802 27.0345 11.6859 28.1023 11.5111 28.4793C11.2462 29.0515 11.1747 29.2054 11.2587 29.4212C11.3011 29.5312 11.3929 29.6254 11.5014 29.6709C11.8929 29.8351 12.1393 29.5258 12.6799 28.8491C12.9905 28.4603 13.816 27.4282 14.0999 27.4115C14.1078 27.6 13.5962 28.1557 13.2583 28.5233C12.8974 28.9151 12.4889 29.3597 12.1705 29.8358C12.0575 30.0051 12.0772 30.2303 12.2178 30.3776C12.3584 30.5245 12.5826 30.5542 12.7569 30.4488C13.0593 30.2655 13.3663 30.047 13.6636 29.8355C14.0145 29.5858 14.5772 29.1851 14.8348 29.1133C14.7897 29.2848 14.323 29.5985 13.906 29.8791C13.6257 30.0676 13.3087 30.2809 12.9793 30.5324C12.8248 30.6506 12.7672 30.8579 12.8393 31.0385C12.9115 31.2197 13.0951 31.3273 13.289 31.31C13.6293 31.274 13.9675 31.1597 14.2667 31.0585C14.4942 30.9815 14.873 30.8512 14.9658 30.8824C14.9658 30.8824 14.9736 30.8915 14.9836 30.9176C14.7621 31.1512 13.6133 31.4194 12.9166 31.5821C11.6048 31.8885 10.3657 32.1776 9.84055 32.8022C9.67297 33.0013 9.45995 33.2337 9.23418 33.4704C6.98175 35.7486 4.76539 36.8298 3.32472 36.3037C2.08955 35.8537 1.39229 34.1934 1.30773 31.5013C1.22864 28.9913 2.17868 26.5839 3.98257 24.7224C5.9835 22.6575 8.81597 21.4729 11.7534 21.4729C16.4062 21.4729 19.4674 22.6769 22.3154 29.0254C22.6433 29.756 23.0848 30.2248 23.6279 30.4191C24.11 30.5912 24.633 30.54 25.1821 30.2654C26.8133 29.4509 28.6233 27.2875 29.1528 26.1554C29.2298 25.9912 29.2319 25.8115 29.1731 25.6536C29.167 25.6297 29.1673 25.6054 29.157 25.5824C28.3116 23.6866 28.4798 22.7551 28.6207 22.6518H28.6228C28.7031 22.6518 29.1701 22.8872 29.6397 24.0715C29.6861 24.1885 29.7922 24.2727 29.9113 24.3142C30.0294 24.3554 30.1719 24.337 30.2813 24.2748C30.34 24.2415 30.5594 24.1885 30.7352 24.1457C31.2288 24.0266 31.9046 23.8633 32.5503 23.4603C32.8982 23.243 33.2428 22.9982 33.5755 22.7612C34.1513 22.3515 34.9379 21.7872 35.2273 21.8406C35.2376 21.8424 35.2464 21.8439 35.2661 21.8724C35.5119 22.2279 35.5319 22.6221 35.3273 23.0779C34.6528 24.58 31.8316 26.1706 30.4842 26.3351C30.4342 26.3412 30.3894 26.36 30.347 26.3809C30.1327 26.4464 29.9576 26.6185 29.903 26.8521C29.4803 28.6485 27.0858 32.547 24.2051 33.2852C22.5582 33.707 20.9266 33.0364 19.356 31.2916C19.1154 31.024 18.7035 31.0022 18.436 31.2434C18.1684 31.484 18.1466 31.8958 18.3878 32.1634C20.173 34.1464 21.8884 34.7086 23.2594 34.7086C23.726 34.7086 24.1524 34.6437 24.5284 34.5471C28.2442 33.5952 30.7516 28.9337 31.1712 27.1506C31.1779 27.1237 31.1791 27.0964 31.1815 27.0694C32.7682 26.6143 35.3625 25.1215 36.1201 23.4336C36.4498 22.6976 36.4016 21.987 35.9798 21.3772L35.9801 21.3777ZM9.8345 19.4501C6.84269 19.4501 4.4081 17.0155 4.4081 14.0237C4.4081 11.0318 6.84269 8.59757 9.8345 8.59757C12.8269 8.59757 15.2609 11.0315 15.2609 14.0237C15.2612 17.0155 12.8266 19.4501 9.8345 19.4501Z" fill="#F14D5D"/>
</svg>
