<svg width="19" height="36" viewBox="0 0 19 36" fill="none" xmlns="http://www.w3.org/2000/svg">
<path d="M9.07965 26.1198C12.4798 26.1198 15.2395 23.3597 15.2395 19.9599V6.15987C15.2395 2.76 12.4794 0 9.07965 0C5.7995 0 3.07964 2.59986 2.91978 5.88001C2.91978 5.96009 2.87988 5.99999 2.87988 6.08007V19.9201V20.08C2.99958 23.4399 5.71946 26.1199 9.07968 26.1199L9.07965 26.1198ZM4.43957 6.07972C4.47947 3.55965 6.55957 1.51972 9.07965 1.51972C11.6397 1.51972 13.7197 3.59979 13.7197 6.15979V19.9998C13.7197 22.5598 11.6397 24.6399 9.07965 24.6399C6.51964 24.6399 4.43957 22.5598 4.43957 19.92C4.43957 19.8399 4.43957 19.8 4.39967 19.7601V16.1603H11.0398C11.4399 16.1603 11.7998 15.8403 11.7998 15.4002C11.7998 14.9602 11.4798 14.6401 11.0398 14.6401L4.4396 14.6396V12.7994H11.0797C11.4798 12.7994 11.8398 12.4794 11.8398 12.0394C11.8398 11.5993 11.5197 11.2793 11.0797 11.2793L4.4396 11.2796V9.43943H11.0797C11.4798 9.43943 11.8398 9.11939 11.8398 8.67936C11.8398 8.23934 11.5197 7.91928 11.0797 7.91928H4.4396V6.23928V6.0794L4.43957 6.07972Z" fill="#8E66FF"/>
<path d="M18.2403 19.9198V15.8798C18.2403 15.4797 17.9203 15.1198 17.4802 15.1198C17.0402 15.1198 16.7202 15.4398 16.7202 15.8798V19.9198C16.7202 24.1198 13.32 27.5198 9.12016 27.5198C4.92008 27.5198 1.52015 24.1196 1.52015 19.9198V15.8798C1.52015 15.4797 1.20011 15.1198 0.760073 15.1198C0.320058 15.1198 0 15.4398 0 15.8798V19.9198C0 24.6798 3.68 28.5598 8.36001 28.9598V34.4799H3.32008C2.91996 34.4799 2.56 34.7999 2.56 35.2399C2.56 35.68 2.88004 36 3.32008 36H14.8801C15.2802 36 15.6402 35.68 15.6402 35.2399C15.6402 34.7999 15.3201 34.4799 14.8801 34.4799H9.88008V28.9601C14.5202 28.5599 18.2401 24.6799 18.2401 19.92L18.2403 19.9198Z" fill="#8E66FF"/>
</svg>
