<svg width="42" height="42" viewBox="0 0 42 42" fill="none" xmlns="http://www.w3.org/2000/svg">
<path fill-rule="evenodd" clip-rule="evenodd" d="M20.6337 36.6924C11.4199 36.6924 3.92383 29.1963 3.92383 19.9818C3.92383 10.7672 11.4199 3.27112 20.6337 3.27112C29.8475 3.27112 37.3444 10.7672 37.3444 19.9818C37.3444 29.1955 29.8483 36.6924 20.6337 36.6924ZM20.6337 4.28949C11.9813 4.28949 4.94145 11.3294 4.94145 19.9818C4.94145 28.6342 11.9813 35.6733 20.6337 35.6733C29.2861 35.6733 36.326 28.634 36.326 19.9818C36.3254 11.3294 29.2864 4.28949 20.6337 4.28949Z" fill="#F14D5D" stroke="#F14D5D" stroke-width="0.2"/>
<path fill-rule="evenodd" clip-rule="evenodd" d="M28.6959 28.5538C28.5657 28.5538 28.4355 28.5043 28.3359 28.4047C28.1367 28.2055 28.1367 27.884 28.3359 27.6848C32.5827 23.438 32.5827 16.5275 28.3359 12.281C28.1367 12.0818 28.1367 11.7598 28.3359 11.5609C28.5351 11.3625 28.8572 11.3625 29.0558 11.5609C33.6995 16.2046 33.6995 23.7604 29.0558 28.4042C28.9568 28.5038 28.8266 28.5542 28.6959 28.5542V28.5538Z" fill="#F14D5D" stroke="#F14D5D" stroke-width="0.2"/>
<path fill-rule="evenodd" clip-rule="evenodd" d="M12.5719 28.5536C12.4418 28.5536 12.3116 28.5041 12.2123 28.4045C7.56856 23.7608 7.56856 16.205 12.2123 11.5612C12.4115 11.3626 12.7336 11.3626 12.9325 11.5612C13.1317 11.7604 13.1317 12.0825 12.9325 12.2814C8.68565 16.5282 8.68565 23.438 12.9325 27.6851C13.1317 27.8843 13.1317 28.2055 12.9325 28.4047C12.8329 28.5029 12.7021 28.5532 12.5719 28.5532L12.5719 28.5536Z" fill="#F14D5D" stroke="#F14D5D" stroke-width="0.2"/>
<path fill-rule="evenodd" clip-rule="evenodd" d="M20.9996 31.8913H20.2721C18.8688 31.8913 17.7266 30.7495 17.7266 29.3458V17.2178C17.7266 15.8144 18.8684 14.6722 20.2721 14.6722H20.9996C22.4032 14.6722 23.5451 15.8141 23.5451 17.2178V29.3458C23.5448 30.7491 22.403 31.8913 20.9996 31.8913ZM20.2721 15.6906C19.4299 15.6906 18.7441 16.3758 18.7441 17.2177V29.3457C18.7441 30.1879 19.4293 30.8737 20.2721 30.8737H20.9996C21.8418 30.8737 22.5267 30.1885 22.5267 29.3457V17.2177C22.5267 16.3755 21.8414 15.6906 20.9996 15.6906H20.2721Z" fill="#F14D5D" stroke="#F14D5D" stroke-width="0.2"/>
<path fill-rule="evenodd" clip-rule="evenodd" d="M20.9996 13.2899H20.2721C18.8688 13.2899 17.7266 12.1481 17.7266 10.7444V10.0172C17.7266 8.61388 18.8684 7.47168 20.2721 7.47168H20.9996C22.4032 7.47168 23.5451 8.61351 23.5451 10.0172V10.7444C23.5448 12.1477 22.403 13.2899 20.9996 13.2899ZM20.2721 8.49012C19.4299 8.49012 18.7441 9.17535 18.7441 10.0172V10.7444C18.7441 11.5866 19.4293 12.2715 20.2721 12.2715L20.9996 12.2718C21.8418 12.2718 22.5267 11.5866 22.5267 10.7447V10.0175C22.5267 9.17531 21.8414 8.49041 20.9996 8.49041L20.2721 8.49012Z" fill="#F14D5D" stroke="#F14D5D" stroke-width="0.2"/>
<path fill-rule="evenodd" clip-rule="evenodd" d="M37.9449 6.23518C36.2608 6.23518 34.8906 4.86501 34.8906 3.1806C34.8906 1.49559 36.2608 0.125488 37.9449 0.125488C39.6299 0.125488 41 1.49566 41 3.1806C40.9997 4.86471 39.6295 6.23518 37.9449 6.23518ZM37.9449 1.14416C36.822 1.14416 35.9085 2.05771 35.9085 3.1806C35.9085 4.30349 36.822 5.21704 37.9449 5.21704C39.0678 5.21704 39.9814 4.30349 39.9814 3.1806C39.9814 2.05771 39.0675 1.14416 37.9449 1.14416Z" fill="#F14D5D" stroke="#F14D5D" stroke-width="0.2"/>
<path fill-rule="evenodd" clip-rule="evenodd" d="M4.34211 41.8745C2.09595 41.8745 0.268555 40.0474 0.268555 37.8012C0.268555 35.5551 2.09566 33.7277 4.34211 33.7277C6.58826 33.7277 8.41536 35.5548 8.41536 37.8012C8.41536 40.0474 6.58766 41.8745 4.34211 41.8745ZM4.34211 34.747C2.65799 34.747 1.287 36.1169 1.287 37.8016C1.287 39.4863 2.65717 40.8559 4.34211 40.8559C6.02711 40.8559 7.39721 39.486 7.39721 37.8016C7.39721 36.1169 6.02614 34.747 4.34211 34.747Z" fill="#F14D5D" stroke="#F14D5D" stroke-width="0.2"/>
</svg>
