<svg width="76" height="55" viewBox="0 0 76 55" fill="none" xmlns="http://www.w3.org/2000/svg">
<path d="M0.900074 39.7825H0.9V39.7864C0.9 40.1865 1.05105 40.4939 1.28325 40.7003C1.51361 40.905 1.81793 41.0052 2.11898 41.0052C2.42003 41.0052 2.72435 40.905 2.95471 40.7003C3.16718 40.5114 3.3117 40.238 3.33473 39.8864H3.48694H3.5823L3.58683 39.7911C3.83257 34.622 8.01647 30.6869 12.9347 30.6869H18.156C23.3239 30.6869 27.5053 34.6226 27.7528 39.7888C27.7534 40.1877 27.9043 40.4943 28.136 40.7003C28.3664 40.905 28.6707 41.0052 28.9717 41.0052C29.2728 41.0052 29.5771 40.905 29.8075 40.7003C30.0397 40.4939 30.1907 40.1865 30.1907 39.7864H30.1908L30.1906 39.7825C29.9396 33.2641 24.6735 28.2497 18.156 28.2497H12.9347C6.66689 28.2497 1.15113 33.2626 0.900074 39.7825ZM23.5251 27.1023L23.5251 27.1023V27.1061C23.5251 27.5062 23.6761 27.8136 23.9083 28.02C24.1387 28.2247 24.443 28.325 24.744 28.325C25.0451 28.325 25.3494 28.2247 25.5798 28.02C25.812 27.8136 25.963 27.5062 25.963 27.1061C25.963 21.9433 30.1411 18.0066 35.3108 18.0066H40.5321C45.7012 18.0066 49.8799 21.9434 49.8799 27.1061V27.1144L49.8812 27.1226C50.015 27.9241 50.6851 28.325 51.2856 28.325C51.5862 28.325 51.8788 28.2248 52.0804 28.0144C52.283 27.803 52.3816 27.4928 52.3178 27.098C52.3134 20.5797 47.0461 15.5694 40.5321 15.5694H35.3108C29.0403 15.5694 23.7761 20.5851 23.5251 27.1023ZM23.2761 53.213C23.2761 53.6131 23.4272 53.9205 23.6594 54.1269C23.8898 54.3316 24.1941 54.4318 24.4951 54.4318C24.7962 54.4318 25.1005 54.3316 25.3309 54.1269C25.5631 53.9205 25.7141 53.6131 25.7141 53.213C25.7141 48.2974 29.894 44.1135 35.0618 44.1135H40.2832C45.4505 44.1135 49.6309 48.2974 49.6309 53.213C49.6309 53.6131 49.782 53.9205 50.0142 54.1269C50.2446 54.3316 50.5489 54.4318 50.8499 54.4318C51.151 54.4318 51.4553 54.3316 51.6857 54.1269C51.9179 53.9205 52.0689 53.6131 52.0689 53.213C52.0689 46.9397 46.5516 41.6763 40.2832 41.6763H35.0618C28.5437 41.6763 23.2761 46.9404 23.2761 53.213ZM45.9012 39.7867C45.9012 40.1868 46.0522 40.4942 46.2845 40.7006C46.5148 40.9053 46.8191 41.0055 47.1202 41.0055C47.4212 41.0055 47.7256 40.9053 47.9559 40.7006C48.1881 40.4942 48.3392 40.1868 48.3392 39.7867C48.3392 34.6255 52.5161 30.6872 57.9359 30.6872H63.1572C68.3263 30.6872 72.505 34.624 72.505 39.7867C72.505 40.1868 72.656 40.4942 72.8882 40.7006C73.1186 40.9053 73.4229 41.0055 73.724 41.0055C74.025 41.0055 74.3293 40.9053 74.5597 40.7006C74.7919 40.4942 74.9429 40.1868 74.9429 39.7867C74.9429 33.2645 69.674 28.25 63.1572 28.25H57.9359C51.1716 28.25 45.9012 33.263 45.9012 39.7867ZM22.73 20.8903C22.73 16.8593 19.4557 13.5798 15.6684 13.5798C11.6307 13.5798 8.60689 16.8618 8.60689 20.8903C8.60689 24.6724 11.6329 27.9519 15.6684 27.9519C19.4528 27.9519 22.73 24.6753 22.73 20.8903ZM11.0443 20.8903C11.0443 18.2041 12.9951 16.0178 15.6684 16.0178C18.0961 16.0178 20.2926 18.2071 20.2926 20.8903C20.2926 23.3213 18.0994 25.5145 15.6684 25.5145C12.9919 25.5145 11.0443 23.3248 11.0443 20.8903ZM45.1066 8.21051C45.1066 3.92833 41.8301 0.9 38.0451 0.9C34.014 0.9 30.7346 3.92607 30.7346 8.21051C30.7346 11.9971 34.0142 15.272 38.0451 15.272C41.8295 15.272 45.1066 11.9955 45.1066 8.21051ZM33.1726 8.21051C33.1726 5.28546 35.3618 3.33796 38.0451 3.33796C40.4761 3.33796 42.6693 5.28219 42.6693 8.21051C42.6693 10.6415 40.4761 12.8347 38.0451 12.8347C35.3624 12.8347 33.1726 10.6382 33.1726 8.21051ZM44.8584 34.3163C44.8584 30.5297 41.5788 27.2548 37.5478 27.2548C33.7635 27.2548 30.4863 30.5314 30.4863 34.3163C30.4863 38.3519 33.7652 41.3779 37.5478 41.3779C41.5765 41.3779 44.8584 38.3541 44.8584 34.3163ZM32.9237 34.3169C32.9237 31.886 35.1169 29.6928 37.5478 29.6928C40.2305 29.6928 42.4204 31.8892 42.4204 34.3169C42.4204 36.9903 40.2346 38.9411 37.5478 38.9411C35.1134 38.9411 32.9237 36.9935 32.9237 34.3169ZM67.7318 20.8905C67.7318 16.8571 64.4545 13.58 60.4213 13.58C56.6385 13.58 53.1108 16.8551 53.1108 20.8905C53.1108 24.6793 56.6409 27.952 60.4213 27.952C64.4523 27.952 67.7318 24.6777 67.7318 20.8905ZM55.7971 20.8905C55.7971 18.2078 57.9936 16.0179 60.4213 16.0179C63.1007 16.0179 65.2938 18.2105 65.2938 20.8905C65.2938 23.3182 63.1046 25.5146 60.4213 25.5146C57.9903 25.5146 55.7971 23.3214 55.7971 20.8905Z" fill="#FF9900" stroke="#FF9900" stroke-width="0.2"/>
</svg>
