<svg width="22" height="22" viewBox="0 0 22 22" fill="none" xmlns="http://www.w3.org/2000/svg">
<path d="M10.997 1C11.0885 1 11.1762 1.03512 11.2409 1.09763C11.3055 1.16014 11.3419 1.24493 11.3419 1.33333V3C11.3419 3.08841 11.3055 3.17319 11.2409 3.2357C11.1762 3.29821 11.0885 3.33333 10.997 3.33333C10.9056 3.33333 10.8179 3.29821 10.7532 3.2357C10.6885 3.17319 10.6522 3.08841 10.6522 3V1.33333C10.6522 1.24493 10.6885 1.16014 10.7532 1.09763C10.8179 1.03512 10.9056 1 10.997 1ZM5.14622 5.48273C5.17806 5.51446 5.2161 5.53975 5.25814 5.55713C5.30018 5.57451 5.34538 5.58364 5.3911 5.58398C5.43683 5.58431 5.48216 5.57586 5.52447 5.5591C5.56678 5.54234 5.60523 5.51762 5.63756 5.48636C5.66989 5.45511 5.69547 5.41795 5.71281 5.37705C5.73015 5.33615 5.7389 5.29233 5.73855 5.24813C5.73821 5.20393 5.72877 5.16024 5.71079 5.1196C5.69282 5.07896 5.66666 5.04218 5.63384 5.0114L4.41433 3.83333C4.38246 3.80174 4.34442 3.77657 4.30242 3.7593C4.26041 3.74202 4.21527 3.73298 4.16962 3.7327C4.12397 3.73242 4.07872 3.74091 4.03649 3.75767C3.99425 3.77443 3.95589 3.79912 3.92361 3.83033C3.89133 3.86153 3.86578 3.89862 3.84844 3.93945C3.83111 3.98027 3.82233 4.02401 3.82262 4.06814C3.82291 4.11227 3.83226 4.1559 3.85013 4.19651C3.868 4.23712 3.89403 4.27389 3.92672 4.3047L5.14622 5.48273ZM3.06886 10.3356L1.34474 10.3363C1.25329 10.3363 1.16559 10.3714 1.10094 10.434C1.03628 10.4965 0.999977 10.5813 1 10.6697C1.00002 10.7581 1.03637 10.8429 1.10106 10.9054C1.16574 10.9679 1.25346 11.003 1.34491 11.0029H1.34474L3.06886 11.0023C3.11414 11.0023 3.15898 10.9936 3.20081 10.9769C3.24265 10.9601 3.28065 10.9355 3.31266 10.9046C3.34468 10.8736 3.37007 10.8369 3.38738 10.7964C3.4047 10.756 3.41361 10.7126 3.4136 10.6688C3.41359 10.6251 3.40466 10.5817 3.38732 10.5413C3.36998 10.5009 3.34457 10.4641 3.31254 10.4332C3.28051 10.4022 3.24249 10.3777 3.20065 10.3609C3.15881 10.3442 3.11397 10.3356 3.06869 10.3356H3.06886ZM16.8534 15.8506C16.8216 15.8189 16.7836 15.7936 16.7415 15.7762C16.6995 15.7588 16.6543 15.7497 16.6086 15.7494C16.5628 15.749 16.5175 15.7575 16.4752 15.7742C16.4329 15.791 16.3944 15.8157 16.3621 15.847C16.3298 15.8782 16.3042 15.9154 16.2868 15.9563C16.2695 15.9972 16.2608 16.041 16.2611 16.0852C16.2614 16.1294 16.2709 16.1731 16.2889 16.2137C16.3068 16.2544 16.333 16.2912 16.3658 16.3219L17.5853 17.5C17.6172 17.5316 17.6552 17.5568 17.6972 17.574C17.7392 17.5913 17.7844 17.6004 17.83 17.6006C17.8757 17.6009 17.9209 17.5924 17.9632 17.5757C18.0054 17.5589 18.0438 17.5342 18.076 17.503C18.1083 17.4718 18.1339 17.4347 18.1512 17.3939C18.1685 17.3531 18.1773 17.3093 18.177 17.2652C18.1767 17.2211 18.1674 17.1774 18.1495 17.1368C18.1317 17.0962 18.1056 17.0594 18.0729 17.0286L16.8534 15.8506ZM5.14622 15.8506L3.92672 17.0286C3.89403 17.0594 3.868 17.0962 3.85013 17.1368C3.83226 17.1774 3.82291 17.2211 3.82262 17.2652C3.82233 17.3093 3.83111 17.3531 3.84844 17.3939C3.86578 17.4347 3.89133 17.4718 3.92361 17.503C3.95589 17.5342 3.99425 17.5589 4.03649 17.5757C4.07872 17.5924 4.12397 17.6009 4.16962 17.6006C4.21527 17.6004 4.26041 17.5913 4.30242 17.574C4.34442 17.5568 4.38246 17.5316 4.41433 17.5L5.63384 16.3219C5.66666 16.2912 5.69282 16.2544 5.71079 16.2137C5.72877 16.1731 5.73821 16.1294 5.73855 16.0852C5.7389 16.041 5.73015 15.9972 5.71281 15.9563C5.69547 15.9154 5.66989 15.8782 5.63756 15.847C5.60523 15.8157 5.56678 15.791 5.52447 15.7742C5.48216 15.7575 5.43683 15.749 5.3911 15.7494C5.34538 15.7497 5.30018 15.7588 5.25814 15.7762C5.2161 15.7936 5.17806 15.8189 5.14622 15.8506ZM20.6549 10.3304L18.9308 10.3311C18.8393 10.3311 18.7516 10.3662 18.687 10.4288C18.6223 10.4913 18.586 10.5761 18.5861 10.6645C18.5861 10.7529 18.6224 10.8377 18.6871 10.9002C18.7518 10.9627 18.8395 10.9978 18.931 10.9977H18.9311L20.6553 10.9971C20.7467 10.997 20.8344 10.9619 20.8991 10.8994C20.9637 10.8368 21 10.7521 21 10.6637C21 10.5752 20.9636 10.4905 20.8989 10.428C20.8343 10.3655 20.7465 10.3304 20.6551 10.3304H20.6549ZM16.6061 5.57713C16.6514 5.57719 16.6963 5.5686 16.7381 5.55184C16.78 5.53509 16.818 5.5105 16.8501 5.4795L18.0689 4.30047C18.1336 4.23792 18.1699 4.1531 18.1698 4.06467C18.1698 3.97624 18.1334 3.89144 18.0687 3.82893C18.004 3.76643 17.9163 3.73133 17.8248 3.73136C17.7333 3.73139 17.6456 3.76655 17.5809 3.8291L16.3621 5.00813C16.3139 5.05476 16.2811 5.11416 16.2678 5.17883C16.2545 5.2435 16.2613 5.31052 16.2874 5.37143C16.3136 5.43234 16.3578 5.48439 16.4145 5.521C16.4712 5.55762 16.5379 5.57715 16.6061 5.57713ZM16.3051 13.0384C16.7909 12.1476 17.0367 11.1527 17.0196 10.1458C17.0026 9.13886 16.7233 8.15233 16.2075 7.27733C15.7233 6.43601 15.0276 5.72622 14.1846 5.21354C13.3416 4.70085 12.3785 4.40179 11.3844 4.344H11.3837C11.1278 4.33033 10.8712 4.33033 10.6153 4.344C9.62112 4.40179 8.65806 4.70085 7.81506 5.21354C6.97207 5.72622 6.27633 6.43601 5.79211 7.27733C5.27636 8.15233 4.99706 9.13886 4.98002 10.1458C4.96297 11.1527 5.20873 12.1476 5.6946 13.0384L7.89641 17.0823V18.6667C7.89715 19.2853 8.15169 19.8784 8.6042 20.3158C9.05671 20.7532 9.67023 20.9993 10.3102 21H11.6895C12.3294 20.9993 12.9429 20.7532 13.3955 20.3158C13.848 19.8784 14.1025 19.2853 14.1032 18.6667V17.0823L16.3051 13.0384ZM8.58606 18.3333V17.3333H13.4136V18.3333H8.58606ZM6.39252 7.60513C6.8152 6.85726 7.4286 6.22622 8.17449 5.77193C8.92037 5.31764 9.77399 5.05517 10.6543 5.00943C10.8842 4.99707 11.1147 4.99707 11.3447 5.00943C12.2251 5.05507 13.0788 5.3175 13.8249 5.77179C14.5709 6.22609 15.1844 6.85718 15.6071 7.60513C16.0658 8.38311 16.3143 9.26029 16.3297 10.1556C16.345 11.051 16.1267 11.9356 15.6949 12.7279L13.5503 16.6667H11.3447V13.8831C11.5272 13.9091 11.7113 13.9231 11.8957 13.9251C12.1933 13.9389 12.4908 13.895 12.7706 13.796C13.0504 13.6969 13.3069 13.5448 13.5249 13.3485C14.6042 12.327 14.2103 10.3518 14.193 10.2681C14.1843 10.2251 14.1668 10.1842 14.1417 10.1477C14.1165 10.1112 14.0842 10.08 14.0464 10.0557C14.0087 10.0314 13.9664 10.0145 13.9219 10.0061C13.8774 9.99771 13.8316 9.99789 13.7872 10.0067C12.3047 10.2933 11.4299 11.6523 10.9998 12.5613C10.5698 11.6523 9.69491 10.2932 8.21244 10.0067C8.16803 9.99793 8.12226 9.99776 8.07779 10.0062C8.03331 10.0146 7.991 10.0315 7.95328 10.0557C7.91556 10.08 7.88319 10.1113 7.85803 10.1478C7.83286 10.1842 7.8154 10.2251 7.80665 10.2681C7.78941 10.3517 7.39551 12.327 8.47475 13.3485C8.69277 13.5448 8.94924 13.697 9.22904 13.796C9.50884 13.895 9.80631 13.9389 10.1039 13.9251C10.2884 13.9231 10.4725 13.9091 10.655 13.8831V16.6667H8.44933L6.3048 12.7279C5.87299 11.9356 5.65466 11.051 5.66999 10.1556C5.68533 9.26029 5.93382 8.38311 6.39252 7.60513ZM11.458 13.2288C11.7188 12.5762 12.3918 11.2018 13.5683 10.7604C13.6254 11.3695 13.588 12.3555 13.0425 12.8721C12.6952 13.2 12.1634 13.3203 11.4581 13.2288H11.458ZM10.5414 13.2288C9.83825 13.3206 9.30536 13.2005 8.95819 12.873C8.3773 12.3245 8.38202 11.3047 8.43337 10.7611C9.60856 11.2033 10.2809 12.5767 10.5415 13.2288H10.5414ZM11.6895 20.3333H10.3102C9.91292 20.3328 9.528 20.1999 9.22029 19.957C8.91258 19.7142 8.70089 19.3762 8.62092 19H13.3787C13.2988 19.3762 13.0871 19.7142 12.7794 19.957C12.4717 20.1999 12.0867 20.3328 11.6895 20.3333Z" fill="white" stroke="white" stroke-width="0.3"/>
</svg>
