<svg width="43" height="57" viewBox="0 0 43 57" fill="none" xmlns="http://www.w3.org/2000/svg">
<path d="M41.5876 57C41.0295 57 40.501 56.6697 40.2782 56.1248L36.3784 46.5858C34.1992 41.257 31.7229 38.1902 28.4643 36.9574L22.9126 44.5081V51.6498C22.9126 52.424 22.2801 53.0518 21.5 53.0518C20.7199 53.0518 20.0874 52.424 20.0874 51.6498V44.5076L14.5359 36.9574C11.2767 38.1899 8.80084 41.2565 6.62142 46.586L2.72185 56.1248C2.42856 56.8421 1.60539 57.1877 0.881801 56.8968C0.158919 56.6057 -0.189279 55.7882 0.104006 55.0706L4.00323 45.5317C5.50761 41.8533 7.09552 39.2487 9.00037 37.3349C11.5232 34.8001 14.6422 33.5149 18.2707 33.5149H24.7288C28.3573 33.5149 31.4763 34.8001 33.9991 37.3349C35.904 39.2489 37.4919 41.8533 38.9963 45.5315L42.896 55.0707C43.1893 55.7882 42.8409 56.6059 42.1182 56.897C41.9441 56.9669 41.7644 57 41.5876 57ZM17.5771 36.3374L21.5 41.6723L25.4229 36.3374C25.1951 36.3249 24.9636 36.3188 24.729 36.3188H18.2709C18.0362 36.3188 17.8049 36.3249 17.5771 36.3374ZM21.4997 29.6062C16.3394 29.6062 12.1414 25.4397 12.1414 20.318C12.1414 19.018 12.4054 17.7654 12.9268 16.589L12.6732 9.40029L5.65964 7.32103C5.06124 7.14368 4.65124 6.59745 4.65124 5.97778C4.65124 5.35812 5.06124 4.81189 5.65964 4.63454L21.0958 0.0587505C21.3593 -0.0195835 21.6407 -0.0195835 21.9042 0.0587505L37.307 4.62473C37.4529 4.66416 37.5893 4.72602 37.7124 4.80645C37.8969 4.92702 38.0495 5.08825 38.1588 5.27593C38.2082 5.36058 38.249 5.45083 38.2799 5.54563C38.3248 5.6825 38.3488 5.82812 38.3488 5.97796C38.3488 5.9883 38.3486 5.99846 38.3484 6.0088V11.8481C38.3484 12.6223 37.716 13.25 36.9359 13.25C36.1558 13.25 35.5233 12.6223 35.5233 11.8481V7.85973L30.3298 9.39924L30.0978 16.6457C30.6026 17.8067 30.8585 19.0405 30.8585 20.318C30.8583 25.4395 26.6601 29.6062 21.4997 29.6062ZM15.236 18.466C15.0569 19.0618 14.9667 19.6818 14.9667 20.318C14.9667 23.8935 17.8974 26.8023 21.4998 26.8023C25.1024 26.8023 28.0333 23.8935 28.0333 20.318C28.0333 19.7008 27.9482 19.0985 27.7792 18.5181C25.7808 18.8507 23.7965 19.0017 21.5002 19.0017C19.3448 19.0015 17.3697 18.8345 15.236 18.466ZM15.7224 15.7038C17.6928 16.0434 19.515 16.1976 21.5 16.1976C23.6282 16.1976 25.4614 16.0592 27.2998 15.7545L27.4761 10.2451L21.9042 11.8968C21.6407 11.9752 21.3593 11.9752 21.0958 11.8968L15.5301 10.2471L15.7224 15.7038ZM14.4827 7.01014L21.5 9.09029L28.5207 7.00927C28.5373 7.00401 28.5539 6.99893 28.5706 6.99437L32.0005 5.97761L21.5 2.8651L10.9995 5.97778L14.4253 6.99332C14.4446 6.99858 14.4637 7.00419 14.4827 7.01014Z" fill="#FF723A"/>
</svg>
