<svg width="19" height="21" viewBox="0 0 19 21" fill="none" xmlns="http://www.w3.org/2000/svg">
<path fill-rule="evenodd" clip-rule="evenodd" d="M11.459 1.86643L6.56304 12.3664C6.39404 12.7274 6.37604 13.1394 6.51304 13.5134C6.92004 14.6314 8.06404 17.7754 8.06404 17.7754C8.15804 18.0344 8.44504 18.1684 8.70504 18.0744C8.70504 18.0744 11.848 16.9304 12.967 16.5234C13.34 16.3874 13.645 16.1084 13.813 15.7474C14.572 14.1204 17.588 7.65143 18.709 5.24743C18.878 4.88643 18.896 4.47443 18.76 4.10043C18.623 3.72643 18.344 3.42143 17.984 3.25343C16.778 2.69143 14.658 1.70343 13.452 1.14043C13.092 0.972425 12.679 0.954425 12.305 1.09043C11.932 1.22643 11.627 1.50543 11.459 1.86643ZM12.365 2.28843C12.421 2.16843 12.523 2.07543 12.647 2.03043C12.772 1.98443 12.91 1.99043 13.03 2.04743L17.561 4.16043C17.681 4.21643 17.774 4.31743 17.82 4.44243C17.865 4.56643 17.859 4.70443 17.803 4.82443L12.907 15.3244C12.851 15.4454 12.749 15.5384 12.625 15.5834L8.83204 16.9634L7.45204 13.1714C7.40704 13.0464 7.41304 12.9094 7.46904 12.7894L12.365 2.28843Z" fill="white" stroke="white" stroke-width="0.3"/>
<path fill-rule="evenodd" clip-rule="evenodd" d="M17.2 7.3019L10.856 4.3439C10.605 4.2269 10.308 4.3359 10.191 4.5859C10.075 4.8359 10.183 5.1329 10.433 5.2499L16.777 8.2079C17.027 8.3249 17.325 8.2169 17.442 7.9669C17.558 7.7159 17.45 7.4189 17.2 7.3019ZM1.5 20.3069H17.5C17.776 20.3069 18 20.0829 18 19.8069C18 19.5309 17.776 19.3069 17.5 19.3069H1.5C1.224 19.3069 1 19.5309 1 19.8069C1 20.0829 1.224 20.3069 1.5 20.3069Z" fill="white" stroke="white" stroke-width="0.3"/>
</svg>
