<svg width="45" height="42" viewBox="0 0 45 42" fill="none" xmlns="http://www.w3.org/2000/svg">
<path d="M2.5733 17.069C2.93598 17.5219 3.4375 17.7514 3.94189 17.7514L3.94189 17.7514H4.15709H4.16696L4.17665 17.7495C4.38986 17.707 4.56149 17.6641 4.72983 17.6221L4.74074 17.6194L4.74078 17.6195L4.74593 17.6179C6.45721 17.0915 7.77203 15.7313 8.29741 13.9799L8.29744 13.9799L8.29811 13.9774L8.42646 13.5067C8.53234 13.1839 8.31339 12.8792 8.01809 12.7806C7.69431 12.6726 7.38804 12.8919 7.28921 13.1881L7.28906 13.188L7.28759 13.1934L7.1589 13.6654C6.73743 15.0556 5.7282 16.1031 4.43054 16.4798L4.43052 16.4797L4.42667 16.481C4.3724 16.4992 4.30664 16.5089 4.22908 16.52L4.22389 16.5208C4.15535 16.5305 4.07699 16.5417 4.00658 16.5638C3.74822 16.5927 3.61214 16.4523 3.52103 16.3583C3.51393 16.351 3.50711 16.344 3.50052 16.3373C3.35954 16.158 3.35682 15.9426 3.4317 15.7542L5.49582 11.1093L5.49583 11.1093L5.49636 11.1081C5.74288 10.5327 6.23699 10.0791 6.85581 9.87271C6.85586 9.8727 6.85591 9.87268 6.85596 9.87266L14.6865 7.29101L14.6865 7.29105L14.6894 7.29002C15.1412 7.12584 15.592 7.12581 16.0021 7.24849C16.3253 7.35533 16.6308 7.13619 16.7294 6.84052C16.8375 6.51674 16.6181 6.21048 16.322 6.11165L16.322 6.11147L16.3161 6.10989C15.6539 5.93309 14.9883 5.93258 14.3227 6.15451C14.3227 6.15452 14.3226 6.15454 14.3226 6.15456L6.492 8.73621L6.49171 8.73631C5.56254 9.04585 4.80892 9.7104 4.40986 10.5973L4.40967 10.5977L2.34505 15.2433C2.34495 15.2435 2.34485 15.2437 2.34475 15.2439C2.07117 15.8372 2.16211 16.566 2.5733 17.069Z" fill="#FF723A" stroke="white" stroke-width="0.2"/>
<path d="M23.346 10.8143L23.346 10.8143L21.4099 9.86768L21.4091 9.86728L21.4091 9.86728C21.1045 9.71502 20.9922 9.3531 21.1509 9.08443C21.304 8.78269 21.6639 8.67176 21.9315 8.82932L23.8639 9.7741C25.7001 10.6711 27.7506 11.141 29.8007 11.141H34.9639C35.2772 11.141 35.5371 11.4009 35.5372 11.7142C35.5372 11.7142 35.5372 11.7142 35.5372 11.7143H35.4372L23.346 10.8143ZM23.346 10.8143L23.3468 10.8146C25.3393 11.7676 27.5915 12.2873 29.801 12.2873H34.9482L23.346 10.8143Z" fill="#FF723A" stroke="white" stroke-width="0.2"/>
<path d="M26.9183 23.0007H34.9643C35.2776 23.0007 35.5376 22.7408 35.5376 22.4274C35.5376 22.1141 35.2776 21.8541 34.9643 21.8541H26.9183C26.6049 21.8541 26.3449 22.1141 26.3449 22.4274C26.3449 22.7408 26.6049 23.0007 26.9183 23.0007Z" fill="#FF723A" stroke="white" stroke-width="0.2"/>
<path d="M21.5829 24.3347H21.5976L21.5978 24.3347C23.4117 24.3326 24.7548 23.9431 25.7965 23.4653C27.2837 22.8526 28.4236 21.67 28.9065 20.2212L28.9117 20.2058V20.1896V20.1621C29.0044 19.8569 28.8471 19.5512 28.542 19.4494L28.5419 19.4494C28.2314 19.3461 27.9167 19.5035 27.8131 19.814L27.808 19.8294V19.8456V19.8722C27.4284 20.9956 26.5505 21.8737 25.3735 22.3782C24.3485 22.8052 23.1996 23.1558 21.7208 23.1877C20.2407 23.2196 18.4246 22.9323 16.0668 22.075L16.0662 22.0748C15.7677 21.9682 15.5117 21.8615 15.2866 21.765C15.2409 21.7454 15.1963 21.7262 15.1528 21.7074C14.9837 21.6345 14.8309 21.5685 14.692 21.5164C14.1129 21.2805 13.7252 21.1249 13.2107 21.0586C12.6981 20.9924 12.0643 21.0152 10.9882 21.1228L10.9877 21.1229C10.1813 21.2078 9.58544 21.1219 9.17428 20.9575C8.76225 20.7926 8.54236 20.5524 8.46837 20.3303L8.46835 20.3302C8.31613 19.874 8.57786 19.2703 9.20331 18.8532L9.20332 18.8532L9.20448 18.8524C10.5443 17.9311 12.2225 18.051 14.0348 18.1804L14.0446 18.1811C14.0448 18.1811 14.045 18.1812 14.0452 18.1812C16.101 18.3527 18.2981 18.5332 20.0129 16.9525C20.2774 16.7378 20.2661 16.373 20.0685 16.1258L20.0684 16.1257C19.854 15.8582 19.4876 15.8689 19.2395 16.0672L19.2394 16.067L19.2349 16.0711C18.588 16.6553 17.814 16.9188 16.9509 17.0194C16.0946 17.1192 15.1584 17.0582 14.1783 16.9943L14.1456 16.9921C14.1455 16.9921 14.1455 16.9921 14.1454 16.9921C12.2591 16.8635 10.2433 16.7284 8.57486 17.8698L8.57485 17.8698L8.57352 17.8708C7.51602 18.6199 7.05466 19.7392 7.41872 20.7402L7.41871 20.7403L7.41937 20.742C7.87458 21.9253 9.27156 22.485 11.1792 22.3118L11.1792 22.3118L11.1807 22.3116C12.1933 22.204 12.7312 22.1733 13.138 22.2202C13.5343 22.2659 13.8091 22.3854 14.2922 22.5956L14.3143 22.6052L14.3143 22.6053L14.3191 22.6071C14.4379 22.6517 14.5663 22.7063 14.7129 22.7687C14.7759 22.7955 14.8422 22.8237 14.9126 22.8532C15.1448 22.9504 15.4159 23.0588 15.7412 23.1674C18.1163 24.0308 20.0208 24.3347 21.5829 24.3347Z" fill="#FF723A" stroke="white" stroke-width="0.2"/>
<path d="M23.0609 8.68623L23.1322 8.75823L23.2033 8.68591L25.5689 6.27705C25.569 6.27694 25.5691 6.27683 25.5692 6.27672C26.2103 5.63525 26.2102 4.53946 25.5689 3.89816L23.0733 1.40264C22.7548 1.08376 22.3426 0.9 21.884 0.9C21.4256 0.9 21.0135 1.08377 20.6946 1.4026L18.3281 3.76915L18.2577 3.83954L18.3278 3.91025L23.0609 8.68623ZM24.6957 4.7705L24.6953 4.77085L24.703 4.77721C24.9092 4.94914 24.9193 5.26716 24.6963 5.49015L23.1319 7.05453L19.9163 3.83895L21.4818 2.23216C21.5379 2.17619 21.5908 2.14189 21.6456 2.12086C21.701 2.09961 21.7634 2.08992 21.8411 2.08992C21.9189 2.08992 21.9813 2.09961 22.0366 2.12086C22.0914 2.14189 22.1443 2.17622 22.2004 2.23231C22.2005 2.23241 22.2006 2.23251 22.2007 2.2326L24.6957 4.7705Z" fill="#FF723A" stroke="white" stroke-width="0.2"/>
<path d="M1.4894 26.0987H1.52333L1.52958 26.0939C1.53981 26.0916 1.54894 26.0886 1.55673 26.0856C1.57248 26.0798 1.58732 26.0724 1.59718 26.0674L1.59859 26.0667C1.6103 26.0609 1.61632 26.058 1.62132 26.0561C1.6217 26.056 1.62204 26.0559 1.62234 26.0558H1.6315L1.64405 26.0525L7.02271 24.6323L7.03261 24.6296L7.04178 24.6251C7.08435 24.6039 7.13004 24.5811 7.17062 24.5579C7.20996 24.5354 7.25183 24.5085 7.28309 24.4772L9.60638 22.1539L9.60644 22.1539C9.71538 22.0447 9.76466 21.8878 9.76466 21.7389C9.76466 21.59 9.71538 21.433 9.60638 21.324L9.60632 21.324C9.4972 21.215 9.34023 21.1657 9.19131 21.1657C9.0424 21.1657 8.88546 21.215 8.77646 21.324L6.55814 23.5423L2.31383 24.655L3.34433 20.3271L4.35704 19.3144L4.3571 19.3143C4.46604 19.2052 4.51531 19.0483 4.51531 18.8993C4.51531 18.7504 4.46604 18.5935 4.35704 18.4845L4.35698 18.4844C4.24786 18.3755 4.09089 18.3262 3.94197 18.3262C3.79306 18.3262 3.63613 18.3755 3.52713 18.4845C3.52713 18.4845 3.52712 18.4845 3.52712 18.4845L2.36533 19.646L2.36507 19.6462C2.36433 19.647 2.36357 19.6477 2.36279 19.6485C2.34158 19.6699 2.3052 19.7065 2.27405 19.75C2.24493 19.7908 2.21128 19.8498 2.20735 19.9186L0.918908 25.3728C0.868128 25.5771 0.91963 25.7856 1.07444 25.9404C1.1836 26.0495 1.34054 26.0987 1.4894 26.0987Z" fill="#FF723A" stroke="white" stroke-width="0.2"/>
<path d="M13.036 17.1502L13.0358 17.1504C12.9269 17.2595 12.8776 17.4165 12.8776 17.5654C12.8776 17.7143 12.9269 17.8712 13.0359 17.9802C13.1207 18.0651 13.2345 18.1137 13.3508 18.1312V18.1386H13.4508C13.5997 18.1386 13.7566 18.0894 13.8658 17.9803L23.5468 8.29921L23.5469 8.29915C23.6558 8.19003 23.7051 8.03306 23.7051 7.88414C23.7051 7.73528 23.6559 7.57839 23.5469 7.4694C23.5469 7.46936 23.5469 7.46933 23.5468 7.46929L19.5026 3.38219L19.5026 3.38219L19.5022 3.38176C19.2871 3.16707 18.9276 3.177 18.6806 3.37441L18.6803 3.37404L18.6733 3.38085L9.16435 12.6316L9.16435 12.6316L9.16331 12.6326C8.94862 12.8477 8.95856 13.2072 9.15597 13.4542L9.15547 13.4546L9.16343 13.4626C9.37849 13.6773 9.73799 13.6673 9.98501 13.4699L9.98529 13.4703L9.9921 13.4637L19.0857 4.66896L22.3023 7.92663L13.036 17.1502Z" fill="#FF723A" stroke="white" stroke-width="0.2"/>
<path d="M18.9151 14.1661L18.8165 14.1496C18.7648 14.4579 18.9688 14.7705 19.2842 14.8239C19.9024 14.948 20.4385 15.3197 20.768 15.8138C21.0972 16.3074 21.2211 16.9684 21.0977 17.5445L21.0975 17.5444L21.0965 17.5512C21.0471 17.8956 21.2446 18.213 21.5662 18.2664L21.5744 18.2678H21.5826H21.6688H21.7688V18.2597C21.8626 18.2444 21.9545 18.2066 22.0301 18.141C22.1323 18.0523 22.1959 17.9204 22.1991 17.7501C22.4167 16.8654 22.2387 15.8947 21.7087 15.1428C21.2191 14.3874 20.3777 13.8575 19.4941 13.6809L19.4941 13.6809L19.491 13.6803C19.1822 13.6286 18.869 13.8334 18.8164 14.1497L18.9151 14.1661ZM18.9151 14.1661C18.958 13.908 19.2164 13.7358 19.4745 13.779L20.8512 15.7583C20.507 15.2421 19.9475 14.8546 19.3023 14.7256C19.0441 14.6827 18.8719 14.4243 18.9151 14.1661Z" fill="#FF723A" stroke="white" stroke-width="0.2"/>
<path d="M9.58283 25.0236C9.97616 25.6124 10.5764 25.9611 11.2316 26.0389L11.2087 26.0557H11.5146C11.9181 26.0557 12.2777 25.9655 12.6354 25.786L12.6356 25.7864L12.643 25.7818C13.223 25.425 13.6286 24.8868 13.764 24.2548C13.8989 23.6252 13.764 22.9522 13.4052 22.4142L13.3997 22.4059L13.3927 22.3989L13.3519 22.3582L12.366 21.2436C12.1513 20.9781 11.7861 20.9893 11.5386 21.1871L11.5385 21.1872C11.271 21.4016 11.2817 21.768 11.48 22.0161L11.4798 22.0163L11.4845 22.0214L12.4687 23.0912C12.6243 23.3283 12.7003 23.6411 12.6226 23.9517L12.6226 23.9517C12.5425 24.272 12.3431 24.5495 12.0677 24.7067L12.0677 24.7066L12.0649 24.7084C11.5552 25.022 10.9244 24.8697 10.5644 24.3494L10.5644 24.3494L10.5624 24.3466L8.92726 22.1523L8.92731 22.1523L8.92514 22.1496C8.72063 21.8941 8.35722 21.8392 8.09615 22.0478L8.09608 22.0479C7.8411 22.252 7.78589 22.6144 7.99311 22.8753L9.58283 25.0236Z" fill="#FF723A" stroke="white" stroke-width="0.2"/>
<path d="M36.7284 26.4427H43.5696C43.7413 26.4427 43.876 26.342 43.9635 26.2172C44.0508 26.0926 44.1 25.9327 44.1 25.7836C44.1 25.4702 43.84 25.2103 43.5267 25.2103H36.7284C36.0544 25.2103 35.5375 24.6548 35.5375 24.0194V10.1647C35.5375 9.49069 36.093 8.97387 36.7284 8.97387H43.5267C43.84 8.97387 44.1 8.7139 44.1 8.40056C44.1 8.08721 43.84 7.82725 43.5267 7.82725H36.7284C35.4255 7.82725 34.348 8.90482 34.348 10.2077V24.0623C34.348 25.3652 35.4256 26.4427 36.7284 26.4427Z" fill="#FF723A" stroke="white" stroke-width="0.2"/>
<path d="M14.6987 25.3671H14.7516L14.7519 25.3666C15.3534 25.3568 15.9586 25.1789 16.3987 24.7835L17.8159 23.6239C17.8161 23.6238 17.8162 23.6236 17.8164 23.6235C18.0714 23.4189 18.1262 23.0558 17.9177 22.7949L17.9176 22.7948C17.7131 22.5393 17.3497 22.4844 17.0886 22.693L17.0886 22.693L17.0877 22.6938L15.6678 23.8556L15.6678 23.8555L15.6657 23.8574C15.0601 24.3824 14.135 24.3396 13.6136 23.7398C13.399 23.4739 13.0336 23.485 12.786 23.6829L12.7858 23.683C12.5184 23.8974 12.5291 24.2638 12.7273 24.5119L12.7269 24.5123L12.7348 24.5202C13.2681 25.0535 13.9814 25.3671 14.6987 25.3671ZM12.8055 24.4495C12.6335 24.2343 12.6335 23.9333 12.8484 23.761L12.8055 24.4495Z" fill="#FF723A" stroke="white" stroke-width="0.2"/>
<path d="M18.1751 36.8724C18.2806 37.1899 18.6432 37.3385 18.9469 37.2371L18.947 37.2372L18.9516 37.2354C20.738 36.5383 22.1403 35.1849 22.6676 33.6026L22.668 33.6015C23.3699 31.4081 22.3217 28.854 20.3299 28.057C18.8257 27.4379 16.9336 27.8818 15.7037 29.1117L15.7037 29.1117L15.7023 29.1131C14.604 30.2553 14.0804 31.9205 14.255 33.6244L14.255 33.6244L14.2552 33.6262C14.4299 35.0684 15.0851 36.5064 16.2151 37.8104L16.2156 37.811C18.1277 39.9838 20.9948 41.2871 23.9064 41.2871L23.9064 41.2872C23.9493 41.2872 24.0356 41.2872 24.1225 41.2869L24.1236 41.2869C27.1229 41.2435 29.9904 39.8094 31.8586 37.5066L31.8591 37.506C32.0677 37.245 32.0128 36.8813 31.7572 36.677C31.4962 36.4684 31.1325 36.5232 30.9282 36.7788L30.9273 36.78C29.3114 38.8632 26.7586 40.0978 24.1203 40.1402C21.4816 40.1829 18.8857 39.0335 17.1846 37.0345L17.1846 37.0345L17.1832 37.0329C16.5014 36.2659 15.6557 35.0369 15.4869 33.4744L15.4869 33.4744L15.4867 33.4727C15.3179 32.1236 15.7402 30.8204 16.5785 29.94C17.4569 29.0198 18.8334 28.6903 19.9093 29.1455C20.5896 29.4341 21.1325 30.0562 21.4369 30.8118C21.741 31.5668 21.8028 32.4455 21.5318 33.2376L21.5315 33.2383C21.1125 34.4946 20.0204 35.5502 18.5381 36.1013C18.2219 36.2075 18.074 36.5693 18.1751 36.8724ZM18.1751 36.8724C18.1751 36.8725 18.1751 36.8725 18.1751 36.8726L18.27 36.8409L18.1751 36.8724C18.1751 36.8724 18.1751 36.8724 18.1751 36.8724Z" fill="#FF723A" stroke="white" stroke-width="0.2"/>
<path d="M12.0412 36.8931L12.0412 36.8932L12.0433 36.8938C12.0801 36.9057 12.1168 36.9175 12.1532 36.9293C13.4305 37.3414 14.4545 37.6717 15.7241 37.673L15.7244 37.673H15.7316H15.7368C15.9874 37.673 16.2129 37.673 16.4794 37.5866C16.7906 37.5759 17.039 37.2714 16.9928 36.9624C16.99 36.8006 16.9074 36.6687 16.7929 36.5796C16.6776 36.4899 16.5266 36.4403 16.3766 36.4403V36.4401L16.3707 36.4404C14.9286 36.5254 13.9549 36.2299 12.4506 35.7143C8.60101 34.3882 5.17781 31.5644 3.12459 28.0565L3.12089 28.0502L3.11631 28.0445C2.92174 27.8018 2.5677 27.6878 2.29835 27.8493L2.29788 27.8485L2.28724 27.857C2.04473 28.0515 1.93071 28.4051 2.09164 28.6743C4.29808 32.4811 7.93131 35.4655 12.0412 36.8931Z" fill="#FF723A" stroke="white" stroke-width="0.2"/>
<path d="M2.40843 19.646L2.40849 19.6459C2.51749 19.5369 2.67443 19.4876 2.82334 19.4876C2.97226 19.4876 3.12923 19.5369 3.23835 19.6459L3.23841 19.6459L5.17454 21.582C5.28354 21.691 5.33281 21.848 5.33281 21.9969C5.33281 22.1458 5.28354 22.3028 5.1746 22.4119L5.17442 22.4121C5.0654 22.5207 4.90862 22.5703 4.75959 22.5703L2.40843 19.646ZM2.40843 19.646C2.29949 19.7551 2.25022 19.9121 2.25022 20.061C2.25022 20.2099 2.29949 20.3668 2.40849 20.4758L4.34462 22.412C4.45378 22.5211 4.61072 22.5703 4.75958 22.5703L2.40843 19.646Z" fill="#FF723A" stroke="white" stroke-width="0.2"/>
</svg>
