<svg width="40" height="35" viewBox="0 0 40 35" fill="none" xmlns="http://www.w3.org/2000/svg">
<path d="M9.07215 18.7189H0.721583C0.52991 18.7189 0.3467 18.795 0.211002 18.9303C0.0757049 19.0656 0 19.2492 0 19.4405V31.9662C0 32.1578 0.0757028 32.3414 0.211002 32.4767C0.3467 32.612 0.52992 32.6877 0.721583 32.6877H9.07215C9.26342 32.6877 9.44703 32.612 9.58233 32.4767C9.71763 32.3414 9.79373 32.1578 9.79373 31.9662V31.1697H12.5448L22.1041 34.8416C22.7343 35.0836 23.4381 35.047 24.0397 34.7409L38.525 27.3624C39.2828 26.9763 39.7946 26.2346 39.8868 25.3889C39.9786 24.5437 39.6384 23.709 38.9816 23.1686C38.3253 22.6286 37.4402 22.4559 36.6289 22.7092L32.5297 23.9897C32.0207 20.6676 28.8851 18.0547 24.9836 17.7648V10.7137L26.6829 9.01403C27.2285 9.34785 27.8571 9.52139 28.4969 9.51495C28.6604 9.51495 28.8243 9.50489 28.9866 9.48556C30.1064 9.33375 31.1429 8.81149 31.9305 8.00167C33.5219 6.41027 34.5515 1.4261 34.6631 0.862748C34.7102 0.626378 34.6361 0.381956 34.4658 0.211632C34.2954 0.0409055 34.051 -0.0331907 33.8146 0.0139184C33.2513 0.126259 28.2663 1.15505 26.6753 2.74645C25.8655 3.53407 25.3428 4.57051 25.1911 5.68999C25.0792 6.49009 25.2443 7.30428 25.6586 7.99772L24.9837 8.67299V6.87223C24.9837 6.47359 24.6608 6.15065 24.2621 6.15065C23.8635 6.15065 23.5406 6.47359 23.5406 6.87223V13.9149L22.3612 12.7355C23.2769 11.2404 22.8947 9.03461 21.3461 7.48547C19.7543 5.89407 14.7701 4.8653 14.2067 4.75294C13.9703 4.70583 13.7259 4.78032 13.5556 4.95066C13.3853 5.12098 13.3112 5.3654 13.3583 5.60177C13.4698 6.1651 14.4994 11.1493 16.09 12.7407C16.9908 13.6737 18.2226 14.2149 19.5188 14.2471C20.159 14.2535 20.7883 14.082 21.3372 13.7522L23.5406 15.9556V17.7728C21.0026 17.8981 18.6531 19.1488 17.1322 21.1839C17.1096 21.2237 17.0911 21.2656 17.077 21.3087L14.7125 20.629C14.6476 20.6104 14.5804 20.6008 14.5128 20.6008H9.79391V19.4403C9.79391 19.249 9.71781 19.0654 9.58251 18.9301C9.44721 18.7948 9.26359 18.7187 9.07233 18.7187L9.07215 18.7189ZM26.6241 5.85929C26.7385 5.062 27.1154 4.32551 27.6957 3.76701C28.5671 2.89523 31.2472 2.09994 33.0032 1.6739C32.5776 3.42992 31.7823 6.10968 30.9101 6.98145C30.3516 7.5617 29.6152 7.939 28.8174 8.05259C28.4611 8.09809 28.0991 8.05782 27.7612 7.93541L28.7643 6.93196L28.7647 6.93236C28.9008 6.79707 28.9781 6.61345 28.9785 6.42138C28.9789 6.22931 28.9028 6.04529 28.7671 5.90918C28.6314 5.77348 28.447 5.69738 28.2549 5.69818C28.0632 5.69858 27.8792 5.77549 27.7443 5.91199L26.7409 6.91545C26.6185 6.57761 26.5786 6.2156 26.6241 5.85926L26.6241 5.85929ZM17.1103 11.7205C16.2389 10.8487 15.4432 8.16856 15.0172 6.41253C16.7732 6.83815 19.4521 7.63304 20.3251 8.50605H20.3255C20.7608 8.8906 21.0809 9.3887 21.2493 9.94437C21.418 10.5005 21.428 11.0924 21.2791 11.6537L20.2764 10.651C19.9945 10.37 19.5383 10.3708 19.2568 10.6519C18.9754 10.9333 18.975 11.3895 19.256 11.6714L20.2591 12.6745C19.6974 12.823 19.1055 12.813 18.5494 12.6443C17.9933 12.4759 17.4948 12.1558 17.1102 11.7205L17.1103 11.7205ZM8.35057 31.2445H1.44317V20.162H8.35057V31.2445ZM24.2625 19.1765C27.8632 19.1765 30.8248 21.4883 31.1365 24.4253L28.4994 25.2492C28.5051 25.1815 28.52 25.1167 28.52 25.0474C28.5192 24.3758 28.2522 23.7323 27.7774 23.2576C27.3027 22.7828 26.6588 22.5155 25.9876 22.5147H21.2703L18.5454 21.7311V21.7315C19.9781 20.0741 22.0724 19.1383 24.2625 19.1766L24.2625 19.1765ZM14.4117 22.0443L20.9691 23.9296C21.0339 23.9485 21.1012 23.9578 21.1688 23.9578H25.9875C26.4442 23.9562 26.8533 24.2404 27.0103 24.6697C27.1678 25.0985 27.0389 25.5801 26.689 25.8737L26.6866 25.8757C26.4921 26.0432 26.244 26.1358 25.9876 26.1366H19.1864C18.6283 26.1374 18.0932 26.3593 17.6985 26.7543C17.3039 27.1489 17.082 27.6841 17.0816 28.2422V28.5507V28.5503C17.0816 28.9489 17.4046 29.2719 17.8032 29.2719C18.2015 29.2719 18.5248 28.9489 18.5248 28.5503V28.2418V28.2422C18.5252 27.8766 18.8212 27.5806 19.1864 27.5798H25.9875C26.5279 27.5782 27.0534 27.4023 27.4858 27.0777L37.0597 24.087V24.0875C37.5284 23.9405 38.0374 24.1297 38.2959 24.5469C38.4557 24.8034 38.5004 25.1147 38.4195 25.4054C38.3385 25.6965 38.1392 25.9401 37.8702 26.077L23.385 33.4551C23.1478 33.5755 22.8704 33.59 22.6219 33.495L12.9374 29.7747C12.8548 29.7433 12.767 29.7268 12.6788 29.7268H9.79416V22.0443L14.4117 22.0443Z" fill="#6BC6B0"/>
</svg>
