<svg width="31" height="37" viewBox="0 0 31 37" fill="none" xmlns="http://www.w3.org/2000/svg">
<path d="M29.8759 6.54944C29.8434 6.23187 29.5888 5.98254 29.2703 5.95713C26.8627 5.64961 24.5115 4.99759 22.2891 4.02156C19.9932 3.06618 17.8546 1.76874 15.9466 0.173482C15.6937 -0.0578274 15.3061 -0.0578274 15.0533 0.173482C13.1464 1.77108 11.0076 3.06973 8.71077 4.02481C6.48804 5.00001 4.13691 5.65047 1.72958 5.95713C1.4123 5.98224 1.15795 6.2298 1.12398 6.54619C1.0711 7.06553 -0.139807 19.1916 2.82466 25.1139C6.36812 32.1879 14.8613 36.1682 15.222 36.3368C15.3984 36.4186 15.6016 36.4186 15.778 36.3368C16.1387 36.1681 24.6315 32.1877 28.1754 25.1139C31.1398 19.1915 29.929 7.06499 29.8761 6.54922L29.8759 6.54944ZM26.9909 24.5189C24.0131 30.4745 16.9826 34.2528 15.4995 34.9969C14.0171 34.2557 6.99994 30.4939 4.00818 24.5189C1.54647 19.6121 2.19489 9.62969 2.39341 7.21495H2.3937C4.74666 6.84863 7.04296 6.18159 9.22606 5.22976C11.475 4.28648 13.5852 3.0422 15.4992 1.53059C17.4164 3.0478 19.5312 4.29684 21.7856 5.24307C23.9687 6.1946 26.2649 6.86192 28.6179 7.22826C28.8032 9.61373 29.4516 19.612 26.9902 24.5194L26.9909 24.5189Z" fill="#2539ED"/>
<path d="M20.4627 14.2285H19.4701V11.5816C19.4701 10.163 18.7132 8.85223 17.4849 8.14323C16.2566 7.43394 14.7429 7.43394 13.5146 8.14323C12.2862 8.85223 11.5294 10.163 11.5294 11.5816V14.2285H10.5368C10.0981 14.2285 9.67714 14.4028 9.36692 14.713C9.0567 15.0231 8.88245 15.4441 8.88245 15.8828V24.4853C8.88245 24.924 9.05674 25.3449 9.36692 25.6551C9.6771 25.9654 10.0981 26.1396 10.5368 26.1396H20.4627C20.9014 26.1396 21.3223 25.9653 21.6326 25.6551C21.9428 25.345 22.117 24.924 22.117 24.4853V15.8828C22.117 15.4441 21.9427 15.0232 21.6326 14.713C21.3224 14.4027 20.9014 14.2285 20.4627 14.2285ZM12.8532 11.5816C12.8532 10.6359 13.3578 9.76208 14.1767 9.28919C14.9955 8.81653 16.0047 8.81653 16.8236 9.28919C17.6424 9.76215 18.147 10.636 18.147 11.5816V14.2285H12.8532V11.5816ZM20.7939 24.4849C20.7939 24.5726 20.7591 24.6568 20.697 24.7189C20.635 24.7809 20.5508 24.8157 20.4631 24.8157H10.5372C10.3543 24.8157 10.2063 24.6677 10.2063 24.4849V15.8824C10.2063 15.6996 10.3543 15.5516 10.5372 15.5516H20.4631C20.5508 15.5516 20.635 15.5864 20.697 15.6485C20.7591 15.7105 20.7939 15.7947 20.7939 15.8824V24.4849Z" fill="#2539ED"/>
<path d="M15.5001 16.8754C14.6354 16.8778 13.8266 17.3026 13.3336 18.0128C12.8402 18.7229 12.7253 19.6293 13.0252 20.4402C13.325 21.2511 14.0018 21.8647 14.8385 22.0833V22.831C14.8385 23.1965 15.1348 23.4928 15.5002 23.4928C15.8656 23.4928 16.1619 23.1965 16.1619 22.831V22.0833C16.9985 21.8647 17.6753 21.2511 17.9752 20.4402C18.275 19.6293 18.1601 18.723 17.6668 18.0128C17.1737 17.3026 16.3649 16.8778 15.5003 16.8754H15.5001ZM15.5001 20.8458C15.1492 20.8458 14.8124 20.7064 14.5642 20.4582C14.3161 20.2101 14.1767 19.8733 14.1767 19.5223C14.1767 19.1714 14.3161 18.8346 14.5642 18.5865C14.8124 18.3383 15.1492 18.1989 15.5001 18.1989C15.8511 18.1989 16.1878 18.3383 16.436 18.5865C16.6841 18.8346 16.8236 19.1714 16.8236 19.5223C16.8236 19.8733 16.6841 20.2101 16.436 20.4582C16.1878 20.7064 15.8511 20.8458 15.5001 20.8458Z" fill="#2539ED"/>
</svg>
