<svg width="26" height="16" viewBox="0 0 26 16" fill="none" xmlns="http://www.w3.org/2000/svg">
<path d="M0.99995 7.008H22.59L17.29 1.718C17.1016 1.52969 16.9959 1.2743 16.9959 1.008C16.9959 0.741696 17.1016 0.486302 17.29 0.297998C17.4783 0.109694 17.7336 0.00390625 18 0.00390625C18.2663 0.00390625 18.5216 0.109694 18.71 0.297998L25.71 7.298C25.7907 7.38586 25.855 7.48746 25.9 7.598C25.9055 7.6311 25.9055 7.6649 25.9 7.698C25.9272 7.77886 25.944 7.86287 25.95 7.948V8.008C25.9495 8.11417 25.9291 8.21932 25.89 8.318V8.318C25.8484 8.43026 25.7837 8.53249 25.7 8.618L18.7 15.618C18.607 15.7117 18.4964 15.7861 18.3745 15.8369C18.2527 15.8877 18.122 15.9138 17.99 15.9138C17.8579 15.9138 17.7272 15.8877 17.6054 15.8369C17.4835 15.7861 17.3729 15.7117 17.28 15.618C17.1862 15.525 17.1118 15.4144 17.0611 15.2926C17.0103 15.1707 16.9842 15.04 16.9842 14.908C16.9842 14.776 17.0103 14.6453 17.0611 14.5234C17.1118 14.4016 17.1862 14.291 17.28 14.198L22.59 9.008H0.99995C0.734734 9.008 0.480379 8.90264 0.292843 8.71511C0.105306 8.52757 -4.95911e-05 8.27321 -4.95911e-05 8.008C-4.95911e-05 7.74278 0.105306 7.48843 0.292843 7.30089C0.480379 7.11336 0.734734 7.008 0.99995 7.008Z" fill="#525FE1"/>
</svg>
