<svg width="26" height="16" viewBox="0 0 26 16" fill="none" xmlns="http://www.w3.org/2000/svg">
<path opacity="0.3" d="M1.00001 7.00824H22.59L17.29 1.71824C17.1017 1.52994 16.9959 1.27454 16.9959 1.00824C16.9959 0.74194 17.1017 0.486546 17.29 0.298242C17.4783 0.109938 17.7337 0.00415039 18 0.00415039C18.2663 0.00415039 18.5217 0.109938 18.71 0.298242L25.71 7.29824C25.7907 7.38611 25.8551 7.48771 25.9 7.59824C25.9056 7.63134 25.9056 7.66514 25.9 7.69824C25.9273 7.7791 25.9441 7.86312 25.95 7.94824V8.00824C25.9495 8.11442 25.9292 8.21956 25.89 8.31824C25.8485 8.4305 25.7838 8.53273 25.7 8.61824L18.7 15.6182C18.607 15.712 18.4964 15.7864 18.3746 15.8371C18.2527 15.8879 18.122 15.914 17.99 15.914C17.858 15.914 17.7273 15.8879 17.6054 15.8371C17.4836 15.7864 17.373 15.712 17.28 15.6182C17.1863 15.5253 17.1119 15.4147 17.0611 15.2928C17.0104 15.171 16.9842 15.0403 16.9842 14.9082C16.9842 14.7762 17.0104 14.6455 17.0611 14.5237C17.1119 14.4018 17.1863 14.2912 17.28 14.1982L22.59 9.00824H1.00001C0.734795 9.00824 0.48044 8.90289 0.292904 8.71535C0.105368 8.52781 1.14441e-05 8.27346 1.14441e-05 8.00824C1.14441e-05 7.74303 0.105368 7.48867 0.292904 7.30114C0.48044 7.1136 0.734795 7.00824 1.00001 7.00824Z" fill="#525FE1"/>
</svg>
