<svg width="54" height="61" viewBox="0 0 54 61" fill="none" xmlns="http://www.w3.org/2000/svg">
<path d="M53.0165 4.35543C53.0165 1.95376 51.0622 0 48.661 0H4.79C2.38833 0 0.43457 1.95376 0.43457 4.35543V13.6871C0.43457 16.0888 2.3889 18.0426 4.79 18.0426H48.6526C51.0543 18.0426 53.0081 16.0882 53.0081 13.6871L53.0086 4.35543H53.0165ZM51.447 13.6948C51.447 15.2332 50.1994 16.4808 48.661 16.4808H4.79C3.25163 16.4808 2.00406 15.2332 2.00406 13.6948V4.35543C2.00406 2.81706 3.25167 1.56949 4.79 1.56949H48.6526C50.191 1.56949 51.4386 2.8171 51.4386 4.35543V13.6948H51.447Z" fill="black"/>
<path d="M9.46023 5.49341C7.51403 5.49341 5.92871 7.07873 5.92871 9.02493C5.92871 10.9711 7.51403 12.5564 9.46023 12.5564C11.4064 12.5564 12.9917 10.9711 12.9917 9.02493C12.9917 7.07873 11.4068 5.49341 9.46023 5.49341ZM9.46023 10.987C8.37738 10.987 7.4982 10.1078 7.4982 9.02493C7.4982 7.94208 8.37738 7.06289 9.46023 7.06289C10.5431 7.06289 11.4223 7.94208 11.4223 9.02493C11.4223 10.1083 10.5436 10.987 9.46023 10.987Z" fill="black"/>
<path d="M38.8895 5.49341C38.4582 5.49341 38.1045 5.8465 38.1045 6.27845V11.772C38.1045 12.2034 38.4576 12.557 38.8895 12.557C39.3209 12.557 39.6746 12.2039 39.6746 11.772V6.27845C39.6746 5.84652 39.3215 5.49341 38.8895 5.49341Z" fill="black"/>
<path d="M45.1678 5.49341C44.7365 5.49341 44.3828 5.8465 44.3828 6.27845V11.772C44.3828 12.2034 44.7359 12.557 45.1678 12.557C45.5992 12.557 45.9529 12.2039 45.9529 11.772V6.27845C45.9529 5.84652 45.5992 5.49341 45.1678 5.49341Z" fill="black"/>
<path d="M53.0165 25.5454C53.0165 23.1437 51.0622 21.1899 48.661 21.1899H4.79C2.38833 21.1899 0.43457 23.1443 0.43457 25.5454V34.8771C0.43457 37.2787 2.3889 39.2325 4.79 39.2325H48.6526C51.0543 39.2325 53.0081 37.2782 53.0081 34.8771L53.0086 25.5454H53.0165ZM51.447 34.8848C51.447 36.4232 50.1994 37.6707 48.661 37.6707L4.79 37.6713C3.25163 37.6713 2.00406 36.4231 2.00406 34.8848V25.5454C2.00406 24.007 3.25167 22.7594 4.79 22.7594H48.6526C50.191 22.7594 51.4386 24.007 51.4386 25.5454V34.8848L51.447 34.8848Z" fill="black"/>
<path d="M9.46023 26.6832C7.51403 26.6832 5.92871 28.2685 5.92871 30.2147C5.92871 32.1609 7.51403 33.7463 9.46023 33.7463C11.4064 33.7463 12.9917 32.1609 12.9917 30.2147C12.9917 28.2685 11.4068 26.6832 9.46023 26.6832ZM9.46023 32.1768C8.37738 32.1768 7.4982 31.2976 7.4982 30.2147C7.4982 29.1319 8.37738 28.2527 9.46023 28.2527C10.5431 28.2527 11.4223 29.1319 11.4223 30.2147C11.4223 31.2981 10.5436 32.1768 9.46023 32.1768Z" fill="black"/>
<path d="M38.8895 26.6832C38.4582 26.6832 38.1045 27.0363 38.1045 27.4683V32.9618C38.1045 33.3932 38.4576 33.7469 38.8895 33.7469C39.3209 33.7469 39.6746 33.3938 39.6746 32.9618V27.4683C39.6746 27.0363 39.3215 26.6832 38.8895 26.6832Z" fill="black"/>
<path d="M45.1678 26.6832C44.7365 26.6832 44.3828 27.0363 44.3828 27.4683V32.9618C44.3828 33.3932 44.7359 33.7469 45.1678 33.7469C45.5992 33.7469 45.9529 33.3938 45.9529 32.9618V27.4683C45.9529 27.0363 45.5992 26.6832 45.1678 26.6832Z" fill="black"/>
<path d="M53.0165 46.7354C53.0165 44.3337 51.0622 42.3799 48.661 42.3799L4.79 42.3794C2.38833 42.3794 0.43457 44.3337 0.43457 46.7354V56.0671C0.43457 58.4688 2.3889 60.4225 4.79 60.4225H48.6526C51.0543 60.4225 53.0081 58.4682 53.0081 56.0671L53.0086 46.7354L53.0165 46.7354ZM51.447 56.0748C51.447 57.6132 50.1994 58.8607 48.661 58.8607H4.79C3.25163 58.8607 2.00406 57.6126 2.00406 56.0748V46.7354C2.00406 45.197 3.25167 43.9494 4.79 43.9494H48.6526C50.191 43.9494 51.4386 45.197 51.4386 46.7354V56.0748H51.447Z" fill="black"/>
<path d="M9.46023 47.8734C7.51403 47.8734 5.92871 49.4587 5.92871 51.4049C5.92871 53.3511 7.51403 54.9365 9.46023 54.9365C11.4064 54.9365 12.9917 53.3511 12.9917 51.4049C12.9917 49.4587 11.4068 47.8734 9.46023 47.8734ZM9.46023 53.3675C8.37738 53.3675 7.4982 52.4883 7.4982 51.4055C7.4982 50.3226 8.37738 49.4435 9.46023 49.4435C10.5431 49.4435 11.4223 50.3226 11.4223 51.4055C11.4223 52.4883 10.5436 53.3675 9.46023 53.3675Z" fill="black"/>
<path d="M38.8895 47.8734C38.4582 47.8734 38.1045 48.2265 38.1045 48.6584V54.152C38.1045 54.5834 38.4576 54.937 38.8895 54.937C39.3209 54.937 39.6746 54.5839 39.6746 54.152V48.6584C39.6746 48.2271 39.3215 47.8734 38.8895 47.8734Z" fill="black"/>
<path d="M45.1678 47.8734C44.7365 47.8734 44.3828 48.2265 44.3828 48.6584V54.152C44.3828 54.5834 44.7359 54.937 45.1678 54.937C45.5992 54.937 45.9529 54.5839 45.9529 54.152V48.6584C45.9529 48.2271 45.5992 47.8734 45.1678 47.8734Z" fill="black"/>
</svg>
