<svg width="66" height="70" viewBox="0 0 66 70" fill="none" xmlns="http://www.w3.org/2000/svg">
<path fill-rule="evenodd" clip-rule="evenodd" d="M32.9836 0.000610092C32.886 0.00231194 32.789 0.022167 32.6983 0.0584724L0.900529 12.7614C0.701416 12.8392 0.53521 12.9991 0.45011 13.1954C0.36501 13.3917 0.361615 13.622 0.441034 13.8206C0.520453 14.0191 0.681551 14.1836 0.878399 14.2676C1.07525 14.3509 1.30555 14.3526 1.50353 14.2727L33.0007 1.68949L64.4963 14.2722C64.6943 14.3528 64.9246 14.3516 65.1215 14.2671C65.3183 14.1837 65.4794 14.0187 65.5588 13.8201C65.6383 13.6216 65.6349 13.3913 65.5498 13.195C65.4647 12.9987 65.299 12.8387 65.0993 12.761L33.3016 0.058037C33.2012 0.0177612 33.0923 -0.0020937 32.9839 0.000174666L32.9836 0.000610092Z" fill="black"/>
<path fill-rule="evenodd" clip-rule="evenodd" d="M22.6177 15.4287C22.4963 15.4304 22.3743 15.4326 22.2529 15.4372C18.3563 15.5711 14.4104 17.1435 10.3424 19.4971C10.2199 19.568 10.1161 19.6719 10.0452 19.795C9.97427 19.9181 9.93626 20.0593 9.93626 20.2011V23.5679H1.77147C1.55875 23.5679 1.34714 23.6559 1.19626 23.8062C1.04592 23.9565 0.958008 24.1681 0.958008 24.3814V69.1257C0.958008 69.3384 1.04593 69.55 1.19626 69.7009C1.34659 69.8512 1.55818 69.9391 1.77147 69.9391H64.2284C64.4411 69.9391 64.6527 69.8512 64.8036 69.7009C64.9539 69.5505 65.0419 69.3389 65.0419 69.1257V24.3814C65.0419 24.1687 64.9539 23.9571 64.8036 23.8062C64.6527 23.6559 64.4417 23.5679 64.2284 23.5679H56.0636V20.2011C56.0636 20.0593 56.0256 19.9181 55.9547 19.795C55.8838 19.6724 55.7805 19.5686 55.658 19.4971C51.5941 17.1429 47.6476 15.5711 43.7504 15.4366C40.0518 15.3095 36.4286 16.5269 33.0001 19.4858C29.6844 16.6245 26.1883 15.3913 22.6173 15.4282L22.6177 15.4287ZM22.6353 17.055C25.918 17.017 29.0414 18.1243 32.1869 20.9358V61.3669C25.6219 59.4876 19.4937 55.2864 11.5626 55.7248V20.6755C15.3542 18.529 18.9343 17.1795 22.3078 17.0637C22.4167 17.0597 22.5262 17.0575 22.6351 17.0563L22.6353 17.055ZM43.0418 17.055C43.2591 17.0527 43.4769 17.055 43.6953 17.0624C47.07 17.1787 50.6496 18.5282 54.4378 20.6742V55.7234C46.5074 55.2849 40.379 59.4861 33.8134 61.3656V20.9344C36.8545 18.216 39.8764 17.0911 43.0412 17.0537L43.0418 17.055ZM2.58597 25.1948H9.93782V56.6019C9.93782 56.7148 9.96164 56.8283 10.0076 56.9315C10.0535 57.0347 10.121 57.1283 10.205 57.2043C10.289 57.2798 10.3888 57.3382 10.496 57.374C10.6032 57.4097 10.7184 57.4222 10.8307 57.4114C18.8837 56.6195 25.1192 61.2984 32.7098 63.1902C32.8641 63.2469 33.036 63.256 33.1954 63.2146H33.2079C33.2084 63.2146 33.2096 63.214 33.2101 63.214L33.2113 63.2135C40.8388 61.3358 47.0901 56.6195 55.1717 57.4142C55.284 57.4255 55.3992 57.4142 55.5064 57.3768C55.6136 57.341 55.7135 57.2832 55.7974 57.2071C55.8814 57.1317 55.9489 57.0375 55.9948 56.9343C56.0408 56.831 56.0646 56.7176 56.0646 56.6047V25.1976H63.4164V68.3154H2.58599V25.1976L2.58597 25.1948Z" fill="black"/>
</svg>
