<svg width="57" height="54" viewBox="0 0 57 54" fill="none" xmlns="http://www.w3.org/2000/svg">
<path d="M14.3556 40.3646C19.1632 40.3646 23.4706 37.8605 25.8739 34.0542L38.1937 40.5644C37.7934 41.5663 37.5929 42.768 37.5929 43.9697C37.5929 49.2783 41.8995 53.485 47.1081 53.485C52.4167 53.485 56.6234 49.1784 56.6234 43.9697C56.6234 38.6611 52.3168 34.4545 47.1081 34.4545C43.9026 34.4545 40.9982 36.0572 39.2955 38.5613L26.9757 32.0511C27.6771 30.4483 28.0775 28.6458 28.0775 26.7425C28.0775 24.8392 27.6771 23.1366 26.9757 21.4339L39.2955 14.9237C40.9981 17.4277 43.9033 19.0305 47.1081 19.0305C52.4167 19.0305 56.6234 14.7239 56.6234 9.51526C56.6234 4.30663 52.3168 0 47.1081 0C41.7995 0 37.5929 4.30663 37.5929 9.51526C37.5929 10.717 37.7934 11.8188 38.1937 12.9206L25.8739 19.4308C23.4699 15.6245 19.1631 13.1204 14.3556 13.1204C6.84342 13.1204 0.632812 19.2303 0.632812 26.7425C0.632812 34.2547 6.84342 40.3646 14.3556 40.3646ZM47.1087 36.6588C51.1149 36.6588 54.3204 39.8643 54.3204 43.8705C54.3204 47.8766 51.1149 51.0822 47.1087 51.0822C43.1026 51.0822 39.897 47.8766 39.897 43.8705C39.897 39.9641 43.1026 36.6588 47.1087 36.6588ZM47.1087 2.30302C51.1149 2.30302 54.3204 5.50858 54.3204 9.51472C54.3204 13.5209 51.1149 16.7264 47.1087 16.7264C43.1026 16.7264 39.897 13.5209 39.897 9.51472C39.897 5.50858 43.1026 2.30302 47.1087 2.30302ZM14.3556 15.4241C20.5655 15.4241 25.6734 20.5328 25.6734 26.7427C25.6734 32.9526 20.5653 38.0612 14.3549 38.0612C8.14499 38.0612 3.03635 32.9531 3.03635 26.7427C3.03705 20.5328 8.0452 15.4241 14.3556 15.4241Z" fill="black"/>
</svg>
