<svg width="21" height="21" viewBox="0 0 21 21" fill="none" xmlns="http://www.w3.org/2000/svg">
<path d="M19.0522 0H17.3627C16.8461 0 16.3507 0.205762 15.9854 0.57202C15.6201 0.938279 15.4149 1.43503 15.4149 1.953V16.247C15.4149 16.765 15.6201 17.2617 15.9854 17.628C16.3507 17.9942 16.8461 18.2 17.3627 18.2H19.0522C19.5688 18.2 20.0642 17.9942 20.4295 17.628C20.7948 17.2617 21 16.765 21 16.247V1.953C21 1.43503 20.7948 0.938279 20.4295 0.57202C20.0642 0.205762 19.5688 0 19.0522 0ZM19.6037 16.247C19.6037 16.3937 19.5456 16.5343 19.4422 16.638C19.3388 16.7417 19.1985 16.8 19.0522 16.8H17.3627C17.2164 16.8 17.0761 16.7417 16.9727 16.638C16.8693 16.5343 16.8112 16.3937 16.8112 16.247V1.953C16.8112 1.80634 16.8693 1.66568 16.9727 1.56197C17.0761 1.45826 17.2164 1.4 17.3627 1.4H19.0522C19.1985 1.4 19.3388 1.45826 19.4422 1.56197C19.5456 1.66568 19.6037 1.80634 19.6037 1.953V16.247ZM1.94781 18.2H3.6373C4.15332 18.1982 4.64769 17.9918 5.01257 17.6259C5.37746 17.2601 5.58327 16.7644 5.58511 16.247V7.553C5.58327 7.0356 5.37746 6.53992 5.01257 6.17406C4.64769 5.8082 4.15332 5.60184 3.6373 5.6H1.94781C1.43122 5.6 0.935784 5.80576 0.570499 6.17202C0.205215 6.53828 0 7.03503 0 7.553V16.247C0 16.765 0.205215 17.2617 0.570499 17.628C0.935784 17.9942 1.43122 18.2 1.94781 18.2ZM1.39628 7.553C1.39628 7.40634 1.45438 7.26568 1.55782 7.16197C1.66125 7.05826 1.80153 7 1.94781 7H3.6373C3.78301 7.00181 3.92225 7.06066 4.02529 7.16398C4.12833 7.26729 4.18702 7.4069 4.18883 7.553V16.247C4.18702 16.3931 4.12833 16.5327 4.02529 16.636C3.92225 16.7393 3.78301 16.7982 3.6373 16.8H1.94781C1.80153 16.8 1.66125 16.7417 1.55782 16.638C1.45438 16.5343 1.39628 16.3937 1.39628 16.247V7.553ZM11.3168 18.2C11.8328 18.1982 12.3272 17.9918 12.6921 17.6259C13.057 17.2601 13.2628 16.7644 13.2646 16.247V4.753C13.2628 4.2356 13.057 3.73992 12.6921 3.37406C12.3272 3.0082 11.8328 2.80184 11.3168 2.8H9.62733C9.11074 2.8 8.6153 3.00576 8.25002 3.37202C7.88474 3.73828 7.67952 4.23503 7.67952 4.753V16.247C7.67952 16.765 7.88474 17.2617 8.25002 17.628C8.6153 17.9942 9.11074 18.2 9.62733 18.2H11.3168ZM9.0758 16.247V4.753C9.0758 4.68038 9.09006 4.60847 9.11778 4.54138C9.1455 4.47428 9.18612 4.41332 9.23734 4.36197C9.28855 4.31062 9.34935 4.26989 9.41627 4.24209C9.48318 4.2143 9.5549 4.2 9.62733 4.2H11.3168C11.4625 4.20182 11.6018 4.26066 11.7048 4.36398C11.8079 4.46729 11.8665 4.6069 11.8684 4.753V16.247C11.8665 16.3931 11.8079 16.5327 11.7048 16.636C11.6018 16.7393 11.4625 16.7982 11.3168 16.8H9.62733C9.48105 16.8 9.34077 16.7417 9.23734 16.638C9.13391 16.5343 9.0758 16.3937 9.0758 16.247ZM3.54654 20.3C3.54654 20.4857 3.6201 20.6637 3.75102 20.795C3.88195 20.9263 4.05952 21 4.24468 21H16.8112C16.9963 21 17.1739 20.9263 17.3048 20.795C17.4358 20.6637 17.5093 20.4857 17.5093 20.3C17.5093 20.1143 17.4358 19.9363 17.3048 19.805C17.1739 19.6737 16.9963 19.6 16.8112 19.6H4.24468C4.05952 19.6 3.88195 19.6737 3.75102 19.805C3.6201 19.9363 3.54654 20.1143 3.54654 20.3Z" fill="white"/>
</svg>
