<svg width="21" height="23" viewBox="0 0 21 23" fill="none" xmlns="http://www.w3.org/2000/svg">
<path d="M20.5917 4.56938L11.0261 1.02657C10.9553 0.991143 10.849 0.991143 10.7782 1.02657L1.21257 4.56938C1.10628 4.60481 1 4.74652 1 4.88823C1 5.02995 1.10628 5.17166 1.248 5.20709L4.54281 6.44707V8.43104C4.54281 8.5019 4.54281 8.53733 4.57824 8.60818C4.61367 8.64361 4.79081 8.99789 5.25137 9.42303C5.25137 9.45846 5.21594 9.49389 5.21594 9.52931V9.56474C4.22396 9.74188 3.44454 10.5922 3.44454 11.655C3.44454 12.7178 4.22396 13.5681 5.21594 13.7453V13.7807C5.21594 13.8161 5.21594 13.8161 5.21594 13.8515C5.21594 13.887 5.49937 15.6584 6.81021 17.0755C4.93252 17.9966 3.40911 19.5555 2.52341 21.4686C2.48798 21.5749 2.48798 21.7166 2.55884 21.8229C2.62969 21.9291 2.73598 22 2.84226 22H11.593H18.9266C19.0329 22 19.1746 21.9291 19.21 21.8229C19.2455 21.7166 19.2809 21.6103 19.2455 21.4686C18.3598 19.5555 16.8364 18.0321 14.9587 17.0755C16.2341 15.6584 16.5529 13.887 16.5529 13.8515C16.5529 13.8161 16.5529 13.8161 16.5529 13.7807V13.7453C17.5449 13.5681 18.3243 12.7178 18.3243 11.655C18.3243 10.5922 17.5449 9.74188 16.5529 9.56474V9.52931C16.5529 9.49389 16.5529 9.45846 16.5175 9.42303C16.9781 8.99789 17.1906 8.67904 17.1906 8.60818C17.2261 8.53733 17.2261 8.5019 17.2261 8.43104V6.44707L18.6432 5.91565V8.85618C18.2181 8.99789 17.9346 9.3876 17.9346 9.84817C17.9346 10.4504 18.3952 10.911 18.9975 10.911C19.5997 10.911 20.0603 10.4504 20.0603 9.84817C20.0603 9.3876 19.7769 8.99789 19.3517 8.85618V5.66765L20.5209 5.24251C20.6626 5.20709 20.7689 5.06537 20.7689 4.92366C20.7689 4.78195 20.7334 4.60481 20.5917 4.56938ZM19.0683 10.2024C18.8558 10.2024 18.714 10.0607 18.714 9.84817C18.714 9.6356 18.8558 9.49389 19.0683 9.49389C19.2809 9.49389 19.4226 9.6356 19.4226 9.84817C19.4226 10.0607 19.2809 10.2024 19.0683 10.2024ZM5.95993 9.95445C6.38507 10.2379 6.88106 10.5213 7.51877 10.7339C7.27077 11.0527 6.73935 11.4779 5.95993 11.5841V9.95445ZM4.18853 11.6196C4.18853 10.9464 4.64909 10.415 5.25137 10.2379V12.9658C4.64909 12.8241 4.18853 12.2927 4.18853 11.6196ZM7.37706 17.5361C7.94391 17.9966 8.65247 18.3863 9.53817 18.5635L10.9907 21.1852H3.40911C4.33024 19.5555 5.71194 18.2801 7.37706 17.5361ZM10.4593 18.7052C10.601 18.7052 10.7782 18.7052 10.9199 18.7052C11.0616 18.7052 11.2033 18.7052 11.3804 18.7052L10.9199 19.4846L10.4593 18.7052ZM18.3952 21.1852H11.841L11.2741 20.1932L12.2661 18.5635C13.1518 18.3863 13.8604 17.9966 14.4272 17.5361C16.1278 18.2801 17.5095 19.5555 18.3952 21.1852ZM15.8798 13.7098C15.8089 14.0995 15.065 17.9966 10.9199 17.9966C6.81021 17.9966 6.03079 14.0995 5.95993 13.7098V12.2927C7.27077 12.151 7.97933 11.3361 8.26276 10.9464C8.58161 11.0173 8.90046 11.0882 9.25474 11.159C9.43188 11.4424 10.4947 12.8596 12.2661 13.1784C12.5141 13.2138 12.7621 13.2493 13.0101 13.2493H13.0456V13.4264C13.0456 13.639 13.1873 13.7807 13.3998 13.7807C13.6124 13.7807 13.7541 13.639 13.7541 13.4264V13.1784C14.4627 13.0721 15.1712 12.7533 15.8798 12.3281V13.7098ZM15.8798 11.4424C14.6752 12.3281 13.4707 12.6824 12.4078 12.4698C11.4159 12.2927 10.6719 11.6904 10.2467 11.2299C10.4593 11.2299 10.7073 11.2653 10.9199 11.2653C13.329 11.2653 14.8878 10.6276 15.8798 9.95445V11.4424ZM17.6512 11.6196C17.6512 12.2927 17.1906 12.8241 16.5884 13.0013V10.2733C17.1906 10.415 17.6512 10.9464 17.6512 11.6196ZM16.5884 8.32476C16.3049 8.71447 14.8524 10.5567 10.9199 10.5567C6.98735 10.5567 5.5348 8.71447 5.25137 8.32476V6.69507L10.8136 8.7499C10.849 8.7499 10.8844 8.78532 10.9199 8.78532C10.9553 8.78532 10.9907 8.78532 11.0261 8.7499L16.5884 6.69507V8.32476ZM10.9199 8.04133L2.3817 4.88823L10.9199 1.73513L19.458 4.88823L10.9199 8.04133Z" fill="white" stroke="white" stroke-width="0.2"/>
<path d="M8.43973 12.3281C8.22716 12.3281 8.08545 12.4698 8.08545 12.6824V13.391C8.08545 13.6035 8.22716 13.7452 8.43973 13.7452C8.6523 13.7452 8.79401 13.6035 8.79401 13.391V12.6824C8.79401 12.4698 8.6523 12.3281 8.43973 12.3281ZM12.7974 15.5521C12.6202 15.4812 12.4077 15.5875 12.3368 15.7646C12.3368 15.7646 12.0534 16.5795 10.8843 16.5795C9.75057 16.5795 9.46714 15.8001 9.43172 15.7646C9.36086 15.5875 9.18372 15.4812 8.97115 15.5521C8.79401 15.6229 8.68773 15.8001 8.75858 16.0126C8.79401 16.0835 9.21915 17.3235 10.8488 17.3235C12.4785 17.3235 12.9391 16.0835 12.9391 16.0126C13.0808 15.8001 12.9745 15.5875 12.7974 15.5521Z" fill="white" stroke="white" stroke-width="0.2"/>
</svg>
