<svg width="81" height="70" viewBox="0 0 81 70" fill="none" xmlns="http://www.w3.org/2000/svg">
<path d="M73.8571 45.0244C73.5825 45.025 73.3366 44.8552 73.2406 44.5982C72.4784 42.541 70.9644 40.8497 69.005 39.8639L59.7799 35.2742C59.2407 36.2015 58.4645 36.9684 57.5313 37.4958C56.5981 38.0238 55.5409 38.2931 54.4689 38.2773C53.3987 38.2867 52.3461 38.0116 51.4177 37.4806C50.4892 36.9496 49.7182 36.1815 49.1838 35.2547L42.7517 38.4676C42.4297 38.6151 42.0486 38.4811 41.8912 38.1638C41.7331 37.8465 41.856 37.4613 42.1681 37.2938L49.1837 33.786C49.3441 33.7064 49.5303 33.6953 49.6983 33.7562C49.8669 33.8171 50.0033 33.9435 50.0759 34.1074C50.5828 35.2467 51.5131 36.1441 52.6693 36.6113C53.8255 37.0784 55.1182 37.0784 56.2744 36.6113C57.4312 36.1441 58.3609 35.2466 58.8685 34.1074C58.9411 33.9435 59.0769 33.8171 59.2455 33.7562C59.4141 33.6953 59.5997 33.7064 59.7601 33.786L69.5952 38.6908C71.8502 39.823 73.5937 41.7671 74.4735 44.1328C74.5491 44.3342 74.5204 44.5601 74.3974 44.7369C74.2745 44.9131 74.0725 45.0185 73.8571 45.0179L73.8571 45.0244Z" fill="black"/>
<path d="M58.8354 20.6663C58.0661 20.6663 57.373 20.2027 57.0785 19.4926C56.784 18.7819 56.9468 17.9641 57.4906 17.4202C58.0345 16.8763 58.8523 16.7136 59.563 17.008C60.2731 17.3025 60.7368 17.9956 60.7368 18.765C60.7332 19.8134 59.8838 20.6629 58.8352 20.6665L58.8354 20.6663ZM58.8354 18.1683C58.5965 18.1683 58.3817 18.3118 58.2904 18.5325C58.199 18.7532 58.2494 19.0067 58.418 19.1753C58.5866 19.3444 58.8407 19.3948 59.0614 19.3035C59.2815 19.2121 59.4255 18.9967 59.4255 18.7584C59.422 18.4335 59.1597 18.1718 58.8354 18.1683L58.8354 18.1683Z" fill="black"/>
<path d="M50.0957 20.6663C49.3271 20.6663 48.6333 20.2027 48.3388 19.4926C48.0449 18.7819 48.2077 17.9641 48.7515 17.4202C49.2948 16.8763 50.1126 16.7136 50.8233 17.008C51.534 17.3025 51.9971 17.9956 51.9971 18.7649C51.9936 19.8134 51.1441 20.6629 50.0956 20.6665L50.0957 20.6663ZM50.0957 18.1683C49.8575 18.1683 49.642 18.3118 49.5507 18.5325C49.4594 18.7532 49.5097 19.0067 49.6783 19.1753C49.8475 19.3444 50.101 19.3948 50.3217 19.3035C50.5424 19.2121 50.6858 18.9967 50.6858 18.7584C50.6823 18.4335 50.4201 18.1718 50.0957 18.1683L50.0957 18.1683Z" fill="black"/>
<path d="M64.4621 18.7975C63.4611 18.7957 62.5016 18.397 61.7937 17.6893C61.0859 16.9815 60.6873 16.022 60.6855 15.0209V8.77213C60.6855 8.40975 60.9794 8.11646 61.3412 8.11646C62.3423 8.11821 63.3018 8.51689 64.0102 9.22466C64.718 9.93244 65.1161 10.8919 65.1178 11.8931V18.1354C65.1196 18.3104 65.0517 18.4784 64.9282 18.6031C64.8052 18.7272 64.6372 18.7975 64.4622 18.7975H64.4621ZM61.9905 9.51975V15.021C61.9911 15.5607 62.1679 16.0858 62.4946 16.5155C62.8212 16.9452 63.2802 17.2561 63.8001 17.4007V11.893C63.7983 11.3544 63.6209 10.8311 63.2943 10.4026C62.9676 9.97403 62.5098 9.66375 61.9905 9.51975Z" fill="black"/>
<path d="M42.602 16.3006C42.2396 16.3006 41.9463 16.0067 41.9463 15.6449V13.7691C41.9498 11.112 43.0071 8.56468 44.8869 6.68668C46.766 4.80808 49.3138 3.75256 51.9711 3.75076H59.5769C60.393 3.74725 61.1787 4.06045 61.7687 4.62362C62.3589 5.18738 62.7072 5.9578 62.7411 6.77333C62.7751 7.58883 62.4917 8.38562 61.9508 8.99618L61.767 9.20575C58.491 12.949 53.8971 15.2837 48.9422 15.7232L42.6676 16.2934L42.602 16.3006ZM51.9711 5.06226C49.6623 5.06401 47.4475 5.98137 45.8136 7.61406C44.1804 9.24628 43.2612 11.4603 43.2576 13.7691V14.923L48.818 14.4184H48.8175C53.4434 14.0057 57.7312 11.8209 60.7835 8.32054L60.9674 8.11097C61.4433 7.56653 61.5569 6.79317 61.2577 6.1351C60.958 5.47651 60.3006 5.05384 59.577 5.05559L51.9711 5.06226Z" fill="black"/>
<path d="M54.9547 32.5344H53.2172C50.8286 32.5309 48.5308 31.6188 46.7898 29.9837C45.0482 28.3486 43.9944 26.1123 43.841 23.7285C42.8867 23.5306 42.0776 22.903 41.6485 22.0278C41.22 21.1526 41.22 20.1281 41.6485 19.2528C42.0777 18.3776 42.8867 17.7501 43.841 17.5521V15.4733C43.841 15.1115 44.1348 14.8176 44.4966 14.8176C44.859 14.8176 45.1523 15.1115 45.1523 15.4733V18.1423C45.1523 18.3162 45.0832 18.483 44.9603 18.606C44.8374 18.7289 44.6705 18.798 44.4966 18.798C43.4792 18.798 42.6543 19.6228 42.6543 20.6403C42.6543 21.6578 43.4792 22.4826 44.4966 22.4826C44.6705 22.4826 44.8373 22.5517 44.9603 22.6746C45.0832 22.7976 45.1523 22.9644 45.1523 23.1383C45.1558 25.278 46.0064 27.3294 47.5174 28.8444C49.0284 30.3588 51.0779 31.2141 53.217 31.2229H54.9546C59.669 31.2229 63.7998 27.4464 63.7998 23.1383C63.7998 22.7765 64.0937 22.4826 64.4555 22.4826C65.473 22.4826 66.2978 21.6578 66.2978 20.6403C66.2978 19.6228 65.473 18.798 64.4555 18.798C64.0937 18.798 63.7998 18.5041 63.7998 18.1423C63.7998 17.7799 64.0937 17.4866 64.4555 17.4866C65.5081 17.4814 66.4934 18.0012 67.0834 18.8723C67.6735 19.744 67.7894 20.8522 67.3937 21.827C66.998 22.8017 66.1415 23.5154 65.1112 23.7285C64.7377 28.4822 60.1545 32.5345 54.9546 32.5345L54.9547 32.5344Z" fill="black"/>
<path d="M54.4697 38.2788C53.2837 38.2876 52.1216 37.948 51.1275 37.3023C50.1335 36.6566 49.3508 35.7333 48.8765 34.6462C48.8379 34.5619 48.818 34.47 48.8174 34.3775V31.0272C48.818 30.8024 48.9339 30.594 49.1241 30.474C49.3138 30.3545 49.5521 30.3405 49.7552 30.4371C50.8359 30.9552 52.0185 31.2239 53.2169 31.2239H55.7155C56.9179 31.2169 58.1035 30.9388 59.1836 30.4107C59.3867 30.3141 59.625 30.3282 59.8152 30.4476C60.0049 30.5676 60.1208 30.776 60.1214 31.0008V34.3447C60.1208 34.4372 60.1009 34.5291 60.0623 34.6134C59.5934 35.7064 58.813 36.6366 57.8183 37.2889C56.8237 37.9404 55.6587 38.2852 54.4697 38.2788L54.4697 38.2788ZM50.1294 34.2336H50.1288C50.6545 35.3306 51.576 36.1883 52.7082 36.6332C53.8404 37.0788 55.0991 37.0788 56.2313 36.6332C57.3629 36.1883 58.2844 35.3307 58.8101 34.2336V32.0043C57.8184 32.3555 56.774 32.5347 55.7221 32.5353H53.217C52.165 32.5353 51.1206 32.3555 50.129 32.0043L50.1294 34.2336Z" fill="black"/>
<path d="M54.4703 27.5378C53.3036 27.536 52.186 27.0724 51.3612 26.2475C50.5363 25.4226 50.0721 24.3045 50.0703 23.1383C50.0703 22.7765 50.3642 22.4827 50.726 22.4827C51.0884 22.4827 51.3817 22.7765 51.3817 23.1383C51.3817 24.243 51.9712 25.2635 52.9277 25.816C53.8843 26.3681 55.0627 26.3681 56.0193 25.816C56.9753 25.2634 57.5648 24.243 57.5648 23.1383C57.5648 22.7765 57.8581 22.4827 58.2204 22.4827C58.5828 22.4827 58.8761 22.7765 58.8761 23.1383C58.8744 24.3057 58.4095 25.425 57.5835 26.2499C56.7569 27.0748 55.6376 27.5378 54.4703 27.5378L54.4703 27.5378Z" fill="black"/>
<path d="M10.1332 32.5344C9.77142 32.5344 9.47754 32.2405 9.47754 31.8787V10.6484C9.48105 8.82015 10.2087 7.06789 11.502 5.77467C12.7946 4.48206 14.5473 3.75445 16.3757 3.75085C16.7375 3.75085 17.0313 4.04415 17.0313 4.40653C17.0313 4.76832 16.7375 5.0622 16.3757 5.0622C14.8946 5.06396 13.4744 5.65289 12.4269 6.70026C11.3796 7.74758 10.7907 9.16724 10.7889 10.6484V31.1848C11.8924 31.0478 12.9298 30.5853 13.7693 29.8565C14.6088 29.1282 15.2124 28.1658 15.5033 27.0932C15.6069 26.7554 15.9593 26.5605 16.3006 26.6524C16.6419 26.7443 16.8492 27.0897 16.769 27.4339C16.3726 28.8928 15.5097 30.1819 14.3114 31.1033C13.1125 32.0248 11.6448 32.5276 10.1333 32.5353L10.1332 32.5344Z" fill="black"/>
<path d="M45.1006 60.0067C44.7382 60.0067 44.445 59.7129 44.445 59.3511V47.6537C44.4502 46.0356 44.0024 44.4479 43.1518 43.071C42.3011 41.6942 41.0818 40.5835 39.6323 39.8642L30.4071 35.2745C29.3083 37.1513 27.2968 38.3046 25.1219 38.3046C22.9476 38.3046 20.9361 37.1514 19.8372 35.2745L10.6121 39.8642C9.16082 40.5825 7.94024 41.693 7.08839 43.07C6.23659 44.4469 5.78758 46.0345 5.79285 47.6539V59.3512C5.79285 59.713 5.49897 60.0069 5.13718 60.0069C4.7748 60.0069 4.4815 59.713 4.4815 59.3512V47.6539C4.47507 45.7916 4.99082 43.9646 5.97023 42.3803C6.94965 40.796 8.35284 39.5175 10.0219 38.691L19.857 33.7863C20.0174 33.7067 20.203 33.6955 20.3716 33.7564C20.5396 33.8173 20.676 33.9437 20.7486 34.1077C21.2562 35.2469 22.1858 36.1444 23.3421 36.6115C24.4989 37.0787 25.7915 37.0787 26.9478 36.6115C28.104 36.1443 29.0336 35.2469 29.5412 34.1077C29.6138 33.9437 29.7502 33.8173 29.9188 33.7564C30.0868 33.6955 30.273 33.7067 30.4328 33.7863L40.2679 38.691C41.927 39.5252 43.3197 40.8061 44.2898 42.3903C45.2592 43.9739 45.7674 45.7968 45.7563 47.6539V59.3512C45.7563 59.5251 45.6872 59.6919 45.5643 59.8149C45.4413 59.9378 45.2745 60.0069 45.1006 60.0069L45.1006 60.0067Z" fill="black"/>
<path d="M73.8569 45.0049C73.5823 45.0061 73.3365 44.8357 73.2404 44.5787C72.4677 42.5269 70.9479 40.8425 68.9849 39.8643L59.7598 35.2746C59.2224 36.199 58.4496 36.9636 57.52 37.4916C56.5904 38.0191 55.5373 38.2901 54.4689 38.2778C53.3987 38.2872 52.3461 38.012 51.4177 37.4811C50.4892 36.9501 49.7182 36.182 49.1838 35.2552L42.7517 38.4681C42.4297 38.6156 42.0486 38.4816 41.8912 38.1643C41.7331 37.847 41.856 37.4618 42.1681 37.2943L49.1837 33.7865C49.3441 33.7069 49.5303 33.6958 49.6983 33.7567C49.8669 33.8175 50.0033 33.944 50.0759 34.1079C50.5828 35.2472 51.5131 36.1446 52.6693 36.6118C53.8255 37.0789 55.1182 37.0789 56.2744 36.6118C57.4312 36.1446 58.3609 35.2471 58.8685 34.1079C58.9411 33.944 59.0769 33.8175 59.2455 33.7567C59.4141 33.6958 59.5997 33.7069 59.7601 33.7865L69.5952 38.6912C71.8508 39.817 73.5977 41.7543 74.4864 44.1135C74.5619 44.3149 74.5333 44.5408 74.4103 44.7176C74.2874 44.8944 74.0854 44.9992 73.87 44.9986L73.8569 45.0049Z" fill="black"/>
<path d="M29.4887 20.6663C28.7195 20.6663 28.0263 20.2027 27.7318 19.4926C27.4373 18.7819 27.6001 17.9641 28.1439 17.4202C28.6878 16.8763 29.5056 16.7136 30.2163 17.008C30.9264 17.3025 31.3901 17.9956 31.3901 18.765C31.386 19.8134 30.5371 20.6629 29.4886 20.6665L29.4887 20.6663ZM29.4887 18.1683C29.2498 18.1683 29.0344 18.3118 28.9431 18.5325C28.8518 18.7532 28.9027 19.0067 29.0713 19.1753C29.2399 19.3444 29.494 19.3948 29.7141 19.3035C29.9348 19.2121 30.0788 18.9967 30.0788 18.7584C30.0753 18.4335 29.813 18.1718 29.4887 18.1683L29.4887 18.1683Z" fill="black"/>
<path d="M20.7482 20.6663C19.979 20.6663 19.2858 20.2027 18.9913 19.4926C18.6974 18.7819 18.8596 17.9641 19.4034 17.4202C19.9473 16.8763 20.7651 16.7136 21.4758 17.008C22.1865 17.3025 22.6496 17.9956 22.6496 18.765C22.6461 19.8134 21.7966 20.6629 20.7481 20.6665L20.7482 20.6663ZM20.7482 18.1683C20.5094 18.1683 20.2945 18.3118 20.2032 18.5325C20.1119 18.7532 20.1622 19.0067 20.3308 19.1753C20.5 19.3444 20.7535 19.3948 20.9742 19.3035C21.1943 19.2121 21.3383 18.9967 21.3383 18.7584C21.3348 18.4335 21.0725 18.1718 20.7482 18.1683L20.7482 18.1683Z" fill="black"/>
<path d="M13.8842 60.0066C13.5218 60.0066 13.2285 59.7128 13.2285 59.351V51.8564C13.2285 51.4946 13.5218 51.2007 13.8842 51.2007C14.246 51.2007 14.5399 51.4946 14.5399 51.8564V59.351C14.5399 59.5248 14.4708 59.6917 14.3479 59.8146C14.2249 59.9376 14.0581 60.0066 13.8842 60.0066Z" fill="black"/>
<path d="M36.3598 60.0066C35.998 60.0066 35.7041 59.7128 35.7041 59.351V51.8564C35.7041 51.4946 35.998 51.2007 36.3598 51.2007C36.7222 51.2007 37.0154 51.4946 37.0154 51.8564V59.351C37.0154 59.5248 36.9464 59.6917 36.8234 59.8146C36.7005 59.9376 36.5337 60.0066 36.3598 60.0066Z" fill="black"/>
<path d="M36.9813 16.3007H36.4831C35.2707 16.3053 34.0782 15.9892 33.0279 15.3833C31.9771 14.7774 31.106 13.9039 30.5035 12.8513L28.9428 13.881C27.8106 14.6386 26.4793 15.0431 25.1171 15.0431C23.755 15.0431 22.4229 14.6386 21.2914 13.881L19.7442 12.8519L19.7436 12.8513C19.1412 13.9039 18.2701 14.7774 17.2192 15.3833C16.169 15.9892 14.9765 16.3053 13.764 16.3007H13.2524C12.8906 16.3007 12.5967 16.0068 12.5967 15.645V13.7692C12.6002 11.1121 13.658 8.56477 15.5372 6.68677C17.417 4.80817 19.9648 3.75265 22.622 3.75085H27.6186C30.2747 3.75437 32.8206 4.81105 34.6986 6.68902C36.5766 8.56699 37.6334 11.1131 37.6368 13.7691V15.6448C37.6368 16.0066 37.3435 16.3005 36.9811 16.3005L36.9813 16.3007ZM30.7396 11.2456V11.245C30.7958 11.238 30.8532 11.238 30.91 11.245C31.0926 11.293 31.2454 11.4177 31.3297 11.5863L31.4807 11.8814H31.4802C31.9303 12.79 32.62 13.5581 33.4752 14.1024C34.3305 14.6469 35.3187 14.9466 36.332 14.9694V13.7693C36.3285 11.4605 35.4094 9.24631 33.776 7.61425C32.1421 5.98143 29.9274 5.06409 27.6185 5.06244H22.6219C20.3124 5.0642 18.0983 5.98155 16.4644 7.61425C14.8312 9.24646 13.9114 11.4605 13.9078 13.7693V14.9823C14.9241 14.9642 15.9158 14.6668 16.7752 14.1235C17.6341 13.5797 18.3271 12.811 18.7797 11.9007L18.9237 11.6056C19.0075 11.437 19.1597 11.3117 19.3417 11.2631C19.5238 11.214 19.7176 11.2456 19.8745 11.3504L22.0318 12.7864V12.7858C22.9498 13.4005 24.0287 13.7289 25.1334 13.7289C26.2375 13.7289 27.3169 13.4005 28.2343 12.7858L30.3916 11.3498V11.3504C30.4947 11.2807 30.6153 11.2421 30.7394 11.2385L30.7396 11.2456Z" fill="black"/>
<path d="M15.4172 8.44458C15.3223 8.44516 15.2287 8.42467 15.142 8.38545C14.1849 7.93818 13.4203 7.16191 12.9889 6.19707C12.5568 5.23288 12.4866 4.14568 12.7904 3.13362C13.0948 2.12201 13.7523 1.25322 14.6444 0.686571C15.536 0.119889 16.6016 -0.107266 17.647 0.0472927C18.692 0.201252 19.6469 0.726975 20.3364 1.52724C21.0261 2.32751 21.4054 3.34904 21.4036 4.40576C21.4083 4.47133 21.4083 4.53689 21.4036 4.60246C21.3732 4.90512 21.1677 5.16154 20.8791 5.25813C18.9449 5.66149 17.2043 6.70881 15.9417 8.22792C15.8088 8.37603 15.6162 8.45565 15.4172 8.44453V8.44458ZM17.0037 1.31759H17.0043C16.1173 1.31584 15.2725 1.69694 14.6865 2.36258C14.1005 3.0282 13.8295 3.91402 13.9431 4.79389C14.0566 5.6732 14.5437 6.46117 15.2796 6.95649C16.5786 5.56026 18.2477 4.56205 20.0923 4.07797C20.0127 3.31576 19.6521 2.61031 19.0819 2.09926C18.5111 1.5876 17.7705 1.30659 17.0042 1.3107L17.0037 1.31759Z" fill="black"/>
<path d="M26.3665 32.5345H23.8685C21.4799 32.5309 19.1822 31.6189 17.4405 29.9837C15.6995 28.3486 14.6458 26.1123 14.4923 23.7285C13.5381 23.5306 12.7284 22.9031 12.2999 22.0278C11.8714 21.1526 11.8714 20.1281 12.2999 19.2528C12.7284 18.3776 13.5381 17.7501 14.4923 17.5521V15.6443C14.4923 15.2819 14.7862 14.9886 15.148 14.9886C15.5104 14.9886 15.8037 15.2819 15.8037 15.6443V18.1423C15.8037 18.3162 15.7346 18.483 15.6117 18.606C15.4887 18.7289 15.3219 18.798 15.148 18.798C14.1305 18.798 13.3057 19.6229 13.3057 20.6403C13.3057 21.6578 14.1305 22.4827 15.148 22.4827C15.3219 22.4827 15.4887 22.5517 15.6117 22.6747C15.7346 22.7976 15.8037 22.9645 15.8037 23.1383C15.8072 25.278 16.6572 27.3294 18.1688 28.8444C19.6797 30.3588 21.7287 31.2141 23.8684 31.223H26.3664C28.5109 31.2212 30.5667 30.3688 32.0836 28.8533C33.6004 27.3382 34.4539 25.2828 34.4575 23.1383C34.4575 22.7765 34.7513 22.4827 35.1131 22.4827C36.1306 22.4827 36.9555 21.6578 36.9555 20.6403C36.9555 19.6229 36.1306 18.798 35.1131 18.798C34.7513 18.798 34.4575 18.5041 34.4575 18.1423V15.6443C34.4575 15.2819 34.7513 14.9886 35.1131 14.9886C35.4755 14.9886 35.7688 15.2819 35.7688 15.6443V17.5521C36.7231 17.75 37.5328 18.3776 37.9612 19.2528C38.3904 20.128 38.3904 21.1526 37.9612 22.0278C37.5327 22.903 36.7231 23.5305 35.7688 23.7285C35.6154 26.1171 34.5576 28.3569 32.8113 29.9931C31.0645 31.6288 28.7596 32.5375 26.3664 32.5345H26.3665Z" fill="black"/>
<path d="M25.1211 38.2788C23.9356 38.2876 22.7735 37.948 21.7795 37.3023C20.7848 36.6566 20.0022 35.7333 19.5284 34.6462C19.4734 34.5549 19.4424 34.4512 19.4365 34.3447V31.0271C19.4371 30.8023 19.553 30.5939 19.7427 30.4738C19.933 30.3544 20.1712 30.3404 20.3744 30.437C21.4545 30.9551 22.6377 31.2238 23.836 31.2238H26.334C27.5476 31.2214 28.7454 30.9434 29.8354 30.4106C30.0385 30.314 30.2768 30.3281 30.4665 30.4475C30.6567 30.5675 30.7727 30.7759 30.7732 31.0007V34.3446C30.7727 34.4371 30.7528 34.529 30.7141 34.6133C30.2452 35.7063 29.4648 36.6365 28.4695 37.2887C27.4749 37.9403 26.3105 38.2851 25.1209 38.2787L25.1211 38.2788ZM20.7479 34.2335C21.2736 35.3306 22.1951 36.1883 23.3267 36.6332C24.4589 37.0787 25.7175 37.0787 26.8498 36.6332C27.982 36.1883 28.9034 35.3307 29.4292 34.2335V32.0043C28.4375 32.3555 27.3931 32.5347 26.3411 32.5352H23.8689C22.8058 32.5387 21.7502 32.359 20.7481 32.0043L20.7479 34.2335Z" fill="black"/>
<path d="M25.1212 27.5377C23.9597 27.5295 22.8486 27.0624 22.0295 26.2381C21.2099 25.4144 20.7498 24.3003 20.748 23.1382C20.748 22.7764 21.0413 22.4825 21.4037 22.4825C21.7661 22.4825 22.0594 22.7764 22.0594 23.1382C22.0594 24.2429 22.6489 25.2633 23.6048 25.8159C24.5614 26.368 25.7399 26.368 26.6965 25.8159C27.653 25.2633 28.2425 24.2429 28.2425 23.1382C28.2425 22.7764 28.5358 22.4825 28.8982 22.4825C29.26 22.4825 29.5539 22.7764 29.5539 23.1382C29.5521 24.3102 29.0832 25.433 28.2513 26.2591C27.42 27.0845 26.2931 27.5447 25.121 27.5376L25.1212 27.5377Z" fill="black"/>
<path d="M76.0091 69.9999H4.82922C3.25621 69.9999 1.80323 69.1604 1.01643 67.7982C0.230202 66.4359 0.230202 64.7575 1.01643 63.3952C1.80323 62.033 3.25621 61.194 4.82922 61.194H8.88795C9.25033 61.194 9.54362 61.4873 9.54362 61.8496C9.54362 62.212 9.25033 62.5053 8.88795 62.5053H4.82922C3.72511 62.5053 2.70409 63.0948 2.15213 64.0508C1.60007 65.0073 1.60007 66.1858 2.15213 67.1424C2.70418 68.099 3.72514 68.6884 4.82922 68.6884H76.0091C77.1132 68.6884 78.1342 68.0989 78.6862 67.1424C79.2383 66.1858 79.2383 65.0074 78.6862 64.0508C78.1341 63.0948 77.1132 62.5053 76.0091 62.5053H20.0933C19.7309 62.5053 19.4376 62.212 19.4376 61.8496C19.4376 61.4873 19.7309 61.194 20.0933 61.194H75.9761C77.5491 61.194 79.0021 62.0329 79.7889 63.3952C80.5751 64.7575 80.5751 66.4359 79.7889 67.7982C79.0021 69.1605 77.5491 69.9999 75.9761 69.9999H76.0091Z" fill="black"/>
<path d="M16.3746 62.5051H12.6303C12.2685 62.5051 11.9746 62.2118 11.9746 61.8494C11.9746 61.487 12.2685 61.1937 12.6303 61.1937H16.3746C16.7364 61.1937 17.0303 61.487 17.0303 61.8494C17.0303 62.2118 16.7364 62.5051 16.3746 62.5051Z" fill="black"/>
<path d="M71.949 62.505H55.7152C55.3529 62.505 55.0596 62.2118 55.0596 61.8494V54.3548C55.0596 53.993 55.3529 53.6991 55.7152 53.6991H71.949C73.522 53.6991 74.9755 54.5386 75.7618 55.9008C76.548 57.2631 76.548 58.9415 75.7618 60.3038C74.9755 61.6661 73.522 62.505 71.949 62.505ZM56.3702 61.1937H71.949C73.0531 61.1937 74.0741 60.6042 74.6261 59.6483C75.1781 58.6917 75.1781 57.5132 74.6261 56.5566C74.074 55.6001 73.053 55.0106 71.949 55.0106H56.3702V61.1937Z" fill="black"/>
<path d="M76.0091 55.0102H59.7738C59.412 55.0102 59.1182 54.7169 59.1182 54.3545V46.8605C59.1182 46.4981 59.412 46.2048 59.7738 46.2048C60.1362 46.2048 60.4295 46.4981 60.4295 46.8605V53.6988H76.0083C77.1124 53.6988 78.1334 53.1099 78.6854 52.1534C79.2375 51.1968 79.2375 50.0184 78.6854 49.0618C78.1333 48.1052 77.1124 47.5163 76.0083 47.5163H64.239C63.8766 47.5163 63.5833 47.2225 63.5833 46.8607C63.5833 46.4983 63.8766 46.205 64.239 46.205H76.0083C77.5813 46.205 79.0343 47.0439 79.8211 48.4062C80.6073 49.7685 80.6073 51.4469 79.8211 52.8092C79.0343 54.1715 77.5813 55.0105 76.0083 55.0105L76.0091 55.0102Z" fill="black"/>
</svg>
