<svg width="18" height="14" viewBox="0 0 18 14" fill="none" xmlns="http://www.w3.org/2000/svg">
<path d="M17.25 1.75833C16.6432 2.02682 15.9829 2.22005 15.3028 2.29531C16.0089 1.86498 16.5377 1.18514 16.79 0.383329C16.1273 0.787671 15.4014 1.0712 14.6444 1.22135C14.328 0.874396 13.9454 0.598 13.5203 0.40938C13.0952 0.22076 12.6368 0.123959 12.1737 0.125008C10.2998 0.125008 8.79278 1.68307 8.79278 3.59505C8.79278 3.86354 8.82451 4.13203 8.87607 4.39035C6.07021 4.23984 3.56775 2.86484 1.90407 0.759623C1.60093 1.29074 1.44207 1.89547 1.44403 2.51092C1.44403 3.71506 2.04089 4.77682 2.95106 5.40126C2.41468 5.37959 1.89087 5.22837 1.42221 4.95988V5.00259C1.42221 6.6888 2.58421 8.08617 4.13289 8.40755C3.84211 8.48503 3.54298 8.52466 3.24255 8.52552C3.02244 8.52552 2.81423 8.50315 2.60404 8.47264C3.03236 9.84764 4.27962 10.8463 5.76484 10.8789C4.60284 11.8125 3.14737 12.3617 1.56697 12.3617C1.28341 12.3617 1.02166 12.3515 0.75 12.319C2.2491 13.3055 4.02779 13.875 5.94331 13.875C12.1618 13.875 15.5645 8.59061 15.5645 4.00389C15.5645 3.85337 15.5645 3.70285 15.5546 3.55234C16.2129 3.05807 16.79 2.44583 17.25 1.75833Z" fill="#231F40"/>
</svg>
