<svg width="38" height="48" viewBox="0 0 38 48" fill="none" xmlns="http://www.w3.org/2000/svg">
<path fill-rule="evenodd" clip-rule="evenodd" d="M28.4736 19.8012V4.47502C28.4736 3.28845 28.0021 2.15027 27.1629 1.31072C26.3237 0.471529 25.1854 0 23.9989 0H4.47502C3.28784 0 2.14992 0.471502 1.31072 1.31072C0.471528 2.15025 0 3.28845 0 4.47502V34.0209C0 36.4919 2.00361 38.4953 4.47502 38.4953H14.8485C15.3814 38.4953 15.8145 38.0627 15.8145 37.5298C15.8145 36.9962 15.3813 36.564 14.8485 36.564H4.47502C3.07053 36.564 1.93191 35.4253 1.93191 34.0209V4.47493C1.93191 3.80062 2.19956 3.15353 2.67693 2.67654C3.15361 2.19986 3.80037 1.93185 4.47498 1.93185H23.9989C24.6732 1.93185 25.3203 2.19986 25.7969 2.67654C26.274 3.15356 26.542 3.80059 26.542 4.47493V19.8011C26.542 20.3343 26.9745 20.7672 27.5074 20.7672C28.0407 20.7672 28.4735 20.3343 28.4735 19.8011L28.4736 19.8012Z" fill="white"/>
<path fill-rule="evenodd" clip-rule="evenodd" d="M22.0993 5.02167H11.7823C11.2494 5.02167 10.8165 5.45454 10.8165 5.98775C10.8165 6.52066 11.2494 6.95357 11.7823 6.95357H22.0993C22.6325 6.95357 23.0651 6.5207 23.0651 5.98775C23.0651 5.4545 22.6326 5.02167 22.0993 5.02167Z" fill="white"/>
<path fill-rule="evenodd" clip-rule="evenodd" d="M22.0993 11.5893H6.37399C5.84109 11.5893 5.40817 12.0222 5.40817 12.5554C5.40817 13.0883 5.84104 13.5212 6.37399 13.5212H22.0993C22.6325 13.5212 23.0651 13.0883 23.0651 12.5554C23.0651 12.0221 22.6326 11.5893 22.0993 11.5893Z" fill="white"/>
<path fill-rule="evenodd" clip-rule="evenodd" d="M22.0993 18.1561H6.37399C5.84109 18.1561 5.40817 18.589 5.40817 19.1219C5.40817 19.6552 5.84104 20.088 6.37399 20.088H22.0993C22.6325 20.088 23.0651 19.6552 23.0651 19.1219C23.0651 18.589 22.6326 18.1561 22.0993 18.1561Z" fill="white"/>
<path fill-rule="evenodd" clip-rule="evenodd" d="M14.9779 24.7239H6.37354C5.84063 24.7239 5.40771 25.1567 5.40771 25.6897C5.40771 26.2229 5.84059 26.6558 6.37354 26.6558H14.9779C15.5108 26.6558 15.9434 26.2229 15.9434 25.6897C15.9434 25.1568 15.5108 24.7239 14.9779 24.7239Z" fill="white"/>
<path fill-rule="evenodd" clip-rule="evenodd" d="M13.37 31.2907H6.37363C5.84072 31.2907 5.40781 31.7236 5.40781 32.2565C5.40781 32.7898 5.84068 33.2226 6.37363 33.2226H13.37C13.9029 33.2226 14.336 32.7897 14.336 32.2565C14.336 31.7236 13.9028 31.2907 13.37 31.2907Z" fill="white"/>
<path fill-rule="evenodd" clip-rule="evenodd" d="M20.147 24.1075C15.9254 27.0635 14.898 32.8906 17.8539 37.1123C20.8099 41.3334 26.6366 42.3609 30.8578 39.4053C35.0793 36.4493 36.1068 30.6222 33.1508 26.4006C30.1948 22.179 24.3681 21.1516 20.147 24.1075ZM21.2549 25.6897C24.603 23.3452 29.2246 24.1603 31.5691 27.5085C33.9137 30.8566 33.0988 35.4782 29.7507 37.8227C26.4022 40.1672 21.7806 39.3517 19.4364 36.0039C17.092 32.6558 17.9071 28.0342 21.2552 25.6897H21.2549Z" fill="white"/>
<path fill-rule="evenodd" clip-rule="evenodd" d="M29.7336 39.4832L30.7236 40.8967C31.0292 41.3334 31.6321 41.4396 32.0687 41.134C32.5051 40.8281 32.6116 40.2255 32.3057 39.7888L31.3158 38.3753C31.0102 37.9387 30.4076 37.8324 29.971 38.138C29.5343 38.4436 29.4281 39.0466 29.7337 39.4832H29.7336Z" fill="white"/>
<path fill-rule="evenodd" clip-rule="evenodd" d="M35.0749 40.8703C34.2978 39.7604 32.9215 39.2372 31.6033 39.5504C31.2491 39.6345 30.94 39.8508 30.7396 40.155C29.9946 41.2867 30.0157 42.7588 30.7928 43.8688C31.4254 44.7718 32.2656 45.9721 32.9054 46.8858C33.3028 47.4536 33.9098 47.8399 34.5924 47.9602C35.2746 48.0806 35.9769 47.9251 36.5446 47.5274C36.5449 47.5274 36.5453 47.527 36.5456 47.5267C37.1134 47.1293 37.5001 46.5226 37.6204 45.84C37.7404 45.1577 37.5849 44.4551 37.1875 43.8874L35.0749 40.8703ZM33.4924 41.9782C33.2092 41.574 32.735 41.357 32.2531 41.3974C32.0503 41.8361 32.0917 42.3562 32.3749 42.7608C33.0075 43.6639 33.8481 44.8641 34.4875 45.7779C34.5914 45.9258 34.7497 46.0265 34.9276 46.0579C35.1056 46.0893 35.2888 46.049 35.4368 45.9451C35.4371 45.9448 35.4374 45.9448 35.4378 45.9445C35.5858 45.8406 35.6868 45.6827 35.7179 45.5047C35.7492 45.3267 35.7089 45.1436 35.6051 44.9952L33.4924 41.9782Z" fill="white"/>
</svg>
