<svg width="34" height="33" viewBox="0 0 34 33" fill="none" xmlns="http://www.w3.org/2000/svg">
<path d="M29.8711 15.7569H25.8649V3.8723C25.8639 2.84563 25.4554 1.86148 24.7298 1.13547C24.0038 0.409483 23.0193 0.000906592 21.9926 0H3.8723C2.84563 0.00096585 1.86148 0.409516 1.13547 1.13547C0.409451 1.86141 0.00123626 2.84563 0 3.8723V29.083C0.00128786 30.1097 0.409517 31.0938 1.13547 31.8198C1.86142 32.5458 2.84563 32.9544 3.8723 32.9553H29.1629C30.299 33.1269 31.4539 32.7998 32.3315 32.058C33.2088 31.3162 33.7236 30.2316 33.7432 29.0829V19.6288C33.7419 18.6021 33.3337 17.618 32.6077 16.892C31.8818 16.1659 30.8976 15.7577 29.8709 15.7565L29.8711 15.7569ZM1.44206 29.0838V3.87313C1.4427 3.22892 1.69897 2.61115 2.15452 2.15555C2.61006 1.69994 3.22784 1.44373 3.8721 1.44309H21.9924C22.6366 1.44373 23.2541 1.7 23.7096 2.15555C24.1652 2.61109 24.4215 3.22887 24.4221 3.87313C24.4189 9.80586 24.4244 21.7486 24.4221 27.6811C24.3728 28.9785 24.3825 30.5212 25.3042 31.5141H3.87156H3.87188C3.22767 31.5135 2.60991 31.2572 2.1543 30.8017C1.6987 30.3461 1.44249 29.7283 1.44185 29.0841L1.44206 29.0838ZM32.3008 29.0838C32.3002 29.728 32.0439 30.3458 31.5883 30.8014C31.1328 31.257 30.515 31.5132 29.8708 31.5138H28.2949C27.6507 31.5132 27.0329 31.2569 26.5773 30.8014C26.1217 30.3458 25.8655 29.7281 25.8645 29.0838V17.1992H29.8707C30.5149 17.1998 31.1327 17.4561 31.5883 17.9117C32.0439 18.3672 32.3001 18.985 32.3008 19.6292L32.3008 29.0838ZM6.36403 10.6989H18.828C21.9168 10.7083 21.9155 5.53532 18.828 5.54917H6.36403C3.27527 5.53983 3.27626 10.7128 6.36403 10.6989ZM5.50928 7.84622C5.50992 7.37425 5.89207 6.99213 6.36403 6.99147H18.828C19.2997 6.99212 19.6821 7.37426 19.6828 7.84622V8.40254C19.6821 8.87419 19.2997 9.2563 18.828 9.25663H6.36403C5.89206 9.25631 5.50994 8.87417 5.50928 8.40254V7.84622ZM4.65997 13.3942H20.4165C20.8093 13.402 21.1235 13.7226 21.1235 14.1154C21.1235 14.5082 20.8093 14.8285 20.4165 14.8365H4.65997C4.2672 14.8285 3.95298 14.5082 3.95298 14.1154C3.95298 13.7226 4.2672 13.402 4.65997 13.3942ZM4.71759 17.2743H20.4742C20.8669 17.282 21.1811 17.6027 21.1811 17.9954C21.1811 18.3882 20.8669 18.7085 20.4742 18.7166H4.71759C4.32515 18.7085 4.01093 18.3882 4.01093 17.9954C4.01093 17.6027 4.32515 17.282 4.71759 17.2743ZM20.5319 22.5963H4.77529H4.77561C4.38284 22.5883 4.06862 22.2679 4.06862 21.8752C4.06862 21.4824 4.38284 21.1617 4.77561 21.154H20.5322C20.9249 21.1614 21.2395 21.4821 21.2395 21.8752C21.2395 22.2679 20.9249 22.5886 20.5322 22.5963H20.5319ZM12.7118 26.4764H4.83323C4.44046 26.4686 4.12592 26.148 4.12592 25.7552C4.12592 25.3621 4.44046 25.0418 4.83323 25.0341H12.7118C13.1046 25.0418 13.4188 25.3621 13.4188 25.7552C13.4188 26.148 13.1046 26.4686 12.7118 26.4764Z" fill="#6BC6B0"/>
</svg>
