<svg width="40" height="29" viewBox="0 0 40 29" fill="none" xmlns="http://www.w3.org/2000/svg">
<path d="M38.5673 27.6582C38.3974 27.6582 38.2276 27.614 38.0763 27.5267L24.2449 19.5405C23.9405 19.3649 23.7539 19.0417 23.7539 18.6914C23.7539 18.3408 23.9405 18.0159 24.2449 17.8412L38.0763 9.85604C38.3796 9.68039 38.7545 9.68039 39.0579 9.85604C39.3623 10.0317 39.5489 10.3556 39.5489 10.7062V26.6763C39.5489 27.0269 39.3623 27.3518 39.0579 27.5264C38.9069 27.6137 38.7371 27.6579 38.5672 27.6579L38.5673 27.6582ZM26.6993 18.6923L37.5856 24.9761L37.5859 12.4061L26.6993 18.6923Z" fill="#8E66FF"/>
<path d="M1.66264 27.6581C1.49281 27.6581 1.32402 27.6139 1.17165 27.5266C0.867266 27.351 0.680664 27.0271 0.680664 26.6765L0.681006 10.7064C0.681006 10.3558 0.867608 10.0309 1.17199 9.85626C1.47638 9.68164 1.84924 9.68062 2.1536 9.85626L15.985 17.8424C16.2894 18.0181 16.476 18.342 16.476 18.6926C16.476 19.0432 16.2894 19.3681 15.985 19.5427L2.1536 27.5279C2.00124 27.6142 1.83244 27.6584 1.66261 27.6584L1.66264 27.6581ZM2.64425 12.4068V24.9768L13.5305 18.693L2.64425 12.4068Z" fill="#8E66FF"/>
<path d="M21.097 28.0184C21.097 28.5614 20.6581 29 20.1154 29C19.5734 29 19.1338 28.5611 19.1338 28.0184V9.36619C19.1338 8.82419 19.5738 8.38458 20.1154 8.38458C20.6584 8.38458 21.097 8.82455 21.097 9.36619V28.0184Z" fill="#8E66FF"/>
<path d="M32.1334 7.40462C31.7448 7.78364 31.0724 7.72578 30.604 7.32107C24.5971 2.10346 15.6305 2.10346 9.62287 7.32107C9.15552 7.72544 8.48306 7.78329 8.09441 7.40462C7.7058 7.02662 7.80098 6.30109 8.33682 5.8368C15.0802 -0.0200621 25.1475 -0.0200621 31.8905 5.8368C32.4263 6.30108 32.5218 7.02658 32.1329 7.40462H32.1334Z" fill="#8E66FF"/>
<path d="M32.6346 6.30279C32.8595 6.79548 32.6425 7.37792 32.1498 7.60353C31.6561 7.82848 31.074 7.61141 30.849 7.11871L28.2319 1.38956C28.0062 0.896866 28.223 0.313819 28.7167 0.0888183C29.2094 -0.13613 29.7924 0.080943 30.0164 0.573635L32.6346 6.30279Z" fill="#8E66FF"/>
<path d="M31.6322 5.72255C32.1711 5.66161 32.657 6.04953 32.7169 6.58845C32.7779 7.12736 32.3899 7.61222 31.851 7.67313L25.5918 8.37811C25.0529 8.43906 24.5671 8.05113 24.5061 7.51324C24.4462 6.97329 24.8341 6.48851 25.373 6.4275L31.6322 5.72255Z" fill="#8E66FF"/>
</svg>
