<svg width="44" height="37" viewBox="0 0 44 37" fill="none" xmlns="http://www.w3.org/2000/svg">
<path d="M23.7262 1L4.69951 6.83643L4.42111 6.92631L3.72964 7.13738L3.09674 7.34375C2.16261 7.64283 1.43226 8.37754 1.13852 9.3132C0.84477 10.2489 1.02421 11.2692 1.61985 12.0487L2.57627 13.0051L2.57596 13.0048C2.10371 13.2638 1.70973 13.6452 1.43539 14.1087C1.16137 14.5725 1.017 15.1015 1.01826 15.6401C1.01857 16.2884 1.22964 16.9187 1.61984 17.4361L18.9766 34.8193C19.3549 35.3144 19.8778 35.6795 20.4732 35.8646C21.0682 36.0494 21.7061 36.045 22.2986 35.8518L42.8069 29.2208L42.5284 28.3856L41.7966 28.6014V24.1433L42.8112 23.8154L42.5328 22.9623L41.7966 23.2003V18.7377L43.57 18.1631L23.9148 1.17513L23.7262 1ZM1.91121 10.2396C1.91152 9.79173 2.0537 9.3552 2.31738 8.99284C2.58138 8.63082 2.9531 8.3615 3.37931 8.2237L4.44781 7.87797L21.059 24.4891L20.4261 24.6955V24.6958C19.8163 24.8897 19.2843 25.2733 18.9085 25.7913C18.818 25.9181 18.7368 26.0518 18.6661 26.1909C18.6391 26.2403 18.6213 26.2942 18.5987 26.3481C18.5762 26.4019 18.5179 26.5275 18.4866 26.6218C18.4553 26.716 18.4553 26.743 18.4418 26.8059C18.4284 26.8689 18.3924 26.9853 18.3789 27.0752C18.3654 27.1651 18.3789 27.2055 18.3789 27.2728C18.3789 27.3402 18.3789 27.4344 18.3564 27.5152L2.31521 11.4877C2.04996 11.1257 1.90841 10.6882 1.91091 10.2395L1.91121 10.2396ZM1.91121 15.6269C1.91121 15.2022 2.03992 14.7873 2.28012 14.4368C2.52063 14.0867 2.86166 13.8177 3.25811 13.6652L18.9714 29.3785C19.2491 29.7405 19.6052 30.0352 20.0129 30.2403C19.5786 30.4554 19.2025 30.773 18.9175 31.165C18.8267 31.2922 18.7459 31.4256 18.6751 31.5646C18.6482 31.6141 18.6303 31.668 18.6078 31.7218C18.5852 31.7757 18.527 31.9013 18.4957 31.9956C18.4644 32.0898 18.4643 32.1167 18.4509 32.1797C18.4374 32.2426 18.4014 32.3591 18.3879 32.449C18.3745 32.5389 18.3879 32.5793 18.3879 32.6466C18.3879 32.7139 18.3879 32.8082 18.3654 32.889L2.31542 16.8887C2.05111 16.528 1.90956 16.0921 1.91113 15.6451L1.91121 15.6269ZM40.8977 26.0602L23.1329 31.8158L23.4113 32.6689L40.8979 27.0075V28.8931L22.042 34.9988C21.6143 35.1388 21.1533 35.1391 20.7255 34.9995C20.2977 34.8598 19.9254 34.5877 19.6626 34.2222C19.3895 33.8586 19.2426 33.4155 19.2452 32.9608C19.2448 32.5127 19.3864 32.0758 19.6491 31.7126C19.91 31.3577 20.2761 31.0941 20.6951 30.9585L33.5848 26.7878L40.8981 24.4307L40.8977 26.0602ZM40.8977 20.6277L23.1329 26.3789L23.4113 27.232L40.8979 21.5707V23.4875L22.0108 29.5936C21.5889 29.7279 21.1358 29.7273 20.7149 29.591C20.2937 29.4551 19.9257 29.1905 19.6627 28.8348C19.3896 28.4712 19.2427 28.0281 19.2452 27.5734C19.2449 27.1249 19.3865 26.6884 19.6492 26.3251C19.9082 25.9653 20.2743 25.6966 20.6952 25.5576L40.1484 19.2724L40.8981 19.0297L40.8977 20.6277ZM24.5247 23.3801L22.0419 24.1836L5.43074 7.57247L23.5234 2.01888L41.7684 17.7995L24.5247 23.3801Z" fill="#FF723A" stroke="#FF723A" stroke-width="0.3"/>
</svg>
