<svg width="43" height="50" viewBox="0 0 43 50" fill="none" xmlns="http://www.w3.org/2000/svg">
<path d="M12.7009 39.8324C9.74413 37.1382 8.01024 33.2773 8.01024 29.243C8.01024 28.7281 7.59271 28.3106 7.07783 28.3106C6.56296 28.3106 6.14542 28.7281 6.14542 29.243C6.14542 34.3371 8.58583 39.1914 12.6719 42.2291C15.4794 44.3248 18.8209 45.4328 22.3352 45.4328C23.2138 45.4328 24.0817 45.3633 24.9332 45.2271C27.0617 44.8855 29.0877 44.1229 30.9219 42.9692C31.2891 42.7383 31.6486 42.4913 31.9993 42.2299L32.0005 42.2287C36.0861 39.1911 38.5254 34.337 38.5254 29.2446C38.5254 28.7297 38.1078 28.3122 37.593 28.3122C37.0781 28.3122 36.6606 28.7297 36.6606 29.2446C36.6606 33.3444 34.9656 37.1301 31.9715 39.8369C30.5959 35.7611 26.7632 32.933 22.3356 32.933C17.9094 32.9318 14.0772 35.7581 12.7009 39.8327L12.7009 39.8324ZM22.3356 34.7955C26.1794 34.7955 29.4808 37.3996 30.3994 41.0663C30.3158 41.1239 30.2337 41.1827 30.1494 41.238C30.0082 41.3304 29.8658 41.4209 29.7219 41.5083C29.5467 41.6144 29.37 41.7151 29.191 41.8132C29.0456 41.893 28.8987 41.9724 28.7506 42.0468C28.5678 42.1388 28.3823 42.2246 28.1964 42.3082C28.0472 42.3754 27.8976 42.4433 27.7461 42.5059C27.5545 42.5842 27.3602 42.6548 27.1659 42.7246C27.0148 42.7788 26.8644 42.8353 26.7114 42.8838C26.5098 42.9483 26.3053 43.0036 26.1007 43.059C25.9503 43.1002 25.8007 43.1445 25.6488 43.18C25.4328 43.2307 25.2137 43.2708 24.995 43.3116C24.8511 43.3383 24.7088 43.37 24.5637 43.3933C24.3202 43.4311 24.0729 43.4563 23.8267 43.4815C23.7035 43.4941 23.5817 43.5132 23.4573 43.5227C23.0859 43.5513 22.7115 43.567 22.3352 43.567C21.9581 43.567 21.5845 43.5509 21.2132 43.5227C21.0899 43.5135 20.9693 43.4941 20.8464 43.4815C20.5987 43.4559 20.3514 43.4311 20.106 43.3929C19.9632 43.3704 19.822 43.3395 19.6797 43.3124C19.4587 43.2712 19.2377 43.2307 19.0194 43.1788C18.8705 43.1437 18.7232 43.1002 18.5755 43.0601C18.3683 43.0036 18.1606 42.9479 17.9561 42.8823C17.8061 42.8342 17.6584 42.7788 17.5095 42.7258C17.3118 42.6552 17.1149 42.5834 16.9206 42.5037C16.7718 42.4422 16.6244 42.3762 16.4779 42.3094C16.289 42.2247 16.1016 42.1376 15.9161 42.0441C15.7699 41.9701 15.6256 41.8918 15.4817 41.8132C15.3012 41.7144 15.1222 41.6125 14.9463 41.5052C14.8035 41.4186 14.6619 41.3289 14.5211 41.2365C14.4367 41.1812 14.3543 41.122 14.2711 41.0648C15.1905 37.3996 18.4919 34.7956 22.3357 34.7956L22.3356 34.7955ZM29.1354 24.554C29.1354 20.8045 26.0851 17.7546 22.336 17.7546C18.5869 17.7546 15.5366 20.8049 15.5366 24.554C15.5366 28.3031 18.5869 31.3533 22.336 31.3533C26.0847 31.3537 29.1354 28.3031 29.1354 24.554ZM17.3999 24.554C17.3999 21.8324 19.6135 19.6187 22.3352 19.6187C25.0568 19.6187 27.2705 21.8323 27.2705 24.554C27.2705 27.2756 25.0569 29.4893 22.3352 29.4893C19.6139 29.4893 17.3999 27.2753 17.3999 24.554ZM42.9989 28.5802C42.9989 39.9737 33.7298 49.244 22.336 49.244C10.9425 49.244 1.67215 39.9741 1.67215 28.5802C1.67215 26.6813 1.92977 24.8005 2.43815 22.9887C2.57707 22.4926 3.09422 22.2048 3.58775 22.3429C4.08353 22.4826 4.37245 22.9967 4.23353 23.4926C3.77133 25.1402 3.537 26.852 3.537 28.5801C3.537 38.9457 11.9702 47.3797 22.3366 47.3797C32.703 47.3797 41.1362 38.9465 41.1362 28.5801C41.1362 26.7695 40.8798 24.9792 40.3737 23.2597C40.2283 22.7655 40.5103 22.2476 41.0042 22.1021C41.4977 21.9571 42.0159 22.2387 42.1614 22.733C42.7183 24.6234 42.9999 26.5912 42.9999 28.5801L42.9989 28.5802ZM28.4895 4.99098L24.2371 4.37269L22.3352 0.519063C22.178 0.201519 21.8539 0 21.499 0C21.144 0 20.82 0.201519 20.6635 0.519063L18.7617 4.37269L14.5092 4.99098C14.1581 5.04174 13.8665 5.28792 13.757 5.62569C13.6474 5.96346 13.739 6.33368 13.9928 6.58099L17.0702 9.58047L16.3435 13.8158C16.2832 14.1654 16.4271 14.5189 16.7145 14.7272C17.0022 14.9364 17.3824 14.9623 17.6965 14.7982L21.499 12.7991L25.3023 14.799C25.439 14.8708 25.5875 14.9063 25.7363 14.9063C25.9294 14.9063 26.1214 14.846 26.2844 14.728C26.5718 14.5196 26.7157 14.1662 26.6554 13.8166L25.9287 9.58126L29.006 6.58178C29.2606 6.33407 29.3514 5.96348 29.2419 5.62648C29.132 5.28833 28.8407 5.04215 28.4896 4.99101L28.4895 4.99098ZM24.2767 8.58744C24.0569 8.80194 23.9565 9.11071 24.0088 9.4126L24.4985 12.2697L21.9329 10.9209C21.797 10.8499 21.6486 10.8136 21.499 10.8136C21.3497 10.8136 21.2009 10.8491 21.065 10.9209L18.4994 12.2697L18.9891 9.4126C19.0406 9.11071 18.9403 8.80194 18.7212 8.58744L16.6465 6.56463L19.5147 6.14786C19.8185 6.10397 20.0811 5.91314 20.2162 5.63795L21.4989 3.03848L22.7821 5.63795C22.9172 5.91275 23.1806 6.10358 23.4836 6.14786L26.3518 6.56463L24.2767 8.58744ZM42.9542 12.1461C42.8443 11.8083 42.5527 11.5629 42.202 11.5114L37.9495 10.8931L36.0477 7.03947C35.8912 6.72154 35.5671 6.5204 35.2122 6.5204C34.8572 6.5204 34.5332 6.72192 34.3767 7.03947L32.4749 10.8931L28.2224 11.5114C27.8713 11.5621 27.5797 11.8083 27.4702 12.1461C27.3606 12.4839 27.4522 12.8541 27.706 13.1014L30.7838 16.1009L30.0567 20.3362C29.9964 20.6858 30.1403 21.04 30.4277 21.2484C30.5903 21.3667 30.7826 21.4266 30.9758 21.4266C31.1246 21.4266 31.2735 21.3911 31.4097 21.3194L35.213 19.3202L39.0163 21.3194C39.3297 21.4843 39.7106 21.4572 39.9984 21.2484C40.2858 21.04 40.4296 20.6866 40.3693 20.337L39.6427 16.1016L42.72 13.1021C42.9727 12.8537 43.0639 12.4839 42.9543 12.1461L42.9542 12.1461ZM37.9896 15.1081C37.7697 15.3226 37.6694 15.6314 37.7217 15.9333L38.2113 18.7904L35.6458 17.4416C35.5099 17.3706 35.3614 17.3343 35.2118 17.3343C35.0626 17.3343 34.9137 17.3698 34.7779 17.4416L32.2123 18.7904L32.7027 15.9345C32.7543 15.6318 32.6539 15.3234 32.4348 15.1089L30.3593 13.0861L33.2275 12.6694C33.5313 12.6255 33.7939 12.4346 33.929 12.1594L35.2122 9.55998L36.4953 12.1594C36.6304 12.4342 36.8938 12.6251 37.1968 12.6694L40.065 13.0861L37.9896 15.1081ZM8.62306 7.04017C8.46657 6.72224 8.14254 6.52111 7.78759 6.52111C7.43264 6.52111 7.10861 6.72262 6.95213 7.04017L5.05028 10.8938L0.797817 11.5121C0.447072 11.5628 0.155097 11.809 0.0455587 12.1468C-0.0639795 12.4846 0.0276217 12.8544 0.281432 13.1021L3.35878 16.1016L2.63209 20.3369C2.57179 20.6865 2.71568 21.04 3.00307 21.2483C3.29161 21.4575 3.67098 21.4834 3.98512 21.3193L7.78842 19.3202L11.5917 21.3193C11.7284 21.3911 11.8768 21.4266 12.0257 21.4266C12.2188 21.4266 12.4108 21.3663 12.5738 21.2484C12.8611 21.04 13.005 20.6865 12.9447 20.3362L12.2177 16.1008L15.2954 13.1013C15.55 12.8536 15.6408 12.483 15.5313 12.146C15.4214 11.8083 15.1301 11.5629 14.779 11.5113L10.5266 10.893L8.62306 7.04017ZM10.5642 15.1081C10.3443 15.3226 10.244 15.6314 10.2963 15.9337L10.7867 18.7896L8.22112 17.4408C7.94938 17.2981 7.62534 17.2981 7.35322 17.4408L4.78765 18.7896L5.27733 15.9325C5.32885 15.6306 5.22847 15.3219 5.0094 15.1074L2.93471 13.0845L5.80287 12.6678C6.10668 12.6239 6.36926 12.4331 6.50437 12.1579L7.78754 9.5584L9.07071 12.1579C9.20582 12.4327 9.46917 12.6235 9.77221 12.6678L12.6404 13.0845L10.5642 15.1081Z" fill="white"/>
</svg>
