<svg width="68" height="71" viewBox="0 0 68 71" fill="none" xmlns="http://www.w3.org/2000/svg">
<path d="M23.6949 52.1958V60.8812C23.6949 66.4467 28.2481 70.9999 33.8136 70.9999C39.3791 70.9999 43.9323 66.4467 43.9323 60.8812V52.1958C49.9196 48.6542 53.6293 42.1611 53.6293 35.1624C53.6293 29.6816 51.3524 24.4531 47.3891 20.7427C43.3417 16.9482 38.1132 15.093 32.5483 15.4301C22.5136 16.0207 14.3343 24.4531 13.997 34.4873C13.7441 41.7404 17.4544 48.4858 23.6946 52.1968L23.6949 52.1958ZM33.5608 52.4487L31.6215 40.5595H36.0906L34.1513 52.4493L33.5608 52.4487ZM40.5597 55.822V58.3518H27.0675V55.822H40.5597ZM33.8136 67.627C30.3562 67.627 27.5735 65.0131 27.1523 61.7245H40.5597C40.0538 65.0131 37.271 67.627 33.8136 67.627ZM32.7172 18.7192H33.8136C38.0298 18.7192 41.993 20.3215 45.0287 23.1883C48.4013 26.3082 50.2566 30.609 50.2566 35.1623C50.2566 41.3178 46.8839 46.8833 41.4872 49.7502C40.8967 50.0031 40.5596 50.5937 40.5596 51.2677V52.5324H37.524L39.4633 40.5596H40.5597C41.4872 40.5596 42.246 39.8008 42.246 38.8732C42.246 37.9457 41.4872 37.1869 40.5597 37.1869L27.0675 37.1863C26.1399 37.1863 25.3812 37.9451 25.3812 38.8726C25.3812 39.8002 26.14 40.559 27.0675 40.559H28.1639L30.1032 52.4488H27.0676V51.1842C27.0676 50.5936 26.7305 50.0037 26.14 49.6667C20.4903 46.715 17.117 40.8973 17.3706 34.5727C17.6235 26.2238 24.4536 19.2257 32.7175 18.7183L32.7172 18.7192Z" fill="#2639ED"/>
<path d="M33.8138 12.142C34.7414 12.142 35.5001 11.3833 35.5001 10.4557V1.68633C35.5001 0.758735 34.7413 0 33.8138 0C32.8862 0 32.1274 0.75878 32.1274 1.68633V10.4557C32.1274 11.3833 32.8862 12.142 33.8138 12.142Z" fill="#2639ED"/>
<path d="M65.9412 33.8977H57.003C56.0754 33.8977 55.3167 34.6565 55.3167 35.584C55.3167 36.5116 56.0754 37.2704 57.003 37.2704H65.9412C66.8688 37.2704 67.6275 36.5116 67.6275 35.584C67.6275 34.6565 66.8687 33.8977 65.9412 33.8977Z" fill="#2639ED"/>
<path d="M1.68633 37.2707H10.4557C11.3833 37.2707 12.142 36.5119 12.142 35.5844C12.142 34.6568 11.3833 33.898 10.4557 33.898L1.68633 33.8975C0.758734 33.8975 0 34.6562 0 35.5838C0 36.5113 0.758779 37.2707 1.68633 37.2707V37.2707Z" fill="#2639ED"/>
<path d="M51.5218 19.4781C51.9435 19.4781 52.3652 19.3093 52.7023 18.9723L58.8578 12.8168C59.5324 12.1421 59.5324 11.1304 58.8578 10.4557C58.1831 9.78104 57.1714 9.78104 56.4967 10.4557L50.3412 16.6112C49.6665 17.2859 49.6665 18.2975 50.3412 18.9723C50.6782 19.3093 51.1 19.4781 51.5217 19.4781H51.5218Z" fill="#2639ED"/>
<path d="M14.8409 18.9723C15.1779 19.3093 15.5997 19.4781 16.0214 19.4781C16.4431 19.4781 16.8649 19.3093 17.2019 18.9723C17.8766 18.2976 17.8766 17.2859 17.2019 16.6112L11.0464 10.4557C10.3717 9.78104 9.36006 9.78104 8.68532 10.4557C8.01065 11.1304 8.01065 12.142 8.68532 12.8168L14.8409 18.9723Z" fill="#2639ED"/>
</svg>
