<svg width="14" height="14" viewBox="0 0 14 14" fill="none" xmlns="http://www.w3.org/2000/svg">
<path d="M6.99815 4.70736C5.73576 4.70736 4.70555 5.73758 4.70555 7C4.70555 8.26242 5.73576 9.29264 6.99815 9.29264C8.26054 9.29264 9.29075 8.26242 9.29075 7C9.29075 5.73758 8.26054 4.70736 6.99815 4.70736ZM13.8742 7C13.8742 6.05061 13.8828 5.10982 13.8295 4.16215C13.7762 3.0614 13.5251 2.08449 12.7202 1.27957C11.9136 0.472934 10.9384 0.223547 9.83767 0.170229C8.8883 0.116912 7.94753 0.125512 6.99987 0.125512C6.0505 0.125512 5.10972 0.116912 4.16207 0.170229C3.06135 0.223547 2.08446 0.474654 1.27955 1.27957C0.472927 2.08621 0.223545 3.0614 0.170228 4.16215C0.116912 5.11154 0.125512 6.05233 0.125512 7C0.125512 7.94767 0.116912 8.89018 0.170228 9.83786C0.223545 10.9386 0.474647 11.9155 1.27955 12.7204C2.08617 13.5271 3.06135 13.7765 4.16207 13.8298C5.11144 13.8831 6.05222 13.8745 6.99987 13.8745C7.94925 13.8745 8.89002 13.8831 9.83767 13.8298C10.9384 13.7765 11.9153 13.5253 12.7202 12.7204C13.5268 11.9138 13.7762 10.9386 13.8295 9.83786C13.8846 8.89018 13.8742 7.94939 13.8742 7ZM6.99815 10.5275C5.04609 10.5275 3.47068 8.9521 3.47068 7C3.47068 5.0479 5.04609 3.47246 6.99815 3.47246C8.95022 3.47246 10.5256 5.0479 10.5256 7C10.5256 8.9521 8.95022 10.5275 6.99815 10.5275ZM10.6701 4.15183C10.2143 4.15183 9.84627 3.78376 9.84627 3.32799C9.84627 2.87221 10.2143 2.50415 10.6701 2.50415C11.1259 2.50415 11.4939 2.87221 11.4939 3.32799C11.4941 3.43621 11.4728 3.5434 11.4315 3.64342C11.3901 3.74343 11.3295 3.8343 11.2529 3.91083C11.1764 3.98736 11.0855 4.04804 10.9855 4.08939C10.8855 4.13075 10.7783 4.15196 10.6701 4.15183Z" fill="#231F40"/>
</svg>
