<svg width="26" height="16" viewBox="0 0 26 16" fill="none" xmlns="http://www.w3.org/2000/svg">
<path d="M24.95 7.00409H3.36L8.66 1.71409C8.8483 1.52579 8.95409 1.27039 8.95409 1.00409C8.95409 0.73779 8.8483 0.482395 8.66 0.294092C8.4717 0.105788 8.2163 1.9841e-09 7.95 0C7.6837 -1.9841e-09 7.4283 0.105788 7.24 0.294092L0.24 7.29409C0.159276 7.38196 0.0949287 7.48356 0.05 7.59409C0.0444053 7.62719 0.0444053 7.66099 0.05 7.69409C0.0227351 7.77495 0.00593194 7.85897 0 7.94409V8.00409C0.000463186 8.11026 0.0208142 8.21541 0.0599999 8.31409C0.101505 8.42635 0.166251 8.52858 0.25 8.61409L7.25 15.6141C7.34296 15.7078 7.45356 15.7822 7.57542 15.833C7.69728 15.8838 7.82799 15.9099 7.96 15.9099C8.09201 15.9099 8.22272 15.8838 8.34458 15.833C8.46644 15.7822 8.57704 15.7078 8.67 15.6141C8.76373 15.5211 8.83812 15.4105 8.88889 15.2887C8.93966 15.1668 8.9658 15.0361 8.9658 14.9041C8.9658 14.7721 8.93966 14.6414 8.88889 14.5195C8.83812 14.3977 8.76373 14.2871 8.67 14.1941L3.36 9.00409H24.95C25.2152 9.00409 25.4696 8.89874 25.6571 8.7112C25.8446 8.52366 25.95 8.26931 25.95 8.00409C25.95 7.73887 25.8446 7.48452 25.6571 7.29699C25.4696 7.10945 25.2152 7.00409 24.95 7.00409Z" fill="#525FE1"/>
</svg>
