<svg width="53" height="66" viewBox="0 0 53 66" fill="none" xmlns="http://www.w3.org/2000/svg">
<path d="M18.2045 0.00444878C17.9663 0.0462041 17.7623 0.197157 17.6526 0.412368C17.4149 0.88774 17.1644 1.63129 16.765 2.54721C16.3657 3.46314 15.8453 4.51719 15.2062 5.52143C13.9278 7.53047 12.2266 9.21568 9.90592 9.21568H1.46385H1.46439C1.04041 9.21568 0.697266 9.55935 0.697266 9.9828V33.01C0.697266 42.8337 5.24748 50.3225 10.7216 55.7014C16.1958 61.0803 22.5864 64.3774 26.502 65.9437V65.9442C26.6867 66.0186 26.8933 66.0186 27.078 65.9442C30.9933 64.3778 37.384 61.0808 42.8584 55.7019C48.3326 50.3225 52.8828 42.8334 52.8828 33.0091V9.98196C52.8828 9.55798 52.5396 9.21431 52.1156 9.21431H43.6736C41.3529 9.21431 39.6517 7.52965 38.3733 5.52006C37.7342 4.51527 37.2138 3.46128 36.8145 2.54584C36.4151 1.62991 36.1646 0.886398 35.9269 0.410999H35.9275C35.7915 0.154579 35.5222 -0.00333465 35.2321 0.00361339H18.3485C18.3008 -0.00120446 18.2527 -0.00120446 18.205 0.00361339L18.2045 0.00444878ZM18.8522 1.53973H34.7286C34.8961 1.92783 35.0963 2.39464 35.4239 3.14682C35.8404 4.10184 36.3747 5.25494 37.0786 6.36087C38.4864 8.57342 40.6223 10.7505 43.6737 10.7505H51.3481V33.0102C51.3481 42.3628 47.0731 49.4443 41.8034 54.6218C36.6402 59.6951 30.5713 62.8421 26.7904 64.3844C23.0094 62.8421 16.9405 59.6949 11.7775 54.6218C6.50723 49.4436 2.23221 42.3624 2.23221 33.0102V10.7505H9.90656C12.9579 10.7505 15.0939 8.57328 16.5017 6.36087C17.2057 5.2549 17.7404 4.10187 18.1564 3.14682C18.484 2.3947 18.6847 1.9279 18.8517 1.53973H18.8522ZM26.79 22.2646C22.9843 22.2646 19.8833 25.3668 19.8833 29.1729C19.8833 31.1847 20.8298 32.8205 22.1858 34.0421V40.6865C22.1858 42.3743 23.568 43.7571 25.2552 43.7571H28.3247C30.012 43.7571 31.3942 42.3743 31.3942 40.6865V34.0421C32.7501 32.8205 33.6966 31.1845 33.6966 29.1729C33.6966 25.3668 30.595 22.2646 26.79 22.2646ZM26.79 23.7999C29.7658 23.7999 32.1619 26.1965 32.1619 29.1729C32.1619 30.8747 31.4087 32.167 30.1475 33.1786C29.9655 33.3242 29.8595 33.5448 29.8595 33.7782V40.6865C29.8595 41.5505 29.1882 42.2218 28.3248 42.2218H25.2553C24.3918 42.2218 23.7206 41.5505 23.7206 40.6865V33.7782C23.7206 33.5448 23.6146 33.3242 23.4326 33.1786C22.1713 32.1669 21.4182 30.8747 21.4182 29.1729C21.4182 26.1965 23.8142 23.7999 26.7901 23.7999H26.79Z" fill="black"/>
</svg>
