<svg width="18" height="11" viewBox="0 0 18 11" fill="none" xmlns="http://www.w3.org/2000/svg">
<path d="M1.51727 0C0.683296 0 0 0.683296 0 1.51727V9.48273C0 10.3167 0.683296 11 1.51727 11H15.5517C16.3856 11 17.0689 10.3167 17.0689 9.48273V1.51727C17.0689 0.683296 16.3856 0 15.5517 0H1.51727ZM1.51727 0.758548H15.5517C15.9784 0.758548 16.3102 1.09034 16.3102 1.5171V9.48256C16.3102 9.90935 15.9784 10.2411 15.5517 10.2411H1.51727C1.09048 10.2411 0.758717 9.90932 0.758717 9.48256V1.5171C0.758717 1.09031 1.09051 0.758548 1.51727 0.758548ZM14.5915 2.25793V2.25806C14.5016 2.26613 14.4176 2.30609 14.3545 2.37064L9.10342 6.98736C8.77177 7.2792 8.28453 7.27907 7.95368 6.98736L2.71449 2.37064H2.71436C2.63908 2.30066 2.53854 2.26428 2.43588 2.26984C2.28097 2.27963 2.14762 2.38281 2.09933 2.53045C2.05091 2.67796 2.09748 2.84001 2.21654 2.9395L5.17392 5.54724L2.2225 8.05416V8.05429C2.13122 8.11369 2.06997 8.20934 2.05409 8.31702C2.03822 8.42471 2.0693 8.53398 2.13968 8.61719C2.20993 8.70027 2.31246 8.74922 2.42133 8.75147C2.53021 8.75385 2.63472 8.70927 2.70854 8.6291L5.74886 6.05695L7.44989 7.55633C8.06267 8.09675 8.98832 8.0957 9.60121 7.55633L11.314 6.05099L14.3603 8.6291C14.4341 8.70927 14.5386 8.75385 14.6475 8.75147C14.7564 8.74922 14.8589 8.70027 14.9291 8.61719C14.9995 8.53398 15.0306 8.42471 15.0147 8.31702C14.9988 8.20934 14.9376 8.11369 14.8463 8.05429L11.8889 5.54737L14.8523 2.93963V2.9395C14.988 2.83789 15.0399 2.65864 14.9793 2.50028C14.9187 2.34192 14.7603 2.24297 14.5915 2.25792L14.5915 2.25793Z" fill="#525FE1"/>
</svg>
