<svg width="57" height="46" viewBox="0 0 57 46" fill="none" xmlns="http://www.w3.org/2000/svg">
<path d="M56.0902 1.75702C56.0847 1.81447 56.0741 1.87207 56.054 1.93071L56.0532 1.93775L56.0531 1.93885C56.0521 1.94705 56.0498 1.96727 56.0413 1.98823L56.0413 1.98832L40.9215 39.1052L40.9214 39.1053C40.8396 39.3058 40.6781 39.4645 40.4759 39.5426C40.3841 39.5782 40.288 39.5958 40.1919 39.5958C40.0755 39.5958 39.9589 39.57 39.8516 39.5182L30.0968 34.85L20.122 44.8643L20.1218 44.8645C20.104 44.8823 20.0845 44.8928 20.0766 44.8971C20.0721 44.8996 20.0699 44.9009 20.0689 44.9014C20.0267 44.9374 19.9826 44.9639 19.9407 44.9871M56.0902 1.75702L19.3226 45.0559C19.3227 45.0559 19.3227 45.0559 19.3228 45.0559C19.3956 45.0793 19.4725 45.0943 19.5515 45.0956C19.5547 45.096 19.5584 45.0962 19.5624 45.0962H19.5628H19.5633H19.5643C19.6227 45.0962 19.6814 45.0896 19.7397 45.0765L19.7403 45.0764C19.765 45.0706 19.7842 45.0596 19.792 45.0552C19.7959 45.053 19.7981 45.0518 19.7991 45.0513C19.8514 45.0345 19.8975 45.0114 19.9407 44.9871M56.0902 1.75702L56.1009 1.75774L56.0989 1.70203M56.0902 1.75702L56.0989 1.70203M19.9407 44.9871C19.9405 44.9871 19.9404 44.9872 19.9403 44.9873L19.8919 44.8999L19.941 44.9869C19.9409 44.9869 19.9408 44.987 19.9407 44.9871ZM56.0989 1.70203C56.0995 1.69681 56.1 1.69086 56.1 1.68439H56.1003L56.0997 1.67609C56.0991 1.66904 56.0981 1.6629 56.0973 1.65822L56.0972 1.65786L56.0968 1.64673C56.0921 1.52111 56.0667 1.38721 55.9898 1.26305L55.9897 1.26297C55.8319 1.00863 55.5546 0.887864 55.2814 0.900967L55.2786 0.900801C55.2748 0.90058 55.266 0.900084 55.2558 0.900868L55.2553 0.900911C55.2135 0.904344 55.1758 0.912198 55.1403 0.920528C55.1374 0.921063 55.1348 0.921387 55.1303 0.921961C55.1276 0.922299 55.1242 0.922724 55.1196 0.92333C55.1086 0.924788 55.0922 0.927234 55.0741 0.933056C55.0738 0.933134 55.0736 0.933212 55.0733 0.93329L53.1286 1.5382L53.1583 1.63369L53.1286 1.53821C31.4895 8.27176 18.7624 12.2045 11.365 14.4705C3.99459 16.7282 1.92022 17.3296 1.59298 17.3988C1.27976 17.4368 1.0145 17.6601 0.928645 17.9707C0.834211 18.3118 0.978589 18.6744 1.28246 18.8563L56.0989 1.70203ZM22.4801 34.401L23.731 31.0062L22.4801 34.401ZM22.4801 34.401C22.3491 34.7574 22.5309 35.1526 22.8877 35.284M22.4801 34.401L22.8877 35.284M30.3469 17.1767L30.347 17.1769C30.5759 17.5464 30.463 18.0321 30.0931 18.2613L30.3469 17.1767ZM30.3469 17.1767C30.117 16.8075 29.6325 16.6922 29.2624 16.923L30.3469 17.1767ZM11.4951 23.1469L11.4952 23.147L15.4309 25.5084L29.2622 16.9231L11.4951 23.1469ZM11.4951 23.1469C11.1222 22.9234 10.6382 23.0442 10.4145 23.4168L10.4145 23.4168M11.4951 23.1469L10.4145 23.4168M10.4145 23.4168C10.191 23.7897 10.3111 24.2737 10.6844 24.4974L14.7454 26.9337L18.7953 44.4863L18.7958 44.488L10.4145 23.4168ZM18.8628 44.6499L18.8626 44.6496C18.8606 44.6453 18.8584 44.6409 18.8562 44.6363C18.8414 44.606 18.8227 44.5677 18.8105 44.5256C18.8102 44.5244 18.8098 44.5232 18.8095 44.522L18.809 44.5202L18.8628 44.6499ZM18.8628 44.6499C18.865 44.6544 18.8674 44.6595 18.8699 44.6649C18.8827 44.692 18.9003 44.7294 18.9237 44.7618M18.8628 44.6499L19.0062 44.8534M19.0062 44.8534L19.0061 44.8533C19.0026 44.8498 18.9988 44.8459 18.9947 44.8418C18.974 44.8211 18.9459 44.7932 18.9237 44.7618M19.0062 44.8534C19.0086 44.8559 19.0111 44.8584 19.0137 44.8611M19.0062 44.8534L19.0137 44.8611M18.9237 44.7618C18.9236 44.7616 18.9234 44.7614 18.9233 44.7612L19.005 44.7036L18.9241 44.7623C18.924 44.7622 18.9238 44.762 18.9237 44.7618ZM19.0137 44.8611C19.0386 44.8865 19.0693 44.9178 19.1059 44.9446M19.0137 44.8611L19.1059 44.9446M19.1059 44.9446L19.1078 44.9466L19.1083 44.9471C19.1124 44.9515 19.1236 44.9632 19.1396 44.9731L19.1059 44.9446ZM22.8877 35.284C23.2451 35.415 23.6393 35.2332 23.7707 34.8763L22.8877 35.284ZM19.7962 45.0522L19.7969 45.052L19.7962 45.0522ZM1.28255 18.8563L7.18087 22.3954C7.55436 22.6201 8.03846 22.4988 8.26162 22.1256C8.48511 21.7528 8.36498 21.2687 7.99176 21.045L3.65903 18.4455C7.28367 17.3822 17.91 14.1423 49.6539 4.26909L32.0933 15.168L1.28255 18.8563Z" fill="#00DA71" stroke="#00DA71" stroke-width="0.2"/>
</svg>
