<svg width="37" height="42" viewBox="0 0 37 42" fill="none" xmlns="http://www.w3.org/2000/svg">
<path d="M10.6376 33.3613C8.16114 31.1049 6.70893 27.8712 6.70893 24.4923C6.70893 24.0611 6.35922 23.7113 5.928 23.7113C5.49677 23.7113 5.14706 24.0611 5.14706 24.4923C5.14706 28.7588 7.19101 32.8245 10.6133 35.3687C12.9647 37.124 15.7633 38.0519 18.7067 38.0519C19.4426 38.0519 20.1695 37.9938 20.8827 37.8796C22.6654 37.5935 24.3622 36.9548 25.8985 35.9886C26.206 35.7952 26.5071 35.5883 26.8008 35.3694L26.8018 35.3684C30.2237 32.8242 32.2667 28.7588 32.2667 24.4936C32.2667 24.0624 31.917 23.7127 31.4858 23.7127C31.0545 23.7127 30.7048 24.0624 30.7048 24.4936C30.7048 27.9274 29.2852 31.0981 26.7775 33.3651C25.6254 29.9515 22.4154 27.5828 18.707 27.5828C14.9999 27.5819 11.7902 29.9489 10.6375 33.3616L10.6376 33.3613ZM18.707 29.1428C21.9264 29.1428 24.6914 31.3238 25.4608 34.3948C25.3908 34.4431 25.3221 34.4923 25.2514 34.5387C25.1332 34.616 25.0139 34.6918 24.8934 34.765C24.7467 34.8538 24.5987 34.9382 24.4488 35.0204C24.327 35.0872 24.2039 35.1537 24.0799 35.216C23.9268 35.2931 23.7714 35.365 23.6157 35.435C23.4907 35.4912 23.3654 35.5481 23.2385 35.6006C23.0781 35.6661 22.9154 35.7252 22.7526 35.7837C22.6261 35.8291 22.5001 35.8764 22.3719 35.917C22.2032 35.9711 22.0318 36.0174 21.8605 36.0638C21.7345 36.0983 21.6092 36.1354 21.482 36.1651C21.3011 36.2076 21.1176 36.2412 20.9344 36.2754C20.8139 36.2978 20.6947 36.3243 20.5732 36.3438C20.3693 36.3754 20.1621 36.3965 19.9559 36.4176C19.8527 36.4282 19.7507 36.4442 19.6465 36.4522C19.3355 36.4761 19.0219 36.4892 18.7067 36.4892C18.3909 36.4892 18.078 36.4758 17.767 36.4522C17.6637 36.4445 17.5627 36.4282 17.4598 36.4176C17.2523 36.3962 17.0452 36.3754 16.8396 36.3435C16.7201 36.3246 16.6018 36.2987 16.4826 36.276C16.2975 36.2415 16.1124 36.2076 15.9296 36.1641C15.8049 36.1347 15.6815 36.0983 15.5578 36.0647C15.3842 36.0174 15.2103 35.9708 15.039 35.9158C14.9134 35.8755 14.7896 35.8291 14.665 35.7847C14.4994 35.7256 14.3345 35.6655 14.1718 35.5987C14.0471 35.5472 13.9237 35.4919 13.801 35.436C13.6427 35.365 13.4858 35.2921 13.3304 35.2138C13.208 35.1518 13.0871 35.0863 12.9666 35.0204C12.8154 34.9376 12.6655 34.8523 12.5182 34.7624C12.3986 34.6899 12.28 34.6147 12.162 34.5374C12.0914 34.491 12.0224 34.4415 11.9527 34.3936C12.7227 31.3238 15.4878 29.1428 18.7071 29.1428L18.707 29.1428ZM24.4021 20.565C24.4021 17.4247 21.8474 14.8703 18.7074 14.8703C15.5674 14.8703 13.0126 17.425 13.0126 20.565C13.0126 23.705 15.5674 26.2598 18.7074 26.2598C21.8471 26.2601 24.4021 23.705 24.4021 20.565ZM14.5732 20.565C14.5732 18.2856 16.4272 16.4315 18.7067 16.4315C20.9862 16.4315 22.8403 18.2855 22.8403 20.565C22.8403 22.8445 20.9863 24.6986 18.7067 24.6986C16.4275 24.6986 14.5732 22.8442 14.5732 20.565ZM36.0134 23.9371C36.0134 33.4797 28.2502 41.244 18.7074 41.244C9.16482 41.244 1.4005 33.4801 1.4005 23.9371C1.4005 22.3468 1.61627 20.7715 2.04205 19.2541C2.15841 18.8385 2.59155 18.5975 3.0049 18.7132C3.42014 18.8302 3.66212 19.2608 3.54577 19.676C3.15866 21.056 2.96239 22.4897 2.96239 23.9371C2.96239 32.6188 10.0256 39.6826 18.7079 39.6826C27.3902 39.6826 34.4534 32.6194 34.4534 23.9371C34.4534 22.4206 34.2386 20.9211 33.8147 19.481C33.6929 19.0671 33.9291 18.6333 34.3428 18.5115C34.7561 18.39 35.1902 18.6259 35.312 19.0399C35.7784 20.6232 36.0143 22.2713 36.0143 23.9371L36.0134 23.9371ZM23.8612 4.18016L20.2996 3.66232L18.7067 0.434738C18.575 0.168781 18.3036 0 18.0063 0C17.7091 0 17.4377 0.168781 17.3066 0.434738L15.7137 3.66232L12.1521 4.18016C11.858 4.22268 11.6138 4.42886 11.5221 4.71176C11.4303 4.99466 11.507 5.30473 11.7196 5.51187L14.297 8.02406L13.6884 11.5714C13.6379 11.8642 13.7584 12.1602 13.9991 12.3347C14.2401 12.5099 14.5585 12.5316 14.8216 12.3942L18.0064 10.7198L21.1918 12.3948C21.3063 12.4549 21.4306 12.4846 21.5553 12.4846C21.717 12.4846 21.8778 12.4341 22.0143 12.3354C22.255 12.1608 22.3755 11.8648 22.325 11.572L21.7164 8.02472L24.2938 5.51253C24.507 5.30506 24.5831 4.99468 24.4914 4.71242C24.3993 4.4292 24.1554 4.22302 23.8613 4.18019L23.8612 4.18016ZM20.3328 7.19236C20.1487 7.37201 20.0646 7.63061 20.1084 7.88346L20.5185 10.2764L18.3698 9.14672C18.256 9.08726 18.1316 9.05689 18.0063 9.05689C17.8813 9.05689 17.7567 9.08662 17.6429 9.14672L15.4941 10.2764L15.9042 7.88346C15.9474 7.63061 15.8633 7.37201 15.6798 7.19236L13.9422 5.49817L16.3444 5.1491C16.5988 5.11234 16.8188 4.95251 16.9319 4.72203L18.0063 2.54486L19.081 4.72203C19.1942 4.95219 19.4147 5.11201 19.6686 5.1491L22.0708 5.49817L20.3328 7.19236ZM35.976 10.1729C35.884 9.88999 35.6398 9.68444 35.346 9.64129L31.7844 9.12344L30.1915 5.89586C30.0604 5.62958 29.789 5.46112 29.4918 5.46112C29.1945 5.46112 28.9231 5.6299 28.792 5.89586L27.1991 9.12344L23.6375 9.64129C23.3434 9.6838 23.0992 9.88999 23.0075 10.1729C22.9157 10.4558 22.9924 10.7659 23.205 10.973L25.7828 13.4852L25.1738 17.0325C25.1233 17.3253 25.2438 17.6219 25.4845 17.7965C25.6207 17.8956 25.7818 17.9457 25.9435 17.9457C26.0682 17.9457 26.1929 17.916 26.307 17.8559L29.4924 16.1815L32.6779 17.8559C32.9403 17.994 33.2593 17.9713 33.5004 17.7965C33.7411 17.6219 33.8616 17.3259 33.8111 17.0331L33.2025 13.4858L35.7799 10.9736C35.9915 10.7655 36.0679 10.4558 35.9761 10.1729L35.976 10.1729ZM31.8179 12.6537C31.6338 12.8334 31.5497 13.092 31.5935 13.3448L32.0037 15.7378L29.8549 14.6081C29.7411 14.5486 29.6167 14.5183 29.4914 14.5183C29.3664 14.5183 29.2418 14.548 29.128 14.6081L26.9792 15.7378L27.39 13.3458C27.4331 13.0923 27.349 12.834 27.1656 12.6544L25.4273 10.9602L27.8295 10.6111C28.0839 10.5744 28.3039 10.4146 28.417 10.1841L29.4917 8.0069L30.5664 10.1841C30.6796 10.4142 30.9002 10.5741 31.154 10.6111L33.5562 10.9602L31.8179 12.6537ZM7.22219 5.89645C7.09112 5.63017 6.81973 5.46171 6.52245 5.46171C6.22516 5.46171 5.95377 5.63049 5.82271 5.89645L4.22983 9.12403L0.668207 9.64187C0.374443 9.68439 0.129901 9.89057 0.0381574 10.1735C-0.0535856 10.4564 0.0231344 10.7661 0.235711 10.9736L2.81313 13.4858L2.20449 17.0331C2.15399 17.3259 2.2745 17.6219 2.5152 17.7964C2.75687 17.9716 3.07461 17.9933 3.33771 17.8559L6.52314 16.1815L9.70858 17.8559C9.82301 17.916 9.94737 17.9457 10.072 17.9457C10.2338 17.9457 10.3946 17.8952 10.5311 17.7964C10.7718 17.6219 10.8923 17.3259 10.8418 17.0324L10.2328 13.4851L12.8106 10.9729C13.0238 10.7655 13.0999 10.4551 13.0081 10.1728C12.9161 9.88994 12.6722 9.68439 12.3781 9.64124L8.81645 9.12339L7.22219 5.89645ZM8.84796 12.6537C8.66384 12.8334 8.57977 13.092 8.62356 13.3452L9.03432 15.7371L6.88555 14.6074C6.65796 14.4879 6.38655 14.4879 6.15864 14.6074L4.00987 15.7371L4.41999 13.3442C4.46315 13.0913 4.37908 12.8327 4.19559 12.6531L2.45795 10.9589L4.86016 10.6098C5.11461 10.5731 5.33453 10.4132 5.44769 10.1827L6.52241 8.00557L7.59712 10.1827C7.71028 10.4129 7.93084 10.5727 8.18466 10.6098L10.5869 10.9589L8.84796 12.6537Z" fill="#F14D5D"/>
</svg>
