<svg width="32" height="40" viewBox="0 0 32 40" fill="none" xmlns="http://www.w3.org/2000/svg">
<path fill-rule="evenodd" clip-rule="evenodd" d="M23.8663 16.501V3.72919C23.8663 2.74038 23.4734 1.79189 22.7741 1.09227C22.0747 0.392941 21.1262 0 20.1374 0H3.86749C2.87817 0 1.9299 0.392918 1.23057 1.09227C0.531246 1.79188 0.138306 2.74038 0.138306 3.72919V28.3508C0.138306 30.4099 1.80798 32.0794 3.86749 32.0794H12.512C12.9561 32.0794 13.3171 31.719 13.3171 31.2748C13.3171 30.8302 12.9561 30.47 12.512 30.47H3.86749C2.69708 30.47 1.74823 29.5211 1.74823 28.3507V3.72911C1.74823 3.16718 1.97127 2.62794 2.36908 2.23045C2.76631 1.83322 3.30528 1.60988 3.86746 1.60988H20.1374C20.6993 1.60988 21.2386 1.83322 21.6358 2.23045C22.0333 2.62797 22.2566 3.16716 22.2566 3.72911V16.5009C22.2566 16.9453 22.6171 17.306 23.0612 17.306C23.5056 17.306 23.8662 16.9453 23.8662 16.5009L23.8663 16.501Z" fill="#8E66FF"/>
<path fill-rule="evenodd" clip-rule="evenodd" d="M18.5544 4.18472H9.95695C9.51286 4.18472 9.1521 4.54545 9.1521 4.98979C9.1521 5.43388 9.51282 5.79465 9.95695 5.79465H18.5544C18.9988 5.79465 19.3592 5.43392 19.3592 4.98979C19.3592 4.54542 18.9988 4.18472 18.5544 4.18472Z" fill="#8E66FF"/>
<path fill-rule="evenodd" clip-rule="evenodd" d="M18.5544 9.65775H5.44999C5.0059 9.65775 4.64514 10.0185 4.64514 10.4628C4.64514 10.9069 5.00587 11.2677 5.44999 11.2677H18.5544C18.9988 11.2677 19.3592 10.9069 19.3592 10.4628C19.3592 10.0184 18.9988 9.65775 18.5544 9.65775Z" fill="#8E66FF"/>
<path fill-rule="evenodd" clip-rule="evenodd" d="M18.5544 15.1301H5.44999C5.0059 15.1301 4.64514 15.4909 4.64514 15.935C4.64514 16.3794 5.00587 16.74 5.44999 16.74H18.5544C18.9988 16.74 19.3592 16.3793 19.3592 15.935C19.3592 15.4909 18.9988 15.1301 18.5544 15.1301Z" fill="#8E66FF"/>
<path fill-rule="evenodd" clip-rule="evenodd" d="M12.6199 20.6032H5.44963C5.00554 20.6032 4.64478 20.964 4.64478 21.4081C4.64478 21.8525 5.0055 22.2132 5.44963 22.2132H12.6199C13.064 22.2132 13.4245 21.8524 13.4245 21.4081C13.4245 20.964 13.064 20.6032 12.6199 20.6032Z" fill="#8E66FF"/>
<path fill-rule="evenodd" clip-rule="evenodd" d="M11.28 26.0756H5.44975C5.00566 26.0756 4.6449 26.4363 4.6449 26.8804C4.6449 27.3248 5.00562 27.6855 5.44975 27.6855H11.28C11.7241 27.6855 12.0851 27.3248 12.0851 26.8804C12.0851 26.4364 11.7241 26.0756 11.28 26.0756Z" fill="#8E66FF"/>
<path fill-rule="evenodd" clip-rule="evenodd" d="M16.9274 20.0896C13.4095 22.5529 12.5532 27.4088 15.0165 30.9269C17.4798 34.4445 22.3354 35.3007 25.8531 32.8378C29.371 30.3744 30.2272 25.5186 27.764 22.0005C25.3006 18.4825 20.445 17.6263 16.9274 20.0896ZM17.8506 21.4081C20.6408 19.4544 24.4921 20.1336 26.4459 22.9237C28.3996 25.7138 27.7206 29.5652 24.9305 31.519C22.1401 33.4727 18.2887 32.7931 16.3353 30.0033C14.3816 27.2132 15.0608 23.3618 17.8509 21.4081H17.8506Z" fill="#8E66FF"/>
<path fill-rule="evenodd" clip-rule="evenodd" d="M24.9164 32.9027L25.7413 34.0806C25.996 34.4445 26.4984 34.533 26.8623 34.2784C27.2259 34.0234 27.3147 33.5213 27.0598 33.1574L26.2348 31.9795C25.9802 31.6156 25.478 31.5271 25.1141 31.7817C24.7503 32.0364 24.6617 32.5388 24.9164 32.9027H24.9164Z" fill="#8E66FF"/>
<path fill-rule="evenodd" clip-rule="evenodd" d="M29.3674 34.0586C28.7198 33.1337 27.573 32.6976 26.4744 32.9586C26.1793 33.0288 25.9217 33.209 25.7547 33.4625C25.1339 34.4055 25.1514 35.6323 25.799 36.5573C26.3261 37.3099 27.0263 38.3101 27.5595 39.0715C27.8907 39.5446 28.3965 39.8666 28.9653 39.9669C29.5339 40.0672 30.1191 39.9376 30.5922 39.6061C30.5925 39.6061 30.5928 39.6059 30.593 39.6056C31.0662 39.2744 31.3884 38.7689 31.4887 38.2C31.5887 37.6314 31.4591 37.0459 31.128 36.5729L29.3674 34.0586ZM28.0487 34.9819C27.8127 34.645 27.4175 34.4642 27.0159 34.4978C26.8469 34.8635 26.8814 35.2969 27.1174 35.634C27.6446 36.3866 28.3451 37.3868 28.878 38.1482C28.9645 38.2715 29.0964 38.3555 29.2447 38.3816C29.393 38.4078 29.5457 38.3741 29.669 38.2876C29.6693 38.2873 29.6695 38.2873 29.6698 38.287C29.7931 38.2005 29.8774 38.0689 29.9032 37.9206C29.9294 37.7723 29.8958 37.6196 29.8092 37.496L28.0487 34.9819Z" fill="#8E66FF"/>
</svg>
