<svg width="39" height="49" viewBox="0 0 39 49" fill="none" xmlns="http://www.w3.org/2000/svg">
<path d="M38.6155 8.70872C38.5723 8.28645 38.2337 7.95492 37.8102 7.92114C34.6088 7.51223 31.4824 6.64525 28.5274 5.34743C25.4745 4.07707 22.6309 2.35187 20.0938 0.230678C19.7575 -0.0768926 19.2422 -0.0768926 18.906 0.230678C16.3704 2.35499 13.5265 4.08179 10.4724 5.35175C7.51685 6.64847 4.39056 7.51337 1.18956 7.92114C0.767688 7.95453 0.429478 8.28371 0.384307 8.70441C0.313994 9.39497 -1.29614 25.5189 2.64568 33.3937C7.35738 42.7999 18.6507 48.0924 19.1303 48.3167C19.3649 48.4255 19.6351 48.4255 19.8696 48.3167C20.3492 48.0924 31.6421 42.7997 36.3543 33.3937C40.2961 25.5187 38.6861 9.39424 38.6157 8.70843L38.6155 8.70872ZM34.7793 32.6026C30.8198 40.5216 21.4713 45.5456 19.4994 46.5351C17.5282 45.5495 8.19751 40.5475 4.21939 32.6026C0.946091 26.078 1.80828 12.8045 2.07225 9.59364H2.07265C5.20134 9.10655 8.25472 8.2196 11.1576 6.95396C14.148 5.69969 16.9539 4.04519 19.4988 2.03521C22.0482 4.05263 24.8603 5.71347 27.8578 6.97166C30.7607 8.2369 33.814 9.12423 36.9428 9.61134C37.189 12.7833 38.0512 26.0779 34.7784 32.6032L34.7793 32.6026Z" fill="white"/>
<path d="M26.0988 18.9195H24.779V15.3999C24.779 13.5137 23.7726 11.7708 22.1393 10.828C20.506 9.88488 18.4932 9.88488 16.86 10.828C15.2267 11.7708 14.2203 13.5137 14.2203 15.3999V18.9195H12.9004C12.3171 18.9195 11.7574 19.1513 11.3449 19.5637C10.9324 19.9762 10.7007 20.5359 10.7007 21.1193V32.5579C10.7007 33.1412 10.9324 33.7009 11.3449 34.1134C11.7573 34.5259 12.3171 34.7576 12.9004 34.7576H26.0988C26.6822 34.7576 27.2419 34.5259 27.6544 34.1134C28.0669 33.701 28.2986 33.1412 28.2986 32.5579V21.1193C28.2986 20.5359 28.0668 19.9762 27.6544 19.5637C27.2419 19.1512 26.6822 18.9195 26.0988 18.9195ZM15.9806 15.3999C15.9806 14.1425 16.6515 12.9806 17.7403 12.3518C18.8292 11.7233 20.1711 11.7233 21.2599 12.3518C22.3488 12.9807 23.0197 14.1426 23.0197 15.3999V18.9195H15.9806V15.3999ZM26.5393 32.5573C26.5393 32.674 26.4929 32.786 26.4104 32.8685C26.328 32.951 26.216 32.9973 26.0993 32.9973H12.9009C12.6578 32.9973 12.461 32.8005 12.461 32.5573V21.1187C12.461 20.8756 12.6578 20.6788 12.9009 20.6788H26.0993C26.216 20.6788 26.3279 20.7251 26.4104 20.8076C26.4929 20.8901 26.5393 21.0021 26.5393 21.1187V32.5573Z" fill="white"/>
<path d="M19.5001 22.4391C18.3504 22.4422 17.2749 23.0071 16.6193 23.9514C15.9633 24.8957 15.8105 26.1008 16.2092 27.1791C16.6079 28.2574 17.5079 29.0733 18.6203 29.364V30.3582C18.6203 30.8441 19.0143 31.2381 19.5002 31.2381C19.9861 31.2381 20.3801 30.8441 20.3801 30.3582V29.364C21.4925 29.0733 22.3925 28.2574 22.7912 27.1791C23.1899 26.1008 23.0371 24.8957 22.3812 23.9514C21.7256 23.0071 20.65 22.4422 19.5003 22.4391H19.5001ZM19.5001 27.7184C19.0335 27.7184 18.5857 27.533 18.2557 27.2031C17.9258 26.8731 17.7404 26.4253 17.7404 25.9587C17.7404 25.492 17.9258 25.0442 18.2557 24.7142C18.5857 24.3843 19.0335 24.1989 19.5001 24.1989C19.9668 24.1989 20.4146 24.3843 20.7446 24.7142C21.0745 25.0442 21.2599 25.492 21.2599 25.9587C21.2599 26.4253 21.0745 26.8731 20.7446 27.2031C20.4146 27.533 19.9668 27.7184 19.5001 27.7184Z" fill="white"/>
</svg>
