<svg width="56" height="56" viewBox="0 0 56 56" fill="none" xmlns="http://www.w3.org/2000/svg">
<path d="M11.2 0C6.56801 0.000984339 2.80029 3.7687 2.80029 8.40068C2.80029 13.0326 6.56801 16.7995 11.2 16.7995C15.832 16.7995 19.5997 13.0318 19.5997 8.3998C19.5997 3.76772 15.832 0 11.2 0ZM11.2 14.0005C8.10708 14.0005 5.60019 11.4936 5.60019 8.40068C5.60019 5.30777 8.10708 2.80088 11.2 2.80088C14.2929 2.80088 16.7998 5.30777 16.7998 8.40068C16.7998 11.4936 14.293 14.0005 11.2 14.0005Z" fill="#8E66FF"/>
<path d="M53.1988 13.9995H25.1998C23.6533 13.9995 22.3999 15.2529 22.3999 16.7994V18.9376L25.1998 20.3375V16.7994H53.1988V39.1976H25.1998V35.8694L22.3999 35.1704V39.1976C22.3999 40.7441 23.6533 41.9975 25.1998 41.9975H36.7279L29.5994 53.8775C29.1999 54.5392 29.4164 55.4006 30.0809 55.7973C30.737 56.1995 31.6013 55.983 32.0007 55.3157L37.7993 45.6505V54.5961C37.7993 55.3698 38.4256 55.9961 39.1993 55.9961C39.973 55.9961 40.5992 55.3698 40.5992 54.5961V45.6505L46.3987 55.3148C46.661 55.7525 47.1257 55.9952 47.599 55.9952C47.8454 55.9952 48.0937 55.9327 48.3185 55.7955C48.9831 55.3988 49.1986 54.5374 48.8001 53.8757L41.6715 41.9957H53.1987C54.7452 41.9957 55.9986 40.7423 55.9986 39.1958V16.7994C55.9987 15.2529 54.7453 13.9995 53.1988 13.9995Z" fill="#8E66FF"/>
<path d="M48.9435 22.0138C48.7325 21.2699 47.9589 20.8322 47.2132 21.0544L29.9368 25.9906C29.7352 25.7956 29.5094 25.6248 29.2518 25.495L18.0522 19.8952C17.6631 19.7011 17.2347 19.5994 16.7997 19.5994H5.60013C4.24688 19.5994 3.08766 20.5672 2.84507 21.8982L0.0451783 37.2966C-0.103238 38.1133 0.118019 38.9541 0.65 39.5915C1.18198 40.2289 1.96967 40.5976 2.80034 40.5976H4.58943L5.60954 53.4183C5.72525 54.8743 6.93949 55.9961 8.40014 55.9961H13.9999C15.4269 55.9961 16.6253 54.9237 16.783 53.506L19.2292 31.4923L27.3209 33.5148C27.5449 33.5708 27.7726 33.5978 27.9994 33.5978C28.6173 33.5978 29.2248 33.3934 29.7223 33.0051C30.4017 32.475 30.7993 31.6602 30.7993 30.7979V28.6541L47.9841 23.744C48.7279 23.5331 49.1572 22.7566 48.9435 22.0138ZM27.9993 30.7989L16.7997 27.999L13.9998 53.1972H8.40003L7.17551 37.7977H2.80023L5.60013 22.3993H9.79998V30.9166C9.79998 31.6902 10.4262 32.3165 11.1999 32.3165C11.9736 32.3165 12.5999 31.6902 12.5999 30.9166V22.3992H16.7997L27.9993 27.999V30.7989Z" fill="#8E66FF"/>
</svg>
