<svg width="40" height="40" viewBox="0 0 40 40" fill="none" xmlns="http://www.w3.org/2000/svg">
<path d="M20 38L24 34M29 34C31.7614 34 34 31.7614 34 29C34 26.2386 31.7614 24 29 24C26.2386 24 24 26.2386 24 29C24 31.7614 26.2386 34 29 34ZM16 6L20 2L16 6ZM11 16C13.7614 16 16 13.7614 16 11C16 8.23858 13.7614 6 11 6C8.23858 6 6 8.23858 6 11C6 13.7614 8.23858 16 11 16ZM12 28L28 12L12 28ZM7 38C9.76142 38 12 35.7614 12 33C12 30.2386 9.76142 28 7 28C4.23858 28 2 30.2386 2 33C2 35.7614 4.23858 38 7 38ZM33 12C35.7614 12 38 9.76142 38 7C38 4.23858 35.7614 2 33 2C30.2386 2 28 4.23858 28 7C28 9.76142 30.2386 12 33 12Z" stroke="#F14D5D" stroke-width="3" stroke-linecap="round" stroke-linejoin="round"/>
</svg>
